<svg xmlns="http://www.w3.org/2000/svg" width="12.025" height="16.023" viewBox="0 0 12.025 16.023">
  <g id="Audit_Presented_Icon" data-name="Audit Presented Icon" transform="translate(0 0)">
    <path id="Path_1781" data-name="Path 1781" d="M9.638,4.442A2.055,2.055,0,0,1,7.584,2.387V0H1.233A1.236,1.236,0,0,0,0,1.233V14.791a1.236,1.236,0,0,0,1.233,1.233h9.56a1.236,1.236,0,0,0,1.233-1.233V4.442ZM2.223,6.286H6.664a.411.411,0,1,1,0,.822H2.223a.411.411,0,0,1,0-.822Zm7.995,7.038H2.223a.411.411,0,0,1,0-.822h7.995a.411.411,0,0,1,0,.822Zm0-3.11H2.223a.411.411,0,1,1,0-.822h7.995a.411.411,0,0,1,0,.822Zm0,0" fill="#cbdf32"/>
    <path id="Path_1782" data-name="Path 1782" d="M205.835,17.142h1.816L204.6,14.1v1.808A1.233,1.233,0,0,0,205.835,17.142Zm0,0" transform="translate(-196.196 -13.522)" fill="#cbdf32"/>
  </g>
</svg>
