<svg xmlns="http://www.w3.org/2000/svg" width="12.342" height="12.37" viewBox="0 0 12.342 12.37" fill="#fff">
  <g id="Bonus_Resources_Icon" data-name="Bonus Resources Icon" transform="translate(-10 -9)">
    <path id="Path_369" data-name="Path 369" d="M15.882,21.366H10.495V15.073H10V12.022h2.391a2.277,2.277,0,0,1-.742-.879,1.666,1.666,0,0,1-.028-1.4,1.163,1.163,0,0,1,.769-.66A2.039,2.039,0,0,1,12.941,9a1.665,1.665,0,0,1,.825.193,2,2,0,0,1,.467.33,5.389,5.389,0,0,1,.825,1.127l.11.165a3.039,3.039,0,0,0,.55.742.649.649,0,0,0,.439.193h.028a.643.643,0,0,0,.439-.193,3.233,3.233,0,0,0,.55-.769,1.1,1.1,0,0,1,.137-.247,3.383,3.383,0,0,1,1.072-1.264A1.73,1.73,0,0,1,19.373,9a3.007,3.007,0,0,1,.495.055,1.2,1.2,0,0,1,.742.495,1.565,1.565,0,0,1,.193,1.237,1.955,1.955,0,0,1-.769,1.182c-.028.028-.055.028-.082.055h2.391v3.051h-.495V21.37H15.882ZM17.806,17v3.572h3.242v-5.5H17.806V17Zm-3.3,3.572v-5.5H11.264v5.5h3.244Zm2.5,0V12.791H15.277v7.778Zm4.534-6.293V12.791H17.806v1.485h3.737Zm-7.035,0V12.791H10.769v1.485h3.738Zm3.3-2.528h.439a2.55,2.55,0,0,0,1.044-.274,1.368,1.368,0,0,0,.688-.8.779.779,0,0,0-.055-.688.424.424,0,0,0-.33-.193.752.752,0,0,0-.247-.028,1.328,1.328,0,0,0-.495.11,2.267,2.267,0,0,0-.66.688c-.11.193-.193.358-.3.523-.137.22-.274.467-.412.688l.33-.028Zm-2.969,0a4.3,4.3,0,0,1-.412-.66c-.082-.165-.193-.3-.274-.467a1.973,1.973,0,0,0-.55-.632.98.98,0,0,0-.632-.22h-.082a.677.677,0,0,0-.495.193.835.835,0,0,0-.11.66,1.171,1.171,0,0,0,.55.769,2.337,2.337,0,0,0,1.32.385h.688v-.028Z" transform="translate(0 0)" fill="#fffff"/>
  </g>
</svg>
