<svg id="Customize_Report" data-name="Customize Report" xmlns="http://www.w3.org/2000/svg" width="11.047" height="11.047" viewBox="0 0 11.047 11.047">
  <g id="Group_1041" data-name="Group 1041" transform="translate(0 3.682)">
    <g id="Group_1040" data-name="Group 1040">
      <path id="Path_824" data-name="Path 824" d="M6.812,162.762h-.2a.181.181,0,0,1-.17-.119c-.022-.059-.047-.117-.073-.174a.182.182,0,0,1,.037-.206l.144-.145a.554.554,0,0,0,0-.78l-.52-.52a.554.554,0,0,0-.781,0l-.144.144A.182.182,0,0,1,4.9,161c-.057-.026-.115-.05-.174-.074a.181.181,0,0,1-.119-.171v-.2A.552.552,0,0,0,4.051,160H3.314a.552.552,0,0,0-.552.552v.2a.181.181,0,0,1-.119.17c-.059.023-.117.047-.174.073a.182.182,0,0,1-.205-.037l-.145-.144a.553.553,0,0,0-.78,0l-.52.522a.554.554,0,0,0,0,.781l.144.144a.182.182,0,0,1,.037.206c-.026.057-.05.115-.073.174a.181.181,0,0,1-.172.119h-.2a.552.552,0,0,0-.552.552v.736a.552.552,0,0,0,.552.552h.2a.181.181,0,0,1,.17.119c.022.059.047.117.073.174a.182.182,0,0,1-.037.206l-.144.144a.554.554,0,0,0,0,.78l.52.52a.553.553,0,0,0,.781,0l.144-.144a.182.182,0,0,1,.205-.037c.057.026.115.05.174.074a.181.181,0,0,1,.12.171v.2a.552.552,0,0,0,.552.552h.736a.552.552,0,0,0,.552-.552v-.2a.181.181,0,0,1,.119-.17c.059-.023.117-.047.174-.073a.182.182,0,0,1,.205.037l.145.144a.554.554,0,0,0,.78,0l.52-.52a.554.554,0,0,0,0-.781L6.4,165.1a.182.182,0,0,1-.037-.206c.026-.057.05-.115.074-.174a.181.181,0,0,1,.171-.119h.2a.552.552,0,0,0,.552-.552v-.736A.552.552,0,0,0,6.812,162.762ZM7,164.051a.184.184,0,0,1-.184.184h-.2a.555.555,0,0,0-.516.356q-.029.077-.063.152a.554.554,0,0,0,.11.618l.144.144a.184.184,0,0,1,0,.26h0l-.52.52a.184.184,0,0,1-.26,0l-.144-.144a.553.553,0,0,0-.618-.11c-.05.023-.1.044-.152.063a.554.554,0,0,0-.356.515v.2a.184.184,0,0,1-.184.184H3.314a.184.184,0,0,1-.184-.184v-.2a.554.554,0,0,0-.356-.516q-.077-.029-.152-.063a.554.554,0,0,0-.618.111l-.144.144a.184.184,0,0,1-.26,0h0l-.52-.52a.184.184,0,0,1,0-.26l.144-.144a.554.554,0,0,0,.11-.618c-.023-.05-.044-.1-.063-.152a.554.554,0,0,0-.515-.357h-.2a.184.184,0,0,1-.184-.184v-.736a.184.184,0,0,1,.184-.184h.2a.554.554,0,0,0,.516-.356c.02-.052.041-.1.063-.152a.554.554,0,0,0-.11-.618l-.145-.144a.184.184,0,0,1,0-.26h0l.52-.52a.184.184,0,0,1,.26,0l.144.144a.553.553,0,0,0,.618.11c.05-.022.1-.044.152-.063a.554.554,0,0,0,.357-.515v-.2a.184.184,0,0,1,.184-.184h.736a.184.184,0,0,1,.184.184v.2a.554.554,0,0,0,.356.515c.052.02.1.041.152.063a.553.553,0,0,0,.618-.111l.144-.144a.185.185,0,0,1,.261,0l.52.52a.184.184,0,0,1,0,.26L6.142,162a.554.554,0,0,0-.11.618c.023.05.044.1.063.152a.554.554,0,0,0,.515.356h.2a.184.184,0,0,1,.184.184v.736Z" transform="translate(0 -160)" fill="#1f85f2"/>
    </g>
  </g>
  <g id="Group_1043" data-name="Group 1043" transform="translate(2.024 5.708)">
    <g id="Group_1042" data-name="Group 1042">
      <path id="Path_825" data-name="Path 825" d="M91.27,249.583c0-.044,0-.088-.01-.132s-.013-.094-.023-.14c-.006-.03-.015-.06-.023-.089s-.022-.075-.035-.112-.018-.051-.028-.076a1.639,1.639,0,0,0-.081-.172l-.006-.013a1.645,1.645,0,0,0-.166-.241l-.017-.019c-.025-.03-.052-.059-.079-.087l-.045-.043-.055-.05c-.022-.019-.045-.038-.068-.056l-.03-.023a1.645,1.645,0,0,0-.987-.328c-.018,0-.037,0-.055,0-.039,0-.079,0-.118.007l-.063.008a1.725,1.725,0,0,0-.178.033,1.658,1.658,0,0,0,0,3.211l.009,0a1.749,1.749,0,0,0,.193.037c.043.005.086.007.129.009s.055.006.085.006c.052,0,.107,0,.163-.009l.018,0c.045-.005.09-.012.136-.021l.053-.012c.032-.008.065-.016.1-.025l.076-.026.077-.028c.026-.01.048-.021.072-.032s.062-.028.092-.045h0a2.177,2.177,0,0,0,.472-.341.578.578,0,0,0,.1-.121,1.966,1.966,0,0,0,.277-.757c.005-.036.01-.071.013-.107s0-.066.005-.1c0-.011,0-.02,0-.031C91.274,249.632,91.271,249.608,91.27,249.583Zm-.367.121c0,.015,0,.03,0,.046,0,.045-.009.089-.017.134a1.292,1.292,0,0,1-.647.9l-.068.033-.015.007a1.329,1.329,0,0,1-.336.1l-.025,0-.068.008c-.03,0-.059,0-.09,0H89.6a1.254,1.254,0,0,1-.13-.008l-.022,0a1.39,1.39,0,0,1-.15-.028,1.289,1.289,0,0,1,0-2.5h0a1.329,1.329,0,0,1,.323-.04,1.263,1.263,0,0,1,.157.011l.042.006q.06.009.118.024l.038.01a1.3,1.3,0,0,1,.281.118l.042.025c.029.018.057.037.085.058l.044.033a1.328,1.328,0,0,1,.1.092c.013.013.025.028.038.042s.042.047.062.072l.04.053c.018.027.037.054.053.082l.028.046a1.279,1.279,0,0,1,.063.135c.007.018.014.037.02.055.012.034.022.068.031.1,0,.018.01.035.014.053a1.287,1.287,0,0,1,.023.151c0,.014,0,.027,0,.041C90.9,249.619,90.9,249.661,90.9,249.7Z" transform="translate(-87.959 -248)" fill="#1f85f2"/>
    </g>
  </g>
  <g id="Group_1045" data-name="Group 1045" transform="translate(2.008)">
    <g id="Group_1044" data-name="Group 1044">
      <path id="Path_826" data-name="Path 826" d="M95.748,3.866h-.579A.18.18,0,0,1,95,3.746a3.832,3.832,0,0,0-.207-.5.18.18,0,0,1,.035-.208l.411-.411a.552.552,0,0,0,0-.781l-.783-.782a.552.552,0,0,0-.781,0l-.41.41a.18.18,0,0,1-.208.036,3.824,3.824,0,0,0-.5-.208.18.18,0,0,1-.122-.172V.552A.552.552,0,0,0,91.881,0h-1.1a.552.552,0,0,0-.552.552v.579A.179.179,0,0,1,90.1,1.3a3.835,3.835,0,0,0-.5.208.18.18,0,0,1-.208-.035l-.411-.411a.554.554,0,0,0-.781,0l-.781.781a.552.552,0,0,0,0,.781l.6.6a.184.184,0,0,0,.261-.26l-.6-.6a.184.184,0,0,1,0-.26l.781-.781a.184.184,0,0,1,.26,0l.411.411a.547.547,0,0,0,.633.1,3.485,3.485,0,0,1,.451-.188.548.548,0,0,0,.372-.521V.552a.184.184,0,0,1,.184-.184h1.1a.184.184,0,0,1,.184.184v.579a.548.548,0,0,0,.372.521,3.468,3.468,0,0,1,.451.188.549.549,0,0,0,.632-.1l.411-.41a.184.184,0,0,1,.26,0l.781.782a.184.184,0,0,1,0,.26l-.411.411a.548.548,0,0,0-.1.633,3.476,3.476,0,0,1,.188.451.548.548,0,0,0,.521.372h.579a.184.184,0,0,1,.184.184v1.1a.184.184,0,0,1-.184.184h-.579a.548.548,0,0,0-.521.372,3.469,3.469,0,0,1-.188.451.548.548,0,0,0,.1.632l.411.411a.184.184,0,0,1,0,.26l-.782.781a.184.184,0,0,1-.26,0l-.605-.6a.184.184,0,1,0-.264.256l0,0,.6.6a.552.552,0,0,0,.781,0l.781-.781a.552.552,0,0,0,0-.781l-.41-.411a.18.18,0,0,1-.036-.208A3.812,3.812,0,0,0,95,6.2a.18.18,0,0,1,.172-.122h.579a.552.552,0,0,0,.552-.552v-1.1A.552.552,0,0,0,95.748,3.866Z" transform="translate(-87.261 0)" fill="#1f85f2"/>
    </g>
  </g>
  <g id="Group_1047" data-name="Group 1047" transform="translate(4.332 2.579)">
    <g id="Group_1046" data-name="Group 1046">
      <path id="Path_827" data-name="Path 827" d="M191.655,112.749a2.4,2.4,0,0,0-3.385,0,.184.184,0,0,0,.26.26,2.025,2.025,0,1,1,2.883,2.845l-.019.019a.184.184,0,1,0,.256.265l0,0A2.4,2.4,0,0,0,191.655,112.749Z" transform="translate(-188.219 -112.049)" fill="#1f85f2"/>
    </g>
  </g>
</svg>
