<svg xmlns="http://www.w3.org/2000/svg" width="21.937" height="15.954" viewBox="0 0 21.937 15.954">
  <g id="Profile_Info_Icon" data-name="Profile Info Icon" transform="translate(0 -64)">
    <g id="Group_1831" data-name="Group 1831" transform="translate(0 64)">
      <g id="Group_1830" data-name="Group 1830" transform="translate(0 0)">
        <path id="Path_1784" data-name="Path 1784" d="M21.937,77.96V65.994A2,2,0,0,0,19.943,64H1.994A2,2,0,0,0,0,65.994V77.96a2,2,0,0,0,1.994,1.994H19.943A2,2,0,0,0,21.937,77.96ZM1,77.96V65.994a1,1,0,0,1,1-1H19.943a1,1,0,0,1,1,1V77.96a1,1,0,0,1-1,1H1.994A1,1,0,0,1,1,77.96Z" transform="translate(0 -64)" fill="#2e2e2e"/>
        <path id="Path_1786" data-name="Path 1786" d="M262.481,298.667H256.5a.5.5,0,1,0,0,1h5.983a.5.5,0,0,0,0-1Z" transform="translate(-244.034 -287.698)" fill="#2e2e2e"/>
        <path id="Path_1787" data-name="Path 1787" d="M262.481,234.667H256.5a.5.5,0,1,0,0,1h5.983a.5.5,0,0,0,0-1Z" transform="translate(-244.034 -226.69)" fill="#2e2e2e"/>
        <path id="Path_1788" data-name="Path 1788" d="M262.481,170.667H256.5a.5.5,0,1,0,0,1h5.983a.5.5,0,0,0,0-1Z" transform="translate(-244.034 -165.681)" fill="#2e2e2e"/>
        <path id="Path_1789" data-name="Path 1789" d="M108.66,153.322a1.994,1.994,0,1,0-1.994-1.994A2,2,0,0,0,108.66,153.322Zm0-2.991a1,1,0,1,1-1,1A1,1,0,0,1,108.66,150.33Z" transform="translate(-101.68 -145.344)" fill="#2e2e2e"/>
        <path id="Path_1790" data-name="Path 1790" d="M70.967,246.068a6.406,6.406,0,0,0-5.958,0A1.734,1.734,0,0,0,64,247.629v.228a.983.983,0,0,0,1,.966H70.98a.983.983,0,0,0,1-.966v-.228A1.734,1.734,0,0,0,70.967,246.068Zm.013,1.758L65,247.857v-.228a.746.746,0,0,1,.445-.663,5.413,5.413,0,0,1,5.093,0,.746.746,0,0,1,.445.663Z" transform="translate(-61.009 -236.857)" fill="#2e2e2e"/>
      </g>
    </g>
  </g>
</svg>
