<svg xmlns="http://www.w3.org/2000/svg" width="14.511" height="13.533" viewBox="0 0 14.511 13.533">
  <path id="copy-icon" d="M-7231.921,1809.533a2.084,2.084,0,0,1-1.47-.606,2.064,2.064,0,0,1-.608-1.463v-6.911a2.063,2.063,0,0,1,.608-1.463,2.084,2.084,0,0,1,1.47-.606h7.858a2.085,2.085,0,0,1,1.471.606,2.063,2.063,0,0,1,.608,1.463v6.911a2.064,2.064,0,0,1-.608,1.463,2.085,2.085,0,0,1-1.471.606Zm-.883-9.859a1.238,1.238,0,0,0-.364.878h0v6.911a1.239,1.239,0,0,0,.364.878,1.253,1.253,0,0,0,.883.363h7.858a1.251,1.251,0,0,0,.882-.363,1.24,1.24,0,0,0,.366-.878v-6.912a1.239,1.239,0,0,0-.366-.878,1.25,1.25,0,0,0-.882-.364h-7.858A1.252,1.252,0,0,0-7232.8,1799.674Zm12.483,6.61v-7.8a1.654,1.654,0,0,0-.487-1.171,1.665,1.665,0,0,0-1.176-.485h-8.773a.415.415,0,0,1-.416-.414.415.415,0,0,1,.416-.414h8.773a2.5,2.5,0,0,1,1.764.727,2.478,2.478,0,0,1,.731,1.756v7.8h0a.415.415,0,0,1-.417.414A.415.415,0,0,1-7220.321,1806.284Z" transform="translate(7234 -1796)" fill="#070707"/>
</svg>
