<svg xmlns="http://www.w3.org/2000/svg" width="12.997" height="16" viewBox="0 0 12.997 16">
  <path id="Subtraction_10" data-name="Subtraction 10" d="M-4674.5-145.5h-9.007a2,2,0,0,1-1.995-2v-12.011a2,2,0,0,1,1.995-1.993h6.007a.488.488,0,0,1,.347.143l4.5,4.5a.484.484,0,0,1,.145.347v9.009A2,2,0,0,1-4674.5-145.5Zm-9.007-15.015a1.01,1.01,0,0,0-1.009,1.009V-147.5a1.011,1.011,0,0,0,1.009,1.01h9.007a1.011,1.011,0,0,0,1.01-1.01v-7.764h-4.667a.587.587,0,0,1-.588-.586v-4.669Zm5.935.134v3.949h3.949Zm1.272,11.174h-5.406c-.227,0-.418-.269-.418-.588s.191-.585.418-.585h5.406c.226,0,.418.268.418.585S-4676.073-149.207-4676.3-149.207Zm0-2.966h-5.406c-.227,0-.418-.269-.418-.586s.191-.586.418-.586h5.406c.226,0,.418.269.418.586S-4676.073-152.173-4676.3-152.173Zm-4.03-2.964h-1.688a.588.588,0,0,1-.588-.588.587.587,0,0,1,.588-.586h1.688a.587.587,0,0,1,.586.586A.588.588,0,0,1-4680.329-155.137Z" transform="translate(4685.5 161.5)" fill="#070707"/>
</svg>
