<svg xmlns="http://www.w3.org/2000/svg" width="15.927" height="16" viewBox="0 0 15.927 16">
  <path id="Union_2" data-name="Union 2" d="M4.763,16a.5.5,0,0,1-.5-.5V8.534a.5.5,0,0,1,.5-.5H6.9a.5.5,0,0,1,.5.5V15.5a.5.5,0,0,1-.5.5Zm.5-1H6.4V9.032H5.261ZM9.029,16a.5.5,0,0,1-.5-.5V5.23a.5.5,0,0,1,.5-.5h2.133a.5.5,0,0,1,.5.5V15.5a.5.5,0,0,1-.5.5Zm.5-1h1.137V5.727H9.526Zm3.77.923a.5.5,0,0,1-.5-.5V.5a.5.5,0,0,1,.5-.5h2.132a.5.5,0,0,1,.5.5V15.429a.5.5,0,0,1-.5.5Zm.5-1h1.137V1H13.794Zm-13.3,1a.5.5,0,0,1-.5-.5v-3.64a.5.5,0,0,1,.5-.5H2.631a.5.5,0,0,1,.5.5v3.64a.5.5,0,0,1-.5.5Zm.5-1H2.133V12.286H1Z"/>
</svg>
