<svg xmlns="http://www.w3.org/2000/svg" width="15.939" height="17" viewBox="0 0 15.939 17">
  <path id="noun-read-document-3500486" d="M87.967,0a.531.531,0,0,0-.533.529V14.874a.531.531,0,0,0,.533.533h7.01c.051.049.089.1.143.145a5.98,5.98,0,0,0,1.47,1A4.471,4.471,0,0,0,98.6,17a4.806,4.806,0,0,0,1.992-.49,6.342,6.342,0,0,0,1.463-1,7.73,7.73,0,0,0,.906-.965c.208-.263.33-.455.33-.455a.531.531,0,0,0,0-.561s-.122-.191-.33-.454a7.721,7.721,0,0,0-.906-.969,6.334,6.334,0,0,0-1.463-.992c-.131-.063-.268-.12-.408-.174V.529A.531.531,0,0,0,99.653,0ZM88.5,1.062H99.124v9.6a4.367,4.367,0,0,0-2.534.4,5.977,5.977,0,0,0-1.47,1,7.534,7.534,0,0,0-.906,1,5.754,5.754,0,0,0-.329.475.531.531,0,0,0,0,.545s.114.16.182.259H88.5Zm2.634,3.188a.532.532,0,1,0,.055,1.062h5.279a.531.531,0,1,0,0-1.062H91.131Zm-.009,2.126a.532.532,0,1,0,.055,1.062h5.288a.531.531,0,1,0,0-1.062H91.121ZM91.155,8.5a.531.531,0,1,0,0,1.062H93.81a.531.531,0,1,0,0-1.062Zm7.423,3.188a3.744,3.744,0,0,1,1.556.388,5.281,5.281,0,0,1,1.212.828,6.792,6.792,0,0,1,.784.831c.038.049.025.038.055.078-.03.04-.016.03-.055.079a6.769,6.769,0,0,1-.784.835,5.284,5.284,0,0,1-1.212.828,3.743,3.743,0,0,1-1.556.384,3.377,3.377,0,0,1-1.533-.341,4.959,4.959,0,0,1-1.208-.827,6.571,6.571,0,0,1-.78-.855c-.049-.064-.036-.054-.07-.1.035-.049.022-.038.07-.1a6.6,6.6,0,0,1,.78-.855,4.959,4.959,0,0,1,1.208-.827,3.377,3.377,0,0,1,1.533-.341Zm.011.533a1.594,1.594,0,1,0,1.6,1.592A1.6,1.6,0,0,0,98.59,12.219Zm0,1.062a.532.532,0,1,1-.529.529A.523.523,0,0,1,98.59,13.281Z" transform="translate(-87.434 0)" fill-rule="evenodd"/>
</svg>
