<svg xmlns="http://www.w3.org/2000/svg" width="12.248" height="12.248" viewBox="0 0 12.248 12.248" fill="#fff">
  <g id="Deals_Icon" data-name="Deals Icon" transform="translate(0 -0.006)">
    <g id="Group_1839" data-name="Group 1839" transform="translate(0 0.006)">
      <g id="Group_1838" data-name="Group 1838" transform="translate(0 0)">
        <path id="Path_1812" data-name="Path 1812" d="M12.248.84a.83.83,0,0,0-.834-.834.836.836,0,0,0-.591.247c-.067.067-.189.212-.255.292A.2.2,0,1,0,10.873.8c.1-.126.191-.225.231-.265A.442.442,0,0,1,11.415.4h0a.433.433,0,0,1,.434.436.442.442,0,0,1-.131.312,7.09,7.09,0,0,1-.7.537,1.257,1.257,0,0,0-1.085-.624H7.028a1.459,1.459,0,0,0-1.038.43L.182,7.3a.622.622,0,0,0,0,.879l3.891,3.891a.622.622,0,0,0,.879,0l5.808-5.808a1.459,1.459,0,0,0,.43-1.038V2.32a1.256,1.256,0,0,0-.025-.25A7.594,7.594,0,0,0,12,1.431.836.836,0,0,0,12.248.84ZM10.794,5.225a1.065,1.065,0,0,1-.314.758L4.672,11.791a.225.225,0,0,1-.318,0L.463,7.9a.225.225,0,0,1,0-.318L6.271,1.774a1.065,1.065,0,0,1,.758-.314H9.934a.861.861,0,0,1,.756.451c-.234.155-.5.32-.775.483l-.027-.028a.834.834,0,1,0,.216.377c.242-.141.475-.285.689-.424V5.225ZM9.122,3.044a.2.2,0,0,0,.266.088q.174-.088.347-.182A.437.437,0,1,1,9.551,2.6q-.168.092-.341.179A.2.2,0,0,0,9.122,3.044Z" transform="translate(0 -0.006)" fill="#ffffff"/>
      </g>
    </g>
    <g id="Group_1841" data-name="Group 1841" transform="translate(5.714 4.048)">
      <g id="Group_1840" data-name="Group 1840">
        <path id="Path_1813" data-name="Path 1813" d="M239.065,168.962a.2.2,0,0,0-.2.2v4.191a.2.2,0,1,0,.4,0V169.16A.2.2,0,0,0,239.065,168.962Z" transform="translate(-238.867 -168.962)" fill="#fffff"/>
      </g>
    </g>
    <g id="Group_1843" data-name="Group 1843" transform="translate(3.583 5.508)">
      <g id="Group_1842" data-name="Group 1842">
        <path id="Path_1814" data-name="Path 1814" d="M151.2,230.267a.833.833,0,1,0,.244.589A.834.834,0,0,0,151.2,230.267Zm-.281.9a.437.437,0,1,1,.128-.309A.437.437,0,0,1,150.917,231.165Z" transform="translate(-149.775 -230.024)" fill="#fffff"/>
      </g>
    </g>
    <g id="Group_1845" data-name="Group 1845" transform="translate(6.576 5.508)">
      <g id="Group_1844" data-name="Group 1844">
        <path id="Path_1815" data-name="Path 1815" d="M276.326,230.267a.833.833,0,1,0,0,1.179A.834.834,0,0,0,276.326,230.267Zm-.281.9a.436.436,0,1,1,0-.617A.437.437,0,0,1,276.046,231.165Z" transform="translate(-274.904 -230.024)" fill="#fffff"/>
      </g>
    </g>
  </g>
</svg>
