<svg id="delete" xmlns="http://www.w3.org/2000/svg" width="11.432" height="13.997" viewBox="0 0 11.432 13.997">
  <path id="Path_383" data-name="Path 383" d="M11.4,3.128,11.087,2.2a.862.862,0,0,0-.819-.59h-2.6V.766A.767.767,0,0,0,6.9,0H4.526A.767.767,0,0,0,3.76.766v.846h-2.6a.862.862,0,0,0-.819.59l-.309.926a.694.694,0,0,0,.658.913h.323l.711,8.792A1.272,1.272,0,0,0,2.987,14h5.6a1.272,1.272,0,0,0,1.26-1.164l.711-8.792h.179a.693.693,0,0,0,.658-.913ZM4.58.82H6.851v.792H4.58ZM9.031,12.767a.447.447,0,0,1-.443.41h-5.6a.447.447,0,0,1-.443-.41L1.839,4.041h7.9ZM.869,3.221l.253-.76a.043.043,0,0,1,.041-.029h9.105a.043.043,0,0,1,.041.029l.253.76Zm0,0" transform="translate(0 0)" fill="#ff0011"/>
  <path id="Path_384" data-name="Path 384" d="M268.685,173.788h.022a.41.41,0,0,0,.409-.389l.385-7.392a.41.41,0,0,0-.819-.043l-.385,7.392A.41.41,0,0,0,268.685,173.788Zm0,0" transform="translate(-260.962 -161.05)" fill="#ff0011"/>
  <path id="Path_385" data-name="Path 385" d="M106.2,173.4a.41.41,0,0,0,.409.388h.023a.41.41,0,0,0,.387-.432l-.4-7.392a.41.41,0,0,0-.819.045Zm0,0" transform="translate(-102.901 -161.053)" fill="#ff0011"/>
  <path id="Path_386" data-name="Path 386" d="M194.664,173.791a.41.41,0,0,0,.41-.41v-7.392a.41.41,0,1,0-.82,0v7.392A.41.41,0,0,0,194.664,173.791Zm0,0" transform="translate(-188.944 -161.053)" fill="#ff0011"/>
</svg>
