<svg xmlns="http://www.w3.org/2000/svg" width="19" height="19" viewBox="0 0 19 19">
  <g id="download-pdf" transform="translate(-6321 993)">
    <rect id="Rectangle_2010" data-name="Rectangle 2010" width="19" height="19" transform="translate(6321 -993)" fill="#b30b12" opacity="0"/>
    <g id="Download_PDF_Icon" data-name="Download PDF Icon" transform="translate(6324 -992.247)">
      <g id="Group_546" data-name="Group 546" transform="translate(0)">
        <g id="Group_545" data-name="Group 545" transform="translate(0)">
          <path id="Path_594" data-name="Path 594" d="M77.016,3.752,73.37.106A.367.367,0,0,0,73.113,0H65.458A1.459,1.459,0,0,0,64,1.458v14.58a1.459,1.459,0,0,0,1.458,1.456H75.665a1.46,1.46,0,0,0,1.458-1.458V4.009a.367.367,0,0,0-.108-.257ZM73.478,1.244l2.4,2.4H74.207a.734.734,0,0,1-.734-.734Zm2.915,14.794a.734.734,0,0,1-.734.734h-10.2a.734.734,0,0,1-.734-.734V1.458a.734.734,0,0,1,.734-.734h7.29V2.917a1.46,1.46,0,0,0,1.458,1.458h2.186Z" transform="translate(-64)" fill="#b30b12"/>
          <path id="Path_595" data-name="Path 595" d="M134.23,175.535a10.575,10.575,0,0,1-.872-.752c-.278-.278-.525-.547-.734-.8a8.162,8.162,0,0,0,.482-1.855c0-1.21-.437-1.458-1.094-1.458-.5,0-1.094.259-1.094,1.493a3.5,3.5,0,0,0,.888,1.972c-.144.442-.314.949-.505,1.523-.092.275-.192.53-.3.766a2.28,2.28,0,0,0-.245.122c-.29.144-.565.275-.82.4-1.163.551-1.933.915-1.933,1.636,0,.522.568.847,1.094.847.678,0,1.7-.905,2.447-2.43a14.5,14.5,0,0,1,2.5-.675,4.181,4.181,0,0,0,1.61.917c.9,0,1.094-.522,1.094-.96,0-.856-.979-.856-1.458-.856a8.641,8.641,0,0,0-1.064.117Zm-5.138,3.15a.576.576,0,0,1-.367-.122c0-.258.771-.624,1.516-.979l.144-.069C129.84,178.317,129.3,178.685,129.092,178.685Zm2.552-6.527c0-.763.237-.763.367-.763.258,0,.367,0,.367.734a5.843,5.843,0,0,1-.29,1.139,2.24,2.24,0,0,1-.445-1.11Zm.279,3.915q.034-.1.066-.192c.136-.406.257-.771.367-1.1q.226.245.489.511c.069.068.237.223.464.415-.451.1-.93.225-1.386.371Zm4.095.19c0,.164,0,.231-.338.234a2.694,2.694,0,0,1-.612-.35c.1-.011.179-.017.221-.017.538,0,.69.056.728.137Z" transform="translate(-125.811 -164.834)" fill="#b30b12"/>
        </g>
      </g>
    </g>
  </g>
</svg>
