<svg xmlns="http://www.w3.org/2000/svg" width="19" height="19" viewBox="0 0 19 19">
  <g id="download-powerpoint-report" transform="translate(-6342 993)">
    <rect id="Rectangle_2011" data-name="Rectangle 2011" width="19" height="19" transform="translate(6342 -993)" fill="#d24626" opacity="0"/>
    <g id="PPT_Download_Icon" data-name="PPT Download Icon" transform="translate(6342 -992.247)">
      <g id="Group_1811" data-name="Group 1811" transform="translate(0 0)">
        <g id="Group_1810" data-name="Group 1810" transform="translate(0)">
          <path id="Path_1759" data-name="Path 1759" d="M31.158,4.733,26.7.1a.336.336,0,0,0-.243-.1H19.82a1.349,1.349,0,0,0-1.347,1.347V6.054H15.779A1.01,1.01,0,0,0,14.77,7.063v5.046a1.01,1.01,0,0,0,1.009,1.009H18.47V16.15a1.347,1.347,0,0,0,1.347,1.345H29.9a1.347,1.347,0,0,0,1.347-1.343V4.967a.336.336,0,0,0-.091-.233ZM26.544.908l3.657,3.8H26.544ZM15.781,12.445a.336.336,0,0,1-.336-.335V7.062a.336.336,0,0,1,.336-.335h9.081a.336.336,0,0,1,.336.335v5.047a.336.336,0,0,1-.336.335Zm14.8,3.7a.674.674,0,0,1-.675.671H19.82a.675.675,0,0,1-.675-.672V13.112h5.718A1.01,1.01,0,0,0,25.871,12.1V7.062a1.01,1.01,0,0,0-1.009-1.009H19.142V1.347A.675.675,0,0,1,19.82.672h6.052V5.044a.336.336,0,0,0,.336.336h4.372Z" transform="translate(-14.77 0)" fill="#d24626"/>
        </g>
      </g>
      <g id="Group_1813" data-name="Group 1813" transform="translate(7.153 8.21)">
        <g id="Group_1812" data-name="Group 1812">
          <path id="Path_1760" data-name="Path 1760" d="M224.153,240.347v.489h.857v2.4h.583v-2.4h.856v-.489Z" transform="translate(-224.153 -240.347)" fill="#d24626"/>
        </g>
      </g>
      <g id="Group_1815" data-name="Group 1815" transform="translate(4.669 8.206)">
        <g id="Group_1814" data-name="Group 1814" transform="translate(0 0)">
          <path id="Path_1761" data-name="Path 1761" d="M153.45,240.674a.758.758,0,0,0-.415-.283,3.391,3.391,0,0,0-.694-.044H151.4v2.889h.583v-1.09h.381a3.337,3.337,0,0,0,.605-.041.847.847,0,0,0,.3-.132.791.791,0,0,0,.245-.285.943.943,0,0,0,.1-.447.9.9,0,0,0-.167-.567Zm-.5.791a.384.384,0,0,1-.182.142,1.51,1.51,0,0,1-.461.045h-.319v-.82h.282a2.81,2.81,0,0,1,.419.02.4.4,0,0,1,.235.132.373.373,0,0,1,.092.264.4.4,0,0,1-.066.225Z" transform="translate(-151.405 -240.344)" fill="#d24626"/>
        </g>
      </g>
      <g id="Group_1817" data-name="Group 1817" transform="translate(1.982 8.206)">
        <g id="Group_1816" data-name="Group 1816" transform="translate(0 0)">
          <path id="Path_1762" data-name="Path 1762" d="M74.638,240.674a.758.758,0,0,0-.415-.283,3.4,3.4,0,0,0-.693-.043H72.6v2.889h.583v-1.09h.38a3.327,3.327,0,0,0,.605-.041.846.846,0,0,0,.3-.132.791.791,0,0,0,.245-.285.943.943,0,0,0,.1-.447A.9.9,0,0,0,74.638,240.674Zm-.5.791a.384.384,0,0,1-.182.142,1.509,1.509,0,0,1-.461.045h-.319v-.82h.282a2.81,2.81,0,0,1,.419.02.4.4,0,0,1,.235.132.373.373,0,0,1,.092.264.4.4,0,0,1-.065.225Z" transform="translate(-72.6 -240.344)" fill="#d24626"/>
        </g>
      </g>
    </g>
  </g>
</svg>
