<svg xmlns="http://www.w3.org/2000/svg" width="19" height="19" viewBox="0 0 19 19">
  <g id="download-excel-report" transform="translate(-6295 993)">
    <rect id="Rectangle_2009" data-name="Rectangle 2009" width="19" height="19" transform="translate(6295 -993)" fill="#207245" opacity="0"/>
    <g id="Download_Excel_File_Icon" data-name="Download Excel File Icon" transform="translate(6296 -992)">
      <path id="Path_1763" data-name="Path 1763" d="M39.049,2.55,36.726.227A.767.767,0,0,0,36.18,0H26.4a.774.774,0,0,0-.772.772V8.42h-.542A1.037,1.037,0,0,0,24.05,9.455v4.736a1.037,1.037,0,0,0,1.035,1.035h8.161a.774.774,0,0,0,.772-.772V10.771A.774.774,0,0,0,33.247,10H25.085a.543.543,0,1,1,0-1.087h.543v.28a.244.244,0,0,0,.487,0V.772a.28.28,0,0,1,.28-.28h9.489V2.877a.51.51,0,0,0,.509.509H38.78V16.033a.28.28,0,0,1-.28.28H26.4a.28.28,0,0,1-.28-.28.244.244,0,0,0-.487,0,.774.774,0,0,0,.772.772h12.1a.774.774,0,0,0,.772-.772V3.1a.767.767,0,0,0-.231-.546ZM25.085,10.49h8.161a.28.28,0,0,1,.28.28v3.684a.28.28,0,0,1-.28.28H25.085a.543.543,0,0,1-.543-.543V10.336A1.029,1.029,0,0,0,25.085,10.49Zm11.3-7.613V.577L38.7,2.892H36.4a.017.017,0,0,1-.017-.015Z" transform="translate(-24.05 0)" fill="#207245"/>
      <path id="Path_1764" data-name="Path 1764" d="M161.807,346.638a2.026,2.026,0,0,0,.267,0h.52a.244.244,0,1,0,0-.487h-.5V344.27a.244.244,0,1,0-.487,0V346.4a.244.244,0,0,0,.2.244Z" transform="translate(-157.09 -332.732)" fill="#207245"/>
      <path id="Path_1765" data-name="Path 1765" d="M214.84,346.643a.853.853,0,0,0,.876-.664.782.782,0,0,0-.609-.86c-.264-.1-.51-.2-.582-.235a.167.167,0,0,1-.061-.158.233.233,0,0,1,.183-.186.731.731,0,0,1,.609.139.246.246,0,0,0,.316-.378,1.218,1.218,0,0,0-1.061-.233.731.731,0,0,0-.529.588.657.657,0,0,0,.292.65l.034.018c.012,0,.3.135.633.257.1.037.323.139.291.312a.379.379,0,0,1-.391.258.76.76,0,0,1-.559-.234.246.246,0,0,0-.365.33A1.26,1.26,0,0,0,214.84,346.643Z" transform="translate(-207.624 -332.732)" fill="#207245"/>
      <path id="Path_1766" data-name="Path 1766" d="M80.1,346.6a.244.244,0,0,0,.343-.06l.6-.853.6.853a.247.247,0,1,0,.4-.284l-.7-1,.6-.847a.246.246,0,1,0-.4-.284l-.495.7-.493-.7a.247.247,0,1,0-.4.284l.6.847-.7,1a.244.244,0,0,0,.058.343Z" transform="translate(-78.164 -332.733)" fill="#207245"/>
      <path id="Path_1767" data-name="Path 1767" d="M183.162,128.766a.51.51,0,0,0-.509-.509h-5.789a.51.51,0,0,0-.509.509v3.42a.51.51,0,0,0,.509.509h5.789a.51.51,0,0,0,.509-.509Zm-4.21,2.122v-.823h1.613v.823Zm1.613.487v.823h-1.613v-.823Zm-3.718-1.316h1.613v.823h-1.613Zm2.1-.487v-.823h1.613v.823Zm2.1.487h1.613v.823h-1.613Zm1.613-1.3v.806h-1.613v-.823h1.6a.017.017,0,0,1,.017.022Zm-5.806-.017h1.6v.823h-1.613v-.806a.017.017,0,0,1,.017-.012Zm-.017,3.438v-.806h1.613v.823h-1.6a.017.017,0,0,1-.017-.012Zm5.806.017h-1.6v-.823h1.613v.806a.017.017,0,0,1-.017.026Z" transform="translate(-171.357 -124.047)" fill="#207245"/>
    </g>
  </g>
</svg>
