<svg xmlns="http://www.w3.org/2000/svg" width="9.896" height="11.785" viewBox="0 0 9.896 11.785">
  <g id="edit-manual-audit-points-icon" transform="translate(-5.996 -1.032)">
    <g id="Group_1842" data-name="Group 1842" transform="translate(5.996 1.032)">
      <g id="Group_1841" data-name="Group 1841" transform="translate(1.976 2.611)">
        <g id="Group_1840" data-name="Group 1840" transform="translate(0 0)">
          <path id="Path_2033" data-name="Path 2033" d="M17.608,15.68c.014.024.026.047.038.07s.028.053.052.1l.085.156c.014.024.026.046.041.073l.061.112a.359.359,0,0,0,.115.119.239.239,0,0,0,.132.038.323.323,0,0,0,.233-.106c.028-.032.056-.064.084-.1l.057-.066c.082-.1.165-.2.249-.3l.29-.344c.073-.087.146-.174.222-.262l.088-.107a.178.178,0,0,0,.018-.234.175.175,0,0,0-.245-.046,1.853,1.853,0,0,0-.164.144c-.085.079-.172.157-.259.235l-.094.086-.193.176-.264.241-.312-.328a.2.2,0,0,0-.143-.048.23.23,0,0,0-.108.047.185.185,0,0,0-.064.14.21.21,0,0,0,.015.075Z" transform="translate(-17.308 -14.754)" fill="#1f85f2"/>
          <path id="Path_2034" data-name="Path 2034" d="M17.608,29.024c.014.024.026.047.038.07s.026.049.039.073l.1.179c.014.024.026.046.04.072l.061.113a.354.354,0,0,0,.115.12.241.241,0,0,0,.132.038.324.324,0,0,0,.233-.106c.028-.032.056-.064.084-.1l.057-.066q.123-.148.249-.3l.291-.343c.073-.087.146-.174.222-.262l.088-.107a.179.179,0,0,0,.018-.234.175.175,0,0,0-.245-.046,1.853,1.853,0,0,0-.164.144c-.085.079-.172.157-.259.235l-.1.09-.189.173-.264.241-.312-.328a.2.2,0,0,0-.143-.048.228.228,0,0,0-.107.047.185.185,0,0,0-.064.14.21.21,0,0,0,.015.075Z" transform="translate(-17.308 -25.559)" fill="#1f85f2"/>
          <path id="Path_2035" data-name="Path 2035" d="M30.07,18.385h2.82a.287.287,0,0,0,0-.574H30.07a.287.287,0,0,0,0,.574Z" transform="translate(-27.233 -17.229)" fill="#1f85f2"/>
          <path id="Path_2036" data-name="Path 2036" d="M32.89,30.767H30.07a.287.287,0,0,0,0,.574h2.82a.287.287,0,0,0,0-.574Z" transform="translate(-27.233 -27.72)" fill="#1f85f2"/>
          <path id="Path_2037" data-name="Path 2037" d="M32.89,43.723H30.07a.287.287,0,0,0,0,.574h2.82a.287.287,0,0,0,0-.574Z" transform="translate(-27.233 -38.211)" fill="#1f85f2"/>
          <path id="Path_2038" data-name="Path 2038" d="M17.444,39.638A1.064,1.064,0,1,0,18.508,40.7,1.066,1.066,0,0,0,17.444,39.638ZM18.11,40.7a.665.665,0,1,1-.665-.666A.666.666,0,0,1,18.11,40.7Z" transform="translate(-16.38 -34.903)" fill="#1f85f2"/>
        </g>
      </g>
      <path id="Path_2039" data-name="Path 2039" d="M14.575,1.032H7.31A1.316,1.316,0,0,0,6,2.346V11.5A1.318,1.318,0,0,0,7.31,12.817h7.266A1.318,1.318,0,0,0,15.892,11.5V2.346A1.316,1.316,0,0,0,14.575,1.032ZM15.217,11.5a.643.643,0,0,1-.641.641H7.31a.642.642,0,0,1-.639-.641V2.346a.64.64,0,0,1,.639-.639h7.266a.642.642,0,0,1,.641.639V11.5Z" transform="translate(-5.996 -1.032)" fill="#1f85f2"/>
    </g>
  </g>
</svg>
