<svg xmlns="http://www.w3.org/2000/svg" width="16" height="16" viewBox="0 0 16 16">
  <g id="Edit_Contact" data-name="Edit Contact" transform="translate(-1.058 -281.125)">
    <path fill="#1f85f2" id="Path_2238" data-name="Path 2238" d="M14.16,288.49a.286.286,0,0,0-.2.083l-1.213,1.212h0l-4.242,4.242a.286.286,0,0,0-.084.2v2.021a.286.286,0,0,0,.285.285h2.021a.286.286,0,0,0,.2-.082l4.243-4.244s0,0,0,0l.007-.007L16.388,291a.286.286,0,0,0,0-.4l-2.021-2.021a.286.286,0,0,0-.206-.083Zm.005.69,1.617,1.617-.809.808-1.617-1.617Zm-1.213,1.213,1.616,1.616-3.957,3.957H9V294.35Z" transform="translate(0.588 0.588)"/>
    <path fill="#1f85f2" id="Path_2239" data-name="Path 2239" d="M6.847,281.125a3.143,3.143,0,1,0,3.143,3.143A3.147,3.147,0,0,0,6.847,281.125Zm0,.572a2.572,2.572,0,1,1-2.571,2.571A2.567,2.567,0,0,1,6.847,281.7Z" transform="translate(0.211 0)"/>
    <path fill="#1f85f2" id="Path_2240" data-name="Path 2240" d="M5.916,287.475a4.853,4.853,0,0,0-4.857,4.856v2.286a.286.286,0,0,0,.285.287H8.155a.286.286,0,0,0,0-.571H1.63v-2a4.269,4.269,0,0,1,4.285-4.285H8.2a4.269,4.269,0,0,1,3.638,2.009.281.281,0,0,0,.386.1.286.286,0,0,0,.1-.391A4.851,4.851,0,0,0,8.2,287.475Z" transform="translate(0 0.507)"/>
  </g>
</svg>
