<svg id="Edit_audit" data-name="Edit audit" xmlns="http://www.w3.org/2000/svg" width="11.569" height="11.57" viewBox="0 0 11.569 11.57">
  <path id="Path_817" data-name="Path 817" d="M11.635,17.472a.243.243,0,0,1-.171-.07.241.241,0,0,1-.066-.217l.341-1.7a.236.236,0,0,1,.066-.123l3.75-3.75a.724.724,0,0,1,1.022,0l.682.682a.724.724,0,0,1,0,1.022l-3.75,3.75a.24.24,0,0,1-.123.066l-1.7.341A.256.256,0,0,1,11.635,17.472Zm.563-1.827-.256,1.278,1.278-.256,3.7-3.7a.241.241,0,0,0,0-.341l-.682-.682a.241.241,0,0,0-.341,0Zm1.141,1.245h0Z" transform="translate(-5.901 -5.902)" fill="#1f85f2"/>
  <path id="Path_818" data-name="Path 818" d="M4.58,11.677H1.205A1.206,1.206,0,0,1,0,10.472V4.205A1.206,1.206,0,0,1,1.205,3h.964a.241.241,0,1,1,0,.482H1.205a.724.724,0,0,0-.723.723v6.267a.724.724,0,0,0,.723.723H4.58a.241.241,0,0,1,0,.482Z" transform="translate(0 -1.554)" fill="#1f85f2"/>
  <path id="Path_819" data-name="Path 819" d="M14.169,7.339a.241.241,0,0,1-.241-.241V4.205a.724.724,0,0,0-.723-.723h-.964a.241.241,0,0,1,0-.482h.964A1.206,1.206,0,0,1,14.41,4.205V7.1A.241.241,0,0,1,14.169,7.339Z" transform="translate(-6.215 -1.554)" fill="#1f85f2"/>
  <path id="Path_820" data-name="Path 820" d="M7.616,2.892H4.723A.724.724,0,0,1,4,2.169V1.205A.241.241,0,0,1,4.241.964h.747a1.206,1.206,0,0,1,2.362,0H8.1a.241.241,0,0,1,.241.241v.964A.724.724,0,0,1,7.616,2.892ZM4.482,1.446v.723a.242.242,0,0,0,.241.241H7.616a.242.242,0,0,0,.241-.241V1.446H7.134a.241.241,0,0,1-.241-.241.723.723,0,0,0-1.446,0,.241.241,0,0,1-.241.241Z" transform="translate(-2.072)" fill="#1f85f2"/>
  <path id="Path_821" data-name="Path 821" d="M8.062,8.482H3.241a.241.241,0,0,1,0-.482H8.062a.241.241,0,0,1,0,.482Z" transform="translate(-1.554 -4.143)" fill="#1f85f2"/>
  <path id="Path_822" data-name="Path 822" d="M8.062,11.482H3.241a.241.241,0,0,1,0-.482H8.062a.241.241,0,0,1,0,.482Z" transform="translate(-1.554 -5.697)" fill="#1f85f2"/>
  <path id="Path_823" data-name="Path 823" d="M8.062,14.482H3.241a.241.241,0,0,1,0-.482H8.062a.241.241,0,1,1,0,.482Z" transform="translate(-1.554 -7.251)" fill="#1f85f2"/>
</svg>
