<svg xmlns="http://www.w3.org/2000/svg" width="18.404" height="14.018" viewBox="0 0 18.404 14.018">
  <g id="Email" transform="translate(4 0)">
    <g id="Group_331" data-name="Group 331" transform="translate(-4 0)">
      <path id="Path_372" data-name="Path 372" d="M16.786,61H1.618A1.62,1.62,0,0,0,0,62.618V73.4a1.62,1.62,0,0,0,1.618,1.617H16.786A1.62,1.62,0,0,0,18.4,73.4V62.618A1.62,1.62,0,0,0,16.786,61Zm-.223,1.078L9.236,69.405l-7.39-7.327ZM1.078,73.178V62.836l5.193,5.149Zm.763.762,5.2-5.2,1.821,1.805a.539.539,0,0,0,.761,0l1.775-1.775,5.168,5.168Zm15.485-.762-5.168-5.168,5.168-5.168Z" transform="translate(0 -61)" fill="#acabab"/>
    </g>
  </g>
</svg>
