<svg xmlns="http://www.w3.org/2000/svg" width="19.99" height="14.056" viewBox="0 0 19.99 14.056">
  <g id="Contacted_Icon" data-name="Contacted Icon" transform="translate(0 -76)">
    <g id="Group_1823" data-name="Group 1823" transform="translate(13.752 77.004)">
      <g id="Group_1822" data-name="Group 1822">
        <path id="Path_1777" data-name="Path 1777" d="M358.274,101.721l-6.063,6.024,6.063,6.024a1.737,1.737,0,0,0,.176-.753V102.474A1.737,1.737,0,0,0,358.274,101.721Z" transform="translate(-352.211 -101.721)" fill="#fabb3d"/>
      </g>
    </g>
    <g id="Group_1825" data-name="Group 1825" transform="translate(1.004 76)">
      <g id="Group_1824" data-name="Group 1824">
        <path id="Path_1778" data-name="Path 1778" d="M42.95,76H26.474a1.736,1.736,0,0,0-.753.176l7.749,7.71a1.758,1.758,0,0,0,2.484,0l7.749-7.71A1.736,1.736,0,0,0,42.95,76Z" transform="translate(-25.721 -76)" fill="#fabb3d"/>
      </g>
    </g>
    <g id="Group_1827" data-name="Group 1827" transform="translate(0 77.004)">
      <g id="Group_1826" data-name="Group 1826">
        <path id="Path_1779" data-name="Path 1779" d="M.176,101.721a1.737,1.737,0,0,0-.176.753v10.542a1.736,1.736,0,0,0,.176.753l6.063-6.024Z" transform="translate(0 -101.721)" fill="#fabb3d"/>
      </g>
    </g>
    <g id="Group_1829" data-name="Group 1829" transform="translate(1.004 83.856)">
      <g id="Group_1828" data-name="Group 1828">
        <path id="Path_1780" data-name="Path 1780" d="M37.64,277.211l-.858.858a2.931,2.931,0,0,1-4.141,0l-.858-.858-6.063,6.024a1.737,1.737,0,0,0,.753.176H42.95a1.737,1.737,0,0,0,.753-.176Z" transform="translate(-25.721 -277.211)" fill="#fabb3d"/>
      </g>
    </g>
  </g>
</svg>
