<svg xmlns="http://www.w3.org/2000/svg" width="13.535" height="13.533" viewBox="0 0 13.535 13.533">
  <path id="Google_Analytics" data-name="Google Analytics" d="M18.5,17.6a1.2,1.2,0,0,1-1.195,1.195H6.165A1.2,1.2,0,0,1,4.97,17.6V6.452A1.2,1.2,0,0,1,6.165,5.257H17.309A1.2,1.2,0,0,1,18.5,6.452Zm0-8.087-1.222-.823a1.438,1.438,0,1,0-2.567.508l-2.643,4.041a1.431,1.431,0,0,0-1.263.3L9.039,12.516a1.408,1.408,0,0,0,.015-.2,1.438,1.438,0,1,0-2.765.556L4.969,14.1v1.3l1.962-1.82A1.432,1.432,0,0,0,8.6,13.365l1.726.993a1.438,1.438,0,1,0,2.549-.6L15.5,9.741a1.431,1.431,0,0,0,1.267-.251L18.5,10.661V9.509Z" transform="translate(-4.969 -5.257)" fill="#070707"/>
</svg>
