<svg xmlns="http://www.w3.org/2000/svg" width="19" height="19" viewBox="0 0 19 19">
  <g id="generate-google-report" transform="translate(-6370 993)">
    <rect id="Rectangle_2012" data-name="Rectangle 2012" width="19" height="19" transform="translate(6370 -993)" fill="#3e7ab8" opacity="0"/>
    <g id="Generate_Google_Report" data-name="Generate Google Report" transform="translate(6372 -992.247)">
      <path id="Path_1798" data-name="Path 1798" d="M14.757,17.494H3.823A1.825,1.825,0,0,1,2,15.675V1.823A1.825,1.825,0,0,1,3.823,0H14.757a1.825,1.825,0,0,1,1.823,1.823V15.675a1.825,1.825,0,0,1-1.823,1.819ZM3.823.729A1.1,1.1,0,0,0,2.729,1.823V15.675a1.1,1.1,0,0,0,1.094,1.094H14.757a1.1,1.1,0,0,0,1.094-1.094V1.823A1.1,1.1,0,0,0,14.757.729Z" transform="translate(-2)" fill="#3e7ab8"/>
      <path id="Path_1799" data-name="Path 1799" d="M17.82,11.729H16.362a.365.365,0,0,1,0-.729H17.82a.365.365,0,0,1,0,.729Z" transform="translate(-5.792 -2.981)" fill="#3e7ab8"/>
      <path id="Path_1800" data-name="Path 1800" d="M17.82,8.729H16.362a.365.365,0,0,1,0-.729H17.82a.365.365,0,0,1,0,.729Z" transform="translate(-5.792 -2.169)" fill="#3e7ab8"/>
      <path id="Path_1801" data-name="Path 1801" d="M17.82,14.729H16.362a.365.365,0,0,1,0-.729H17.82a.365.365,0,0,1,0,.729Z" transform="translate(-5.792 -3.795)" fill="#3e7ab8"/>
      <path id="Path_1802" data-name="Path 1802" d="M17.82,17.729H16.362a.365.365,0,0,1,0-.729H17.82a.365.365,0,0,1,0,.729Z" transform="translate(-5.792 -4.608)" fill="#3e7ab8"/>
      <path id="Path_1803" data-name="Path 1803" d="M14.843,20.729H5.368a.365.365,0,1,1,0-.729h9.475a.365.365,0,1,1,0,.729Z" transform="translate(-2.817 -5.421)" fill="#3e7ab8"/>
      <path id="Path_1804" data-name="Path 1804" d="M8.645,15.289a3.645,3.645,0,1,1,3.645-3.645A3.645,3.645,0,0,1,8.645,15.289Zm0-6.56a2.916,2.916,0,1,0,2.916,2.916A2.916,2.916,0,0,0,8.645,8.729Z" transform="translate(-2.814 -2.169)" fill="#3e7ab8"/>
      <path id="Path_1805" data-name="Path 1805" d="M6.682,14.326a.364.364,0,0,1-.259-.622l2.213-2.212V8.362a.365.365,0,0,1,.729,0v3.275a.367.367,0,0,1-.106.258L6.941,14.219A.366.366,0,0,1,6.682,14.326Z" transform="translate(-3.17 -2.166)" fill="#3e7ab8"/>
    </g>
  </g>
</svg>
