<svg id="Help_Support_Icon" data-name="Help &amp; Support Icon" xmlns="http://www.w3.org/2000/svg" width="11.887" height="11.887" viewBox="0 0 11.887 11.887" fill="#fff">
  <path id="Path_1816" data-name="Path 1816" d="M11.887,8.044a3.851,3.851,0,0,0-2.814-3.7,4.539,4.539,0,1,0-8.444,2.5L.017,9.061l2.215-.613a4.522,4.522,0,0,0,2.11.625A3.843,3.843,0,0,0,10,11.353l1.87.517L11.353,10a3.829,3.829,0,0,0,.534-1.955ZM2.342,7.7l-1.326.367.367-1.326L1.3,6.605A3.841,3.841,0,1,1,2.472,7.779Zm8.529,3.176L9.887,10.6l-.131.086A3.147,3.147,0,0,1,5.062,9.047,4.547,4.547,0,0,0,9.047,5.062a3.147,3.147,0,0,1,1.637,4.694l-.086.131Zm0,0" transform="translate(0 0)" fill="#fffff"/>
  <path id="Path_1817" data-name="Path 1817" d="M180.5,271h.7v.7h-.7Zm0,0" transform="translate(-176.309 -264.708)" fill="#fffff"/>
  <path id="Path_1818" data-name="Path 1818" d="M137.589,91.393a.689.689,0,0,1-.227.514l-.818.749v.85h.7v-.543l.592-.542a1.393,1.393,0,1,0-2.333-1.028h.7a.7.7,0,0,1,1.393,0Zm0,0" transform="translate(-132.354 -87.911)" fill="#fffff"/>
</svg>
