<svg xmlns="http://www.w3.org/2000/svg" width="10.385" height="10.424" viewBox="0 0 10.385 10.424">
  <path id="Union_70" data-name="Union 70" d="M3.179.479.472,3.189a1.6,1.6,0,0,0,0,2.271L4.723,9.718a2.115,2.115,0,0,0,1.336.61l2.934.1a1.369,1.369,0,0,0,1.39-1.412L10.29,6.07a2.076,2.076,0,0,0-.612-1.336L5.429.479A1.54,1.54,0,0,0,4.3,0,1.615,1.615,0,0,0,3.179.479Zm2.9,9.067a1.269,1.269,0,0,1-.818-.382L1,4.905A.843.843,0,0,1,1,3.723L3.712,1.012a.839.839,0,0,1,1.181,0L9.165,5.288a1.3,1.3,0,0,1,.382.84l.075,2.9a.616.616,0,0,1-.171.44.607.607,0,0,1-.441.17ZM5.887,7.369A1.467,1.467,0,1,0,7.353,5.9,1.469,1.469,0,0,0,5.887,7.369Zm.761-.018a.7.7,0,0,1,.706-.706.706.706,0,0,1,0,1.412A.706.706,0,0,1,6.648,7.351Z" transform="translate(10.385 10.424) rotate(180)" fill="#727e8d"/>
</svg>
