<svg id="Interested_Icon" data-name="Interested Icon" xmlns="http://www.w3.org/2000/svg" width="16.067" height="15.425" viewBox="0 0 16.067 15.425">
  <g id="Group_1819" data-name="Group 1819">
    <path id="Path_1773" data-name="Path 1773" d="M147.734,17.7a2.2,2.2,0,0,0,.552-1.5,1.954,1.954,0,0,0-1.927-1.928h-2.782a2.53,2.53,0,0,1,.08-.241,1.682,1.682,0,0,1,.11-.221c.047-.08.08-.141.1-.181q.181-.341.276-.562a4.1,4.1,0,0,0,.191-.6,3.13,3.13,0,0,0,.1-.763c0-.161,0-.291-.005-.392a4.323,4.323,0,0,0-.05-.452,2.536,2.536,0,0,0-.121-.5,2.34,2.34,0,0,0-.241-.452,1.408,1.408,0,0,0-.4-.407,2.2,2.2,0,0,0-.6-.261,3,3,0,0,0-.829-.105.618.618,0,0,0-.452.191,1.744,1.744,0,0,0-.342.5,2.989,2.989,0,0,0-.2.522q-.055.221-.125.613-.091.422-.136.608a3.211,3.211,0,0,1-.176.487,1.538,1.538,0,0,1-.311.482,14.846,14.846,0,0,0-1.014,1.2q-.492.643-1.014,1.215t-.763.593a.659.659,0,0,0-.432.206.606.606,0,0,0-.181.437v6.437a.6.6,0,0,0,.191.447.664.664,0,0,0,.452.2,7.342,7.342,0,0,1,1.587.442q.773.261,1.21.4t1.22.291a7.461,7.461,0,0,0,1.446.156h1.3a2.5,2.5,0,0,0,1.978-.783,2.414,2.414,0,0,0,.492-1.818,1.953,1.953,0,0,0,.542-.944,2.065,2.065,0,0,0,0-1.175,2.084,2.084,0,0,0,.432-1.376A2.393,2.393,0,0,0,147.734,17.7Z" transform="translate(-132.219 -9.136)" fill="#fddd65"/>
    <path id="Path_1774" data-name="Path 1774" d="M3.535,191.864H.643a.618.618,0,0,0-.452.191.618.618,0,0,0-.191.452v6.427a.618.618,0,0,0,.191.452.619.619,0,0,0,.452.191H3.535a.651.651,0,0,0,.643-.643v-6.427a.652.652,0,0,0-.643-.643ZM2.38,198.105a.626.626,0,0,1-.452.186.643.643,0,0,1-.457-1.094.636.636,0,0,1,.909,0,.636.636,0,0,1,0,.909Z" transform="translate(0 -185.437)" fill="#fddd65"/>
  </g>
</svg>
