<svg xmlns="http://www.w3.org/2000/svg" width="13.255" height="15.887" viewBox="0 0 13.255 15.887">
  <g id="Lead_Icon" data-name="Lead Icon" transform="translate(0 0)">
    <path id="Path_1771" data-name="Path 1771" d="M90.858,7.653a3.7,3.7,0,0,0,2.706-1.121,3.7,3.7,0,0,0,1.121-2.706,3.7,3.7,0,0,0-1.121-2.706,3.826,3.826,0,0,0-5.411,0,3.7,3.7,0,0,0-1.121,2.705,3.7,3.7,0,0,0,1.121,2.706A3.7,3.7,0,0,0,90.858,7.653Zm0,0" transform="translate(-84.331 0)" fill="#f01"/>
    <path id="Path_1772" data-name="Path 1772" d="M13.222,251.859a9.45,9.45,0,0,0-.129-1,7.908,7.908,0,0,0-.247-1.009,4.985,4.985,0,0,0-.415-.941,3.552,3.552,0,0,0-.626-.815,2.758,2.758,0,0,0-.9-.565,3.106,3.106,0,0,0-1.147-.208,1.164,1.164,0,0,0-.622.264c-.186.122-.4.262-.648.418a3.711,3.711,0,0,1-.838.369,3.255,3.255,0,0,1-2.051,0A3.7,3.7,0,0,1,4.764,248c-.241-.154-.459-.295-.648-.418a1.163,1.163,0,0,0-.622-.264,3.1,3.1,0,0,0-1.147.208,2.756,2.756,0,0,0-.9.565,3.552,3.552,0,0,0-.625.815,5,5,0,0,0-.415.941,7.926,7.926,0,0,0-.247,1.009,9.417,9.417,0,0,0-.129,1c-.021.3-.032.62-.032.938a2.638,2.638,0,0,0,.783,2,2.82,2.82,0,0,0,2.019.736h7.65a2.82,2.82,0,0,0,2.019-.736,2.637,2.637,0,0,0,.784-2c0-.32-.011-.636-.032-.938Zm0,0" transform="translate(0 -239.642)" fill="#f01"/>
  </g>
</svg>
