<svg id="Lost_Icon" data-name="Lost Icon" xmlns="http://www.w3.org/2000/svg" width="16.067" height="15.425" viewBox="0 0 16.067 15.425">
  <g id="Group_1821" data-name="Group 1821">
    <path id="Path_1775" data-name="Path 1775" d="M906.39,15.231a2.084,2.084,0,0,0-.432-1.376,2.065,2.065,0,0,0,0-1.175,1.953,1.953,0,0,0-.542-.944,2.414,2.414,0,0,0-.492-1.818,2.5,2.5,0,0,0-1.978-.783h-1.3a7.46,7.46,0,0,0-1.446.156q-.783.156-1.22.291t-1.21.4a7.343,7.343,0,0,1-1.587.442.664.664,0,0,0-.452.2.6.6,0,0,0-.191.447V17.5a.606.606,0,0,0,.181.437.659.659,0,0,0,.432.206q.241.02.763.593t1.014,1.215a14.845,14.845,0,0,0,1.014,1.2,1.538,1.538,0,0,1,.311.482,3.218,3.218,0,0,1,.176.487q.045.186.136.608.07.392.125.613a2.985,2.985,0,0,0,.2.522,1.743,1.743,0,0,0,.341.5.618.618,0,0,0,.452.191,3,3,0,0,0,.829-.105,2.2,2.2,0,0,0,.6-.261,1.408,1.408,0,0,0,.4-.407,2.338,2.338,0,0,0,.241-.452,2.531,2.531,0,0,0,.121-.5,4.318,4.318,0,0,0,.05-.452c0-.1.005-.231.005-.392a3.126,3.126,0,0,0-.1-.763,4.1,4.1,0,0,0-.191-.6q-.1-.221-.276-.562-.03-.06-.1-.181a1.678,1.678,0,0,1-.11-.221q-.04-.1-.08-.241h2.782a1.954,1.954,0,0,0,1.927-1.928,2.2,2.2,0,0,0-.552-1.5A2.392,2.392,0,0,0,906.39,15.231Z" transform="translate(-890.725 -9.136)" fill="#a6a6a6"/>
    <path id="Path_1776" data-name="Path 1776" d="M762.493,53.2a.618.618,0,0,0,.191-.452V46.32a.651.651,0,0,0-.643-.643h-2.892a.652.652,0,0,0-.643.643v6.427a.652.652,0,0,0,.643.643h2.892A.617.617,0,0,0,762.493,53.2Zm-1.416-5.593a.643.643,0,0,1-1.1.452.643.643,0,0,1,.909-.909A.612.612,0,0,1,761.077,47.605Z" transform="translate(-758.506 -44.392)" fill="#a6a6a6"/>
  </g>
</svg>
