<svg xmlns="http://www.w3.org/2000/svg" width="12.355" height="16.946" viewBox="0 0 12.355 16.946">
  <g id="Report_Viewed" data-name="Report Viewed" transform="translate(-68)">
    <g id="Group_1279" data-name="Group 1279" transform="translate(68)">
      <g id="Group_1278" data-name="Group 1278">
        <path id="Path_942" data-name="Path 942" d="M80.256,3.238,77.117.1a.338.338,0,0,0-.239-.1h-8.54A.338.338,0,0,0,68,.338V16.608a.338.338,0,0,0,.338.338h11.68a.338.338,0,0,0,.338-.338V3.477A.338.338,0,0,0,80.256,3.238Zm-3.04-2.086L79.2,3.139H77.216ZM79.68,16.271h-11V.675H76.54v2.8a.338.338,0,0,0,.338.338h2.8Z" transform="translate(-68)" fill="#acabab"/>
        <path id="Path_943" data-name="Path 943" d="M128.838,154.675h5.587a.338.338,0,1,0,0-.675h-5.587a.338.338,0,1,0,0,.675Z" transform="translate(-126.458 -148.801)" fill="#acabab"/>
        <path id="Path_944" data-name="Path 944" d="M136.433,220h-7.6a.338.338,0,1,0,0,.675h7.6a.338.338,0,0,0,0-.675Z" transform="translate(-126.458 -212.574)" fill="#acabab"/>
        <path id="Path_945" data-name="Path 945" d="M136.433,286h-7.6a.338.338,0,1,0,0,.675h7.6a.338.338,0,0,0,0-.675Z" transform="translate(-126.458 -276.346)" fill="#acabab"/>
        <path id="Path_946" data-name="Path 946" d="M136.433,352h-7.6a.338.338,0,1,0,0,.675h7.6a.338.338,0,0,0,0-.675Z" transform="translate(-126.458 -340.118)" fill="#acabab"/>
        <path id="Path_947" data-name="Path 947" d="M331.838,154.675h.743a.338.338,0,1,0,0-.675h-.743a.338.338,0,1,0,0,.675Z" transform="translate(-322.605 -148.801)" fill="#acabab"/>
      </g>
    </g>
  </g>
</svg>
