<svg xmlns="http://www.w3.org/2000/svg" width="18.654" height="15.159" viewBox="0 0 18.654 15.159">
  <g id="Won_Icon" data-name="Won Icon" transform="translate(0 -2.897)">
    <path id="Path_1783" data-name="Path 1783" d="M14.952,3.834c.012-.572-.01-.933-.01-.933l-5.587,0H9.3L3.71,2.9s-.021.361-.009.933H0v.61C0,4.584.024,7.87,2.052,9.671A4.584,4.584,0,0,0,5.2,10.8c.188,0,.382-.013.578-.03a5.4,5.4,0,0,0,2.442,1.984v2.681h-2.7v1.679H4.63v.941h9.393v-.941h-.891V15.436h-2.7V12.755a5.4,5.4,0,0,0,2.442-1.984c.2.017.391.029.579.029A4.584,4.584,0,0,0,16.6,9.67c2.028-1.8,2.052-5.087,2.052-5.226v-.61ZM2.866,8.761a5.963,5.963,0,0,1-1.6-3.706H3.771A12.206,12.206,0,0,0,4.7,8.906c.106.232.217.451.33.666A3.365,3.365,0,0,1,2.866,8.761Zm12.922,0a3.361,3.361,0,0,1-2.166.811c.113-.214.224-.434.33-.666a12.188,12.188,0,0,0,.931-3.851H17.39A5.962,5.962,0,0,1,15.788,8.761Z" transform="translate(0 0)" fill="#9c0"/>
  </g>
</svg>
