<svg xmlns="http://www.w3.org/2000/svg" width="13.533" height="13.533" viewBox="0 0 13.533 13.533">
  <path id="wordpress" d="M6.767,0a6.767,6.767,0,1,0,6.767,6.767A6.774,6.774,0,0,0,6.767,0ZM.682,6.766a6.035,6.035,0,0,1,.527-2.475l2.9,7.951A6.087,6.087,0,0,1,.682,6.766Zm6.084,6.085A6.046,6.046,0,0,1,5.048,12.6L6.873,7.3l1.869,5.124a.915.915,0,0,0,.043.085,6.092,6.092,0,0,1-2.019.344ZM7.6,3.916h0c.365-.019.7-.057.7-.057a.252.252,0,0,0-.038-.5s-.985.076-1.621.076c-.6,0-1.6-.076-1.6-.076a.252.252,0,0,0-.038.5s.311.038.638.057l.947,2.6L5.254,10.5,3.039,3.916c.366-.019.7-.057.7-.057a.252.252,0,0,0-.038-.5s-.985.076-1.621.076c-.114,0-.249,0-.393-.008a6.085,6.085,0,0,1,9.192-1.146.752.752,0,0,0-.079-.005,1.053,1.053,0,0,0-1.021,1.08,2.851,2.851,0,0,0,.6,1.427,3.194,3.194,0,0,1,.5,1.678,7.3,7.3,0,0,1-.464,1.967l-.606,2.027Zm4.5-.069a6.085,6.085,0,0,1-2.281,8.177h0l1.858-5.373a5.76,5.76,0,0,0,.464-2.18,4.506,4.506,0,0,0-.041-.624Z" fill="#070707"/>
</svg>
