<svg xmlns="http://www.w3.org/2000/svg" width="1823.151" height="260.007" viewBox="0 0 1823.151 260.007">
  <g id="background-graphics-elements" transform="translate(-31 -117.645)">
    <ellipse id="Ellipse_5" data-name="Ellipse 5" cx="5.032" cy="4.574" rx="5.032" ry="4.574" transform="translate(476 117.645)" fill="#8fd4b8" opacity="0.4"/>
    <rect id="Rectangle_1575" data-name="Rectangle 1575" width="14.165" height="14.84" rx="3" transform="translate(458.338 245.033) rotate(13)" fill="#71c1ff" opacity="0.4"/>
    <rect id="Rectangle_1576" data-name="Rectangle 1576" width="10.792" height="10.792" rx="3" transform="matrix(0.921, -0.391, 0.391, 0.921, 31, 227.034)" fill="#7a89eb" opacity="0.4"/>
    <g id="Ellipse_6" data-name="Ellipse 6" transform="translate(214 355.458)" fill="none" stroke="#71c1ff" stroke-width="2" opacity="0.4">
      <circle cx="6.597" cy="6.597" r="6.597" stroke="none"/>
      <circle cx="6.597" cy="6.597" r="5.597" fill="none"/>
    </g>
    <ellipse id="Ellipse_7" data-name="Ellipse 7" cx="4.66" cy="5.202" rx="4.66" ry="5.202" transform="translate(357 205.952)" fill="#d0ffe5"/>
    <path id="Path_261" data-name="Path 261" d="M3701.6,816.287s-32.646,14.425-13.87,21.383,31.856,1.217,35.307-1.026,12.173-10.119,1.09-11.209-39.667,21.265-2.906,35.489" transform="translate(-3443.429 -567.287)" fill="none" stroke="#5cdc70" stroke-linecap="round" stroke-width="3" opacity="0.4"/>
    <path id="Path_262" data-name="Path 262" d="M2992.872,515.145s-13.47-22.467-17.34-10.5-9.5-17.13-14.625-7.417-9.111,21.483-22.677-.645" transform="translate(-2868.73 -368.416)" fill="none" stroke="#7a89eb" stroke-linecap="round" stroke-width="3" opacity="0.4"/>
    <rect id="Rectangle_1578" data-name="Rectangle 1578" width="10.792" height="10.792" rx="3" transform="matrix(0.921, -0.391, 0.391, 0.921, 275, 121.862)" fill="#71c1ff" opacity="0.4"/>
    <ellipse id="Ellipse_5-2" data-name="Ellipse 5" cx="5.032" cy="4.574" rx="5.032" ry="4.574" transform="translate(1114 276.889)" fill="#8fd4b8" opacity="0.4"/>
    <rect id="Rectangle_1576-2" data-name="Rectangle 1576" width="10.792" height="10.792" rx="3" transform="matrix(0.921, -0.391, 0.391, 0.921, 641, 285.099)" fill="#7a89eb" opacity="0.4"/>
    <g id="Ellipse_6-2" data-name="Ellipse 6" transform="translate(855 364.458)" fill="none" stroke="#71c1ff" stroke-width="0.5" opacity="0.4">
      <circle cx="6.597" cy="6.597" r="6.597" stroke="none"/>
      <circle cx="6.597" cy="6.597" r="6.347" fill="none"/>
    </g>
    <ellipse id="Ellipse_7-2" data-name="Ellipse 7" cx="4.66" cy="5.202" rx="4.66" ry="5.202" transform="translate(997 323.863)" fill="#d0ffe5" opacity="0.4"/>
    <path id="Path_262-2" data-name="Path 262" d="M2992.872,515.145s-13.47-22.467-17.34-10.5-9.5-17.13-14.625-7.417-9.111,21.483-22.677-.645" transform="translate(-1184.393 -176.113)" fill="none" stroke="#7a89eb" stroke-linecap="round" stroke-width="3" opacity="0.4"/>
    <rect id="Rectangle_1578-2" data-name="Rectangle 1578" width="10.792" height="10.792" rx="3" transform="matrix(0.921, -0.391, 0.391, 0.921, 926, 299.331)" fill="#71c1ff" opacity="0.4"/>
    <rect id="Rectangle_1576-3" data-name="Rectangle 1576" width="10.792" height="10.792" rx="3" transform="matrix(0.921, -0.391, 0.391, 0.921, 1399, 253.217)" fill="#7a89eb" opacity="0.4"/>
    <g id="Ellipse_6-3" data-name="Ellipse 6" transform="translate(1616 121.682)" fill="none" stroke="#71c1ff" stroke-width="2" opacity="0.4">
      <circle cx="6.597" cy="6.597" r="6.597" stroke="none"/>
      <circle cx="6.597" cy="6.597" r="5.597" fill="none"/>
    </g>
    <ellipse id="Ellipse_7-3" data-name="Ellipse 7" cx="4.66" cy="5.202" rx="4.66" ry="5.202" transform="translate(1732 153.161)" fill="#d0ffe5"/>
    <path id="Path_262-3" data-name="Path 262" d="M2992.872,515.145s-13.47-22.467-17.34-10.5-9.5-17.13-14.625-7.417-9.111,21.483-22.677-.645" transform="translate(-1701.23 -157.933)" fill="none" stroke="#7a89eb" stroke-linecap="round" stroke-width="3" opacity="0.4"/>
    <rect id="Rectangle_1578-3" data-name="Rectangle 1578" width="10.792" height="10.792" rx="3" transform="matrix(0.921, -0.391, 0.391, 0.921, 1840, 193.066)" fill="#71c1ff" opacity="0.4"/>
    <ellipse id="Ellipse_5-3" data-name="Ellipse 5" cx="5.032" cy="4.574" rx="5.032" ry="4.574" transform="translate(1633 246.927)" fill="#8fd4b8" opacity="0.4"/>
    <rect id="Rectangle_1575-2" data-name="Rectangle 1575" width="14.165" height="14.84" rx="3" transform="translate(1569.338 346.813) rotate(13)" fill="#71c1ff" opacity="0.4"/>
    <path id="Path_261-2" data-name="Path 261" d="M3701.6,816.287s-32.646,14.425-13.87,21.383,31.856,1.217,35.307-1.026,12.173-10.119,1.09-11.209-39.667,21.265-2.906,35.489" transform="translate(-2193.91 -657.923)" fill="none" stroke="#5cdc70" stroke-linecap="round" stroke-width="3" opacity="0.4"/>
  </g>
</svg>
