<svg xmlns="http://www.w3.org/2000/svg" width="28.351" height="25.169" viewBox="0 0 28.351 25.169">
  <g id="right-arrow-icon" transform="translate(-1566.039 -1648.572)">
    <g id="Group_6679" data-name="Group 6679" transform="translate(1566.039 1662.554) rotate(-90)">
      <path id="Path_1023" data-name="Path 1023" d="M1.4,28.351a1.4,1.4,0,0,1-1.4-1.4V1.4a1.4,1.4,0,0,1,2.8,0V26.952A1.4,1.4,0,0,1,1.4,28.351Z" fill="#1b75bb"/>
    </g>
    <g id="Group_6680" data-name="Group 6680" transform="translate(1580.407 1673.742) rotate(-90)">
      <path id="Path_1024" data-name="Path 1024" d="M12.586,13.982a1.4,1.4,0,0,1-.99-.408L.409,2.386A1.4,1.4,0,0,1,2.386.409l10.2,10.2,10.2-10.2A1.4,1.4,0,0,1,24.76,2.386L13.573,13.573A1.393,1.393,0,0,1,12.586,13.982Z" transform="translate(0 0)" fill="#1b75bb"/>
    </g>
  </g>
</svg>
