<svg xmlns="http://www.w3.org/2000/svg" xmlns:xlink="http://www.w3.org/1999/xlink" width="275.36" height="217.054" viewBox="0 0 275.36 217.054">
  <defs>
    <clipPath id="clip-path">
      <rect id="Rectangle_1964" data-name="Rectangle 1964" width="275.36" height="100.403" fill="#1885f2"/>
    </clipPath>
  </defs>
  <g id="background-dotted-graphics" transform="translate(-243 -1289)" opacity="0.6">
    <g id="Group_6687" data-name="Group 6687" transform="translate(243 1289)">
      <g id="Group_6687-2" data-name="Group 6687" clip-path="url(#clip-path)">
        <path id="Path_1025" data-name="Path 1025" d="M0,2.05A2.05,2.05,0,1,0,2.05,0,2.05,2.05,0,0,0,0,2.05" fill="#1885f2"/>
        <path id="Path_1026" data-name="Path 1026" d="M19.96,2.05A2.05,2.05,0,1,0,22.01,0a2.05,2.05,0,0,0-2.05,2.05" transform="translate(2.645)" fill="#1885f2"/>
        <path id="Path_1027" data-name="Path 1027" d="M39.919,2.05A2.05,2.05,0,1,0,41.969,0a2.05,2.05,0,0,0-2.05,2.05" transform="translate(5.291)" fill="#1885f2"/>
        <path id="Path_1028" data-name="Path 1028" d="M59.879,2.05A2.05,2.05,0,1,0,61.929,0a2.05,2.05,0,0,0-2.05,2.05" transform="translate(7.936)" fill="#1885f2"/>
        <path id="Path_1029" data-name="Path 1029" d="M79.838,2.05A2.05,2.05,0,1,0,81.888,0a2.05,2.05,0,0,0-2.05,2.05" transform="translate(10.581)" fill="#1885f2"/>
        <path id="Path_1030" data-name="Path 1030" d="M99.8,2.05A2.05,2.05,0,1,0,101.848,0,2.05,2.05,0,0,0,99.8,2.05" transform="translate(13.227)" fill="#1885f2"/>
        <path id="Path_1031" data-name="Path 1031" d="M119.757,2.05A2.05,2.05,0,1,0,121.807,0a2.049,2.049,0,0,0-2.05,2.05" transform="translate(15.872)" fill="#1885f2"/>
        <path id="Path_1032" data-name="Path 1032" d="M139.717,2.05A2.05,2.05,0,1,0,141.767,0a2.05,2.05,0,0,0-2.05,2.05" transform="translate(18.518)" fill="#1885f2"/>
        <path id="Path_1033" data-name="Path 1033" d="M159.677,2.05A2.05,2.05,0,1,0,161.727,0a2.05,2.05,0,0,0-2.05,2.05" transform="translate(21.163)" fill="#1885f2"/>
        <path id="Path_1034" data-name="Path 1034" d="M179.636,2.05A2.05,2.05,0,1,0,181.686,0a2.05,2.05,0,0,0-2.05,2.05" transform="translate(23.808)" fill="#1885f2"/>
        <path id="Path_1035" data-name="Path 1035" d="M199.6,2.05A2.05,2.05,0,1,0,201.646,0a2.049,2.049,0,0,0-2.05,2.05" transform="translate(26.454)" fill="#1885f2"/>
        <path id="Path_1036" data-name="Path 1036" d="M219.555,2.05A2.05,2.05,0,1,0,221.6,0a2.05,2.05,0,0,0-2.05,2.05" transform="translate(29.099)" fill="#1885f2"/>
        <path id="Path_1037" data-name="Path 1037" d="M239.515,2.05A2.05,2.05,0,1,0,241.565,0a2.05,2.05,0,0,0-2.05,2.05" transform="translate(31.744)" fill="#1885f2"/>
        <path id="Path_1038" data-name="Path 1038" d="M0,19.057a2.05,2.05,0,1,0,2.05-2.05A2.05,2.05,0,0,0,0,19.057" transform="translate(0 2.254)" fill="#1885f2"/>
        <path id="Path_1039" data-name="Path 1039" d="M19.96,19.057a2.05,2.05,0,1,0,2.05-2.05,2.05,2.05,0,0,0-2.05,2.05" transform="translate(2.645 2.254)" fill="#1885f2"/>
        <path id="Path_1040" data-name="Path 1040" d="M39.919,19.057a2.05,2.05,0,1,0,2.05-2.05,2.05,2.05,0,0,0-2.05,2.05" transform="translate(5.291 2.254)" fill="#1885f2"/>
        <path id="Path_1041" data-name="Path 1041" d="M59.879,19.057a2.05,2.05,0,1,0,2.05-2.05,2.05,2.05,0,0,0-2.05,2.05" transform="translate(7.936 2.254)" fill="#1885f2"/>
        <path id="Path_1042" data-name="Path 1042" d="M79.838,19.057a2.05,2.05,0,1,0,2.05-2.05,2.05,2.05,0,0,0-2.05,2.05" transform="translate(10.581 2.254)" fill="#1885f2"/>
        <path id="Path_1043" data-name="Path 1043" d="M99.8,19.057a2.05,2.05,0,1,0,2.05-2.05,2.05,2.05,0,0,0-2.05,2.05" transform="translate(13.227 2.254)" fill="#1885f2"/>
        <path id="Path_1044" data-name="Path 1044" d="M119.757,19.057a2.05,2.05,0,1,0,2.05-2.05,2.049,2.049,0,0,0-2.05,2.05" transform="translate(15.872 2.254)" fill="#1885f2"/>
        <path id="Path_1045" data-name="Path 1045" d="M139.717,19.057a2.05,2.05,0,1,0,2.05-2.05,2.05,2.05,0,0,0-2.05,2.05" transform="translate(18.518 2.254)" fill="#1885f2"/>
        <path id="Path_1046" data-name="Path 1046" d="M159.677,19.057a2.05,2.05,0,1,0,2.05-2.05,2.05,2.05,0,0,0-2.05,2.05" transform="translate(21.163 2.254)" fill="#1885f2"/>
        <path id="Path_1047" data-name="Path 1047" d="M179.636,19.057a2.05,2.05,0,1,0,2.05-2.05,2.05,2.05,0,0,0-2.05,2.05" transform="translate(23.808 2.254)" fill="#1885f2"/>
        <path id="Path_1048" data-name="Path 1048" d="M199.6,19.057a2.05,2.05,0,1,0,2.05-2.05,2.049,2.049,0,0,0-2.05,2.05" transform="translate(26.454 2.254)" fill="#1885f2"/>
        <path id="Path_1049" data-name="Path 1049" d="M219.555,19.057a2.05,2.05,0,1,0,2.05-2.05,2.05,2.05,0,0,0-2.05,2.05" transform="translate(29.099 2.254)" fill="#1885f2"/>
        <path id="Path_1050" data-name="Path 1050" d="M239.515,19.057a2.05,2.05,0,1,0,2.05-2.05,2.05,2.05,0,0,0-2.05,2.05" transform="translate(31.744 2.254)" fill="#1885f2"/>
        <path id="Path_1051" data-name="Path 1051" d="M0,36.063a2.05,2.05,0,1,0,2.05-2.05A2.05,2.05,0,0,0,0,36.063" transform="translate(0 4.508)" fill="#1885f2"/>
        <path id="Path_1052" data-name="Path 1052" d="M19.96,36.063a2.05,2.05,0,1,0,2.05-2.05,2.05,2.05,0,0,0-2.05,2.05" transform="translate(2.645 4.508)" fill="#1885f2"/>
        <path id="Path_1053" data-name="Path 1053" d="M39.919,36.063a2.05,2.05,0,1,0,2.05-2.05,2.05,2.05,0,0,0-2.05,2.05" transform="translate(5.291 4.508)" fill="#1885f2"/>
        <path id="Path_1054" data-name="Path 1054" d="M59.879,36.063a2.05,2.05,0,1,0,2.05-2.05,2.05,2.05,0,0,0-2.05,2.05" transform="translate(7.936 4.508)" fill="#1885f2"/>
        <path id="Path_1055" data-name="Path 1055" d="M79.838,36.063a2.05,2.05,0,1,0,2.05-2.05,2.05,2.05,0,0,0-2.05,2.05" transform="translate(10.581 4.508)" fill="#1885f2"/>
        <path id="Path_1056" data-name="Path 1056" d="M99.8,36.063a2.05,2.05,0,1,0,2.05-2.05,2.05,2.05,0,0,0-2.05,2.05" transform="translate(13.227 4.508)" fill="#1885f2"/>
        <path id="Path_1057" data-name="Path 1057" d="M119.757,36.063a2.05,2.05,0,1,0,2.05-2.05,2.049,2.049,0,0,0-2.05,2.05" transform="translate(15.872 4.508)" fill="#1885f2"/>
        <path id="Path_1058" data-name="Path 1058" d="M139.717,36.063a2.05,2.05,0,1,0,2.05-2.05,2.05,2.05,0,0,0-2.05,2.05" transform="translate(18.518 4.508)" fill="#1885f2"/>
        <path id="Path_1059" data-name="Path 1059" d="M159.677,36.063a2.05,2.05,0,1,0,2.05-2.05,2.05,2.05,0,0,0-2.05,2.05" transform="translate(21.163 4.508)" fill="#1885f2"/>
        <path id="Path_1060" data-name="Path 1060" d="M179.636,36.063a2.05,2.05,0,1,0,2.05-2.05,2.05,2.05,0,0,0-2.05,2.05" transform="translate(23.808 4.508)" fill="#1885f2"/>
        <path id="Path_1061" data-name="Path 1061" d="M199.6,36.063a2.05,2.05,0,1,0,2.05-2.05,2.049,2.049,0,0,0-2.05,2.05" transform="translate(26.454 4.508)" fill="#1885f2"/>
        <path id="Path_1062" data-name="Path 1062" d="M219.555,36.063a2.05,2.05,0,1,0,2.05-2.05,2.05,2.05,0,0,0-2.05,2.05" transform="translate(29.099 4.508)" fill="#1885f2"/>
        <path id="Path_1063" data-name="Path 1063" d="M239.515,36.063a2.05,2.05,0,1,0,2.05-2.05,2.05,2.05,0,0,0-2.05,2.05" transform="translate(31.744 4.508)" fill="#1885f2"/>
        <path id="Path_1064" data-name="Path 1064" d="M0,53.07a2.05,2.05,0,1,0,2.05-2.05A2.05,2.05,0,0,0,0,53.07" transform="translate(0 6.762)" fill="#1885f2"/>
        <path id="Path_1065" data-name="Path 1065" d="M19.96,53.07a2.05,2.05,0,1,0,2.05-2.05,2.05,2.05,0,0,0-2.05,2.05" transform="translate(2.645 6.762)" fill="#1885f2"/>
        <path id="Path_1066" data-name="Path 1066" d="M39.919,53.07a2.05,2.05,0,1,0,2.05-2.05,2.05,2.05,0,0,0-2.05,2.05" transform="translate(5.291 6.762)" fill="#1885f2"/>
        <path id="Path_1067" data-name="Path 1067" d="M59.879,53.07a2.05,2.05,0,1,0,2.05-2.05,2.05,2.05,0,0,0-2.05,2.05" transform="translate(7.936 6.762)" fill="#1885f2"/>
        <path id="Path_1068" data-name="Path 1068" d="M79.838,53.07a2.05,2.05,0,1,0,2.05-2.05,2.05,2.05,0,0,0-2.05,2.05" transform="translate(10.581 6.762)" fill="#1885f2"/>
        <path id="Path_1069" data-name="Path 1069" d="M99.8,53.07a2.05,2.05,0,1,0,2.05-2.05,2.05,2.05,0,0,0-2.05,2.05" transform="translate(13.227 6.762)" fill="#1885f2"/>
        <path id="Path_1070" data-name="Path 1070" d="M119.757,53.07a2.05,2.05,0,1,0,2.05-2.05,2.049,2.049,0,0,0-2.05,2.05" transform="translate(15.872 6.762)" fill="#1885f2"/>
        <path id="Path_1071" data-name="Path 1071" d="M139.717,53.07a2.05,2.05,0,1,0,2.05-2.05,2.05,2.05,0,0,0-2.05,2.05" transform="translate(18.518 6.762)" fill="#1885f2"/>
        <path id="Path_1072" data-name="Path 1072" d="M159.677,53.07a2.05,2.05,0,1,0,2.05-2.05,2.05,2.05,0,0,0-2.05,2.05" transform="translate(21.163 6.762)" fill="#1885f2"/>
        <path id="Path_1073" data-name="Path 1073" d="M179.636,53.07a2.05,2.05,0,1,0,2.05-2.05,2.05,2.05,0,0,0-2.05,2.05" transform="translate(23.808 6.762)" fill="#1885f2"/>
        <path id="Path_1074" data-name="Path 1074" d="M199.6,53.07a2.05,2.05,0,1,0,2.05-2.05,2.049,2.049,0,0,0-2.05,2.05" transform="translate(26.454 6.762)" fill="#1885f2"/>
        <path id="Path_1075" data-name="Path 1075" d="M219.555,53.07a2.05,2.05,0,1,0,2.05-2.05,2.05,2.05,0,0,0-2.05,2.05" transform="translate(29.099 6.762)" fill="#1885f2"/>
        <path id="Path_1076" data-name="Path 1076" d="M239.515,53.07a2.05,2.05,0,1,0,2.05-2.05,2.05,2.05,0,0,0-2.05,2.05" transform="translate(31.744 6.762)" fill="#1885f2"/>
        <path id="Path_1077" data-name="Path 1077" d="M0,70.076a2.05,2.05,0,1,0,2.05-2.05A2.05,2.05,0,0,0,0,70.076" transform="translate(0 9.016)" fill="#1885f2"/>
        <path id="Path_1078" data-name="Path 1078" d="M19.96,70.076a2.05,2.05,0,1,0,2.05-2.05,2.05,2.05,0,0,0-2.05,2.05" transform="translate(2.645 9.016)" fill="#1885f2"/>
        <path id="Path_1079" data-name="Path 1079" d="M39.919,70.076a2.05,2.05,0,1,0,2.05-2.05,2.05,2.05,0,0,0-2.05,2.05" transform="translate(5.291 9.016)" fill="#1885f2"/>
        <path id="Path_1080" data-name="Path 1080" d="M59.879,70.076a2.05,2.05,0,1,0,2.05-2.05,2.05,2.05,0,0,0-2.05,2.05" transform="translate(7.936 9.016)" fill="#1885f2"/>
        <path id="Path_1081" data-name="Path 1081" d="M79.838,70.076a2.05,2.05,0,1,0,2.05-2.05,2.05,2.05,0,0,0-2.05,2.05" transform="translate(10.581 9.016)" fill="#1885f2"/>
        <path id="Path_1082" data-name="Path 1082" d="M99.8,70.076a2.05,2.05,0,1,0,2.05-2.05,2.05,2.05,0,0,0-2.05,2.05" transform="translate(13.227 9.016)" fill="#1885f2"/>
        <path id="Path_1083" data-name="Path 1083" d="M119.757,70.076a2.05,2.05,0,1,0,2.05-2.05,2.049,2.049,0,0,0-2.05,2.05" transform="translate(15.872 9.016)" fill="#1885f2"/>
        <path id="Path_1084" data-name="Path 1084" d="M139.717,70.076a2.05,2.05,0,1,0,2.05-2.05,2.05,2.05,0,0,0-2.05,2.05" transform="translate(18.518 9.016)" fill="#1885f2"/>
        <path id="Path_1085" data-name="Path 1085" d="M159.677,70.076a2.05,2.05,0,1,0,2.05-2.05,2.05,2.05,0,0,0-2.05,2.05" transform="translate(21.163 9.016)" fill="#1885f2"/>
        <path id="Path_1086" data-name="Path 1086" d="M179.636,70.076a2.05,2.05,0,1,0,2.05-2.05,2.05,2.05,0,0,0-2.05,2.05" transform="translate(23.808 9.016)" fill="#1885f2"/>
        <path id="Path_1087" data-name="Path 1087" d="M199.6,70.076a2.05,2.05,0,1,0,2.05-2.05,2.049,2.049,0,0,0-2.05,2.05" transform="translate(26.454 9.016)" fill="#1885f2"/>
        <path id="Path_1088" data-name="Path 1088" d="M219.555,70.076a2.05,2.05,0,1,0,2.05-2.05,2.05,2.05,0,0,0-2.05,2.05" transform="translate(29.099 9.016)" fill="#1885f2"/>
        <path id="Path_1089" data-name="Path 1089" d="M239.515,70.076a2.05,2.05,0,1,0,2.05-2.05,2.05,2.05,0,0,0-2.05,2.05" transform="translate(31.744 9.016)" fill="#1885f2"/>
        <path id="Path_1090" data-name="Path 1090" d="M0,87.083a2.05,2.05,0,1,0,2.05-2.05A2.05,2.05,0,0,0,0,87.083" transform="translate(0 11.27)" fill="#1885f2"/>
        <path id="Path_1091" data-name="Path 1091" d="M19.96,87.083a2.05,2.05,0,1,0,2.05-2.05,2.05,2.05,0,0,0-2.05,2.05" transform="translate(2.645 11.27)" fill="#1885f2"/>
        <path id="Path_1092" data-name="Path 1092" d="M39.919,87.083a2.05,2.05,0,1,0,2.05-2.05,2.05,2.05,0,0,0-2.05,2.05" transform="translate(5.291 11.27)" fill="#1885f2"/>
        <path id="Path_1093" data-name="Path 1093" d="M59.879,87.083a2.05,2.05,0,1,0,2.05-2.05,2.05,2.05,0,0,0-2.05,2.05" transform="translate(7.936 11.27)" fill="#1885f2"/>
        <path id="Path_1094" data-name="Path 1094" d="M79.838,87.083a2.05,2.05,0,1,0,2.05-2.05,2.05,2.05,0,0,0-2.05,2.05" transform="translate(10.581 11.27)" fill="#1885f2"/>
        <path id="Path_1095" data-name="Path 1095" d="M99.8,87.083a2.05,2.05,0,1,0,2.05-2.05,2.05,2.05,0,0,0-2.05,2.05" transform="translate(13.227 11.27)" fill="#1885f2"/>
        <path id="Path_1096" data-name="Path 1096" d="M119.757,87.083a2.05,2.05,0,1,0,2.05-2.05,2.049,2.049,0,0,0-2.05,2.05" transform="translate(15.872 11.27)" fill="#1885f2"/>
        <path id="Path_1097" data-name="Path 1097" d="M139.717,87.083a2.05,2.05,0,1,0,2.05-2.05,2.05,2.05,0,0,0-2.05,2.05" transform="translate(18.518 11.27)" fill="#1885f2"/>
        <path id="Path_1098" data-name="Path 1098" d="M159.677,87.083a2.05,2.05,0,1,0,2.05-2.05,2.05,2.05,0,0,0-2.05,2.05" transform="translate(21.163 11.27)" fill="#1885f2"/>
        <path id="Path_1099" data-name="Path 1099" d="M179.636,87.083a2.05,2.05,0,1,0,2.05-2.05,2.05,2.05,0,0,0-2.05,2.05" transform="translate(23.808 11.27)" fill="#1885f2"/>
        <path id="Path_1100" data-name="Path 1100" d="M199.6,87.083a2.05,2.05,0,1,0,2.05-2.05,2.049,2.049,0,0,0-2.05,2.05" transform="translate(26.454 11.27)" fill="#1885f2"/>
        <path id="Path_1101" data-name="Path 1101" d="M219.555,87.083a2.05,2.05,0,1,0,2.05-2.05,2.05,2.05,0,0,0-2.05,2.05" transform="translate(29.099 11.27)" fill="#1885f2"/>
        <path id="Path_1102" data-name="Path 1102" d="M239.515,87.083a2.05,2.05,0,1,0,2.05-2.05,2.05,2.05,0,0,0-2.05,2.05" transform="translate(31.744 11.27)" fill="#1885f2"/>
      </g>
    </g>
    <g id="Group_6688" data-name="Group 6688" transform="translate(243 1405.651)">
      <g id="Group_6687-3" data-name="Group 6687" clip-path="url(#clip-path)">
        <path id="Path_1025-2" data-name="Path 1025" d="M0,2.05A2.05,2.05,0,1,0,2.05,0,2.05,2.05,0,0,0,0,2.05" fill="#1885f2"/>
        <path id="Path_1026-2" data-name="Path 1026" d="M19.96,2.05A2.05,2.05,0,1,0,22.01,0a2.05,2.05,0,0,0-2.05,2.05" transform="translate(2.645)" fill="#1885f2"/>
        <path id="Path_1027-2" data-name="Path 1027" d="M39.919,2.05A2.05,2.05,0,1,0,41.969,0a2.05,2.05,0,0,0-2.05,2.05" transform="translate(5.291)" fill="#1885f2"/>
        <path id="Path_1028-2" data-name="Path 1028" d="M59.879,2.05A2.05,2.05,0,1,0,61.929,0a2.05,2.05,0,0,0-2.05,2.05" transform="translate(7.936)" fill="#1885f2"/>
        <path id="Path_1029-2" data-name="Path 1029" d="M79.838,2.05A2.05,2.05,0,1,0,81.888,0a2.05,2.05,0,0,0-2.05,2.05" transform="translate(10.581)" fill="#1885f2"/>
        <path id="Path_1030-2" data-name="Path 1030" d="M99.8,2.05A2.05,2.05,0,1,0,101.848,0,2.05,2.05,0,0,0,99.8,2.05" transform="translate(13.227)" fill="#1885f2"/>
        <path id="Path_1031-2" data-name="Path 1031" d="M119.757,2.05A2.05,2.05,0,1,0,121.807,0a2.049,2.049,0,0,0-2.05,2.05" transform="translate(15.872)" fill="#1885f2"/>
        <path id="Path_1032-2" data-name="Path 1032" d="M139.717,2.05A2.05,2.05,0,1,0,141.767,0a2.05,2.05,0,0,0-2.05,2.05" transform="translate(18.518)" fill="#1885f2"/>
        <path id="Path_1033-2" data-name="Path 1033" d="M159.677,2.05A2.05,2.05,0,1,0,161.727,0a2.05,2.05,0,0,0-2.05,2.05" transform="translate(21.163)" fill="#1885f2"/>
        <path id="Path_1034-2" data-name="Path 1034" d="M179.636,2.05A2.05,2.05,0,1,0,181.686,0a2.05,2.05,0,0,0-2.05,2.05" transform="translate(23.808)" fill="#1885f2"/>
        <path id="Path_1035-2" data-name="Path 1035" d="M199.6,2.05A2.05,2.05,0,1,0,201.646,0a2.049,2.049,0,0,0-2.05,2.05" transform="translate(26.454)" fill="#1885f2"/>
        <path id="Path_1036-2" data-name="Path 1036" d="M219.555,2.05A2.05,2.05,0,1,0,221.6,0a2.05,2.05,0,0,0-2.05,2.05" transform="translate(29.099)" fill="#1885f2"/>
        <path id="Path_1037-2" data-name="Path 1037" d="M239.515,2.05A2.05,2.05,0,1,0,241.565,0a2.05,2.05,0,0,0-2.05,2.05" transform="translate(31.744)" fill="#1885f2"/>
        <path id="Path_1038-2" data-name="Path 1038" d="M0,19.057a2.05,2.05,0,1,0,2.05-2.05A2.05,2.05,0,0,0,0,19.057" transform="translate(0 2.254)" fill="#1885f2"/>
        <path id="Path_1039-2" data-name="Path 1039" d="M19.96,19.057a2.05,2.05,0,1,0,2.05-2.05,2.05,2.05,0,0,0-2.05,2.05" transform="translate(2.645 2.254)" fill="#1885f2"/>
        <path id="Path_1040-2" data-name="Path 1040" d="M39.919,19.057a2.05,2.05,0,1,0,2.05-2.05,2.05,2.05,0,0,0-2.05,2.05" transform="translate(5.291 2.254)" fill="#1885f2"/>
        <path id="Path_1041-2" data-name="Path 1041" d="M59.879,19.057a2.05,2.05,0,1,0,2.05-2.05,2.05,2.05,0,0,0-2.05,2.05" transform="translate(7.936 2.254)" fill="#1885f2"/>
        <path id="Path_1042-2" data-name="Path 1042" d="M79.838,19.057a2.05,2.05,0,1,0,2.05-2.05,2.05,2.05,0,0,0-2.05,2.05" transform="translate(10.581 2.254)" fill="#1885f2"/>
        <path id="Path_1043-2" data-name="Path 1043" d="M99.8,19.057a2.05,2.05,0,1,0,2.05-2.05,2.05,2.05,0,0,0-2.05,2.05" transform="translate(13.227 2.254)" fill="#1885f2"/>
        <path id="Path_1044-2" data-name="Path 1044" d="M119.757,19.057a2.05,2.05,0,1,0,2.05-2.05,2.049,2.049,0,0,0-2.05,2.05" transform="translate(15.872 2.254)" fill="#1885f2"/>
        <path id="Path_1045-2" data-name="Path 1045" d="M139.717,19.057a2.05,2.05,0,1,0,2.05-2.05,2.05,2.05,0,0,0-2.05,2.05" transform="translate(18.518 2.254)" fill="#1885f2"/>
        <path id="Path_1046-2" data-name="Path 1046" d="M159.677,19.057a2.05,2.05,0,1,0,2.05-2.05,2.05,2.05,0,0,0-2.05,2.05" transform="translate(21.163 2.254)" fill="#1885f2"/>
        <path id="Path_1047-2" data-name="Path 1047" d="M179.636,19.057a2.05,2.05,0,1,0,2.05-2.05,2.05,2.05,0,0,0-2.05,2.05" transform="translate(23.808 2.254)" fill="#1885f2"/>
        <path id="Path_1048-2" data-name="Path 1048" d="M199.6,19.057a2.05,2.05,0,1,0,2.05-2.05,2.049,2.049,0,0,0-2.05,2.05" transform="translate(26.454 2.254)" fill="#1885f2"/>
        <path id="Path_1049-2" data-name="Path 1049" d="M219.555,19.057a2.05,2.05,0,1,0,2.05-2.05,2.05,2.05,0,0,0-2.05,2.05" transform="translate(29.099 2.254)" fill="#1885f2"/>
        <path id="Path_1050-2" data-name="Path 1050" d="M239.515,19.057a2.05,2.05,0,1,0,2.05-2.05,2.05,2.05,0,0,0-2.05,2.05" transform="translate(31.744 2.254)" fill="#1885f2"/>
        <path id="Path_1051-2" data-name="Path 1051" d="M0,36.063a2.05,2.05,0,1,0,2.05-2.05A2.05,2.05,0,0,0,0,36.063" transform="translate(0 4.508)" fill="#1885f2"/>
        <path id="Path_1052-2" data-name="Path 1052" d="M19.96,36.063a2.05,2.05,0,1,0,2.05-2.05,2.05,2.05,0,0,0-2.05,2.05" transform="translate(2.645 4.508)" fill="#1885f2"/>
        <path id="Path_1053-2" data-name="Path 1053" d="M39.919,36.063a2.05,2.05,0,1,0,2.05-2.05,2.05,2.05,0,0,0-2.05,2.05" transform="translate(5.291 4.508)" fill="#1885f2"/>
        <path id="Path_1054-2" data-name="Path 1054" d="M59.879,36.063a2.05,2.05,0,1,0,2.05-2.05,2.05,2.05,0,0,0-2.05,2.05" transform="translate(7.936 4.508)" fill="#1885f2"/>
        <path id="Path_1055-2" data-name="Path 1055" d="M79.838,36.063a2.05,2.05,0,1,0,2.05-2.05,2.05,2.05,0,0,0-2.05,2.05" transform="translate(10.581 4.508)" fill="#1885f2"/>
        <path id="Path_1056-2" data-name="Path 1056" d="M99.8,36.063a2.05,2.05,0,1,0,2.05-2.05,2.05,2.05,0,0,0-2.05,2.05" transform="translate(13.227 4.508)" fill="#1885f2"/>
        <path id="Path_1057-2" data-name="Path 1057" d="M119.757,36.063a2.05,2.05,0,1,0,2.05-2.05,2.049,2.049,0,0,0-2.05,2.05" transform="translate(15.872 4.508)" fill="#1885f2"/>
        <path id="Path_1058-2" data-name="Path 1058" d="M139.717,36.063a2.05,2.05,0,1,0,2.05-2.05,2.05,2.05,0,0,0-2.05,2.05" transform="translate(18.518 4.508)" fill="#1885f2"/>
        <path id="Path_1059-2" data-name="Path 1059" d="M159.677,36.063a2.05,2.05,0,1,0,2.05-2.05,2.05,2.05,0,0,0-2.05,2.05" transform="translate(21.163 4.508)" fill="#1885f2"/>
        <path id="Path_1060-2" data-name="Path 1060" d="M179.636,36.063a2.05,2.05,0,1,0,2.05-2.05,2.05,2.05,0,0,0-2.05,2.05" transform="translate(23.808 4.508)" fill="#1885f2"/>
        <path id="Path_1061-2" data-name="Path 1061" d="M199.6,36.063a2.05,2.05,0,1,0,2.05-2.05,2.049,2.049,0,0,0-2.05,2.05" transform="translate(26.454 4.508)" fill="#1885f2"/>
        <path id="Path_1062-2" data-name="Path 1062" d="M219.555,36.063a2.05,2.05,0,1,0,2.05-2.05,2.05,2.05,0,0,0-2.05,2.05" transform="translate(29.099 4.508)" fill="#1885f2"/>
        <path id="Path_1063-2" data-name="Path 1063" d="M239.515,36.063a2.05,2.05,0,1,0,2.05-2.05,2.05,2.05,0,0,0-2.05,2.05" transform="translate(31.744 4.508)" fill="#1885f2"/>
        <path id="Path_1064-2" data-name="Path 1064" d="M0,53.07a2.05,2.05,0,1,0,2.05-2.05A2.05,2.05,0,0,0,0,53.07" transform="translate(0 6.762)" fill="#1885f2"/>
        <path id="Path_1065-2" data-name="Path 1065" d="M19.96,53.07a2.05,2.05,0,1,0,2.05-2.05,2.05,2.05,0,0,0-2.05,2.05" transform="translate(2.645 6.762)" fill="#1885f2"/>
        <path id="Path_1066-2" data-name="Path 1066" d="M39.919,53.07a2.05,2.05,0,1,0,2.05-2.05,2.05,2.05,0,0,0-2.05,2.05" transform="translate(5.291 6.762)" fill="#1885f2"/>
        <path id="Path_1067-2" data-name="Path 1067" d="M59.879,53.07a2.05,2.05,0,1,0,2.05-2.05,2.05,2.05,0,0,0-2.05,2.05" transform="translate(7.936 6.762)" fill="#1885f2"/>
        <path id="Path_1068-2" data-name="Path 1068" d="M79.838,53.07a2.05,2.05,0,1,0,2.05-2.05,2.05,2.05,0,0,0-2.05,2.05" transform="translate(10.581 6.762)" fill="#1885f2"/>
        <path id="Path_1069-2" data-name="Path 1069" d="M99.8,53.07a2.05,2.05,0,1,0,2.05-2.05,2.05,2.05,0,0,0-2.05,2.05" transform="translate(13.227 6.762)" fill="#1885f2"/>
        <path id="Path_1070-2" data-name="Path 1070" d="M119.757,53.07a2.05,2.05,0,1,0,2.05-2.05,2.049,2.049,0,0,0-2.05,2.05" transform="translate(15.872 6.762)" fill="#1885f2"/>
        <path id="Path_1071-2" data-name="Path 1071" d="M139.717,53.07a2.05,2.05,0,1,0,2.05-2.05,2.05,2.05,0,0,0-2.05,2.05" transform="translate(18.518 6.762)" fill="#1885f2"/>
        <path id="Path_1072-2" data-name="Path 1072" d="M159.677,53.07a2.05,2.05,0,1,0,2.05-2.05,2.05,2.05,0,0,0-2.05,2.05" transform="translate(21.163 6.762)" fill="#1885f2"/>
        <path id="Path_1073-2" data-name="Path 1073" d="M179.636,53.07a2.05,2.05,0,1,0,2.05-2.05,2.05,2.05,0,0,0-2.05,2.05" transform="translate(23.808 6.762)" fill="#1885f2"/>
        <path id="Path_1074-2" data-name="Path 1074" d="M199.6,53.07a2.05,2.05,0,1,0,2.05-2.05,2.049,2.049,0,0,0-2.05,2.05" transform="translate(26.454 6.762)" fill="#1885f2"/>
        <path id="Path_1075-2" data-name="Path 1075" d="M219.555,53.07a2.05,2.05,0,1,0,2.05-2.05,2.05,2.05,0,0,0-2.05,2.05" transform="translate(29.099 6.762)" fill="#1885f2"/>
        <path id="Path_1076-2" data-name="Path 1076" d="M239.515,53.07a2.05,2.05,0,1,0,2.05-2.05,2.05,2.05,0,0,0-2.05,2.05" transform="translate(31.744 6.762)" fill="#1885f2"/>
        <path id="Path_1077-2" data-name="Path 1077" d="M0,70.076a2.05,2.05,0,1,0,2.05-2.05A2.05,2.05,0,0,0,0,70.076" transform="translate(0 9.016)" fill="#1885f2"/>
        <path id="Path_1078-2" data-name="Path 1078" d="M19.96,70.076a2.05,2.05,0,1,0,2.05-2.05,2.05,2.05,0,0,0-2.05,2.05" transform="translate(2.645 9.016)" fill="#1885f2"/>
        <path id="Path_1079-2" data-name="Path 1079" d="M39.919,70.076a2.05,2.05,0,1,0,2.05-2.05,2.05,2.05,0,0,0-2.05,2.05" transform="translate(5.291 9.016)" fill="#1885f2"/>
        <path id="Path_1080-2" data-name="Path 1080" d="M59.879,70.076a2.05,2.05,0,1,0,2.05-2.05,2.05,2.05,0,0,0-2.05,2.05" transform="translate(7.936 9.016)" fill="#1885f2"/>
        <path id="Path_1081-2" data-name="Path 1081" d="M79.838,70.076a2.05,2.05,0,1,0,2.05-2.05,2.05,2.05,0,0,0-2.05,2.05" transform="translate(10.581 9.016)" fill="#1885f2"/>
        <path id="Path_1082-2" data-name="Path 1082" d="M99.8,70.076a2.05,2.05,0,1,0,2.05-2.05,2.05,2.05,0,0,0-2.05,2.05" transform="translate(13.227 9.016)" fill="#1885f2"/>
        <path id="Path_1083-2" data-name="Path 1083" d="M119.757,70.076a2.05,2.05,0,1,0,2.05-2.05,2.049,2.049,0,0,0-2.05,2.05" transform="translate(15.872 9.016)" fill="#1885f2"/>
        <path id="Path_1084-2" data-name="Path 1084" d="M139.717,70.076a2.05,2.05,0,1,0,2.05-2.05,2.05,2.05,0,0,0-2.05,2.05" transform="translate(18.518 9.016)" fill="#1885f2"/>
        <path id="Path_1085-2" data-name="Path 1085" d="M159.677,70.076a2.05,2.05,0,1,0,2.05-2.05,2.05,2.05,0,0,0-2.05,2.05" transform="translate(21.163 9.016)" fill="#1885f2"/>
        <path id="Path_1086-2" data-name="Path 1086" d="M179.636,70.076a2.05,2.05,0,1,0,2.05-2.05,2.05,2.05,0,0,0-2.05,2.05" transform="translate(23.808 9.016)" fill="#1885f2"/>
        <path id="Path_1087-2" data-name="Path 1087" d="M199.6,70.076a2.05,2.05,0,1,0,2.05-2.05,2.049,2.049,0,0,0-2.05,2.05" transform="translate(26.454 9.016)" fill="#1885f2"/>
        <path id="Path_1088-2" data-name="Path 1088" d="M219.555,70.076a2.05,2.05,0,1,0,2.05-2.05,2.05,2.05,0,0,0-2.05,2.05" transform="translate(29.099 9.016)" fill="#1885f2"/>
        <path id="Path_1089-2" data-name="Path 1089" d="M239.515,70.076a2.05,2.05,0,1,0,2.05-2.05,2.05,2.05,0,0,0-2.05,2.05" transform="translate(31.744 9.016)" fill="#1885f2"/>
        <path id="Path_1090-2" data-name="Path 1090" d="M0,87.083a2.05,2.05,0,1,0,2.05-2.05A2.05,2.05,0,0,0,0,87.083" transform="translate(0 11.27)" fill="#1885f2"/>
        <path id="Path_1091-2" data-name="Path 1091" d="M19.96,87.083a2.05,2.05,0,1,0,2.05-2.05,2.05,2.05,0,0,0-2.05,2.05" transform="translate(2.645 11.27)" fill="#1885f2"/>
        <path id="Path_1092-2" data-name="Path 1092" d="M39.919,87.083a2.05,2.05,0,1,0,2.05-2.05,2.05,2.05,0,0,0-2.05,2.05" transform="translate(5.291 11.27)" fill="#1885f2"/>
        <path id="Path_1093-2" data-name="Path 1093" d="M59.879,87.083a2.05,2.05,0,1,0,2.05-2.05,2.05,2.05,0,0,0-2.05,2.05" transform="translate(7.936 11.27)" fill="#1885f2"/>
        <path id="Path_1094-2" data-name="Path 1094" d="M79.838,87.083a2.05,2.05,0,1,0,2.05-2.05,2.05,2.05,0,0,0-2.05,2.05" transform="translate(10.581 11.27)" fill="#1885f2"/>
        <path id="Path_1095-2" data-name="Path 1095" d="M99.8,87.083a2.05,2.05,0,1,0,2.05-2.05,2.05,2.05,0,0,0-2.05,2.05" transform="translate(13.227 11.27)" fill="#1885f2"/>
        <path id="Path_1096-2" data-name="Path 1096" d="M119.757,87.083a2.05,2.05,0,1,0,2.05-2.05,2.049,2.049,0,0,0-2.05,2.05" transform="translate(15.872 11.27)" fill="#1885f2"/>
        <path id="Path_1097-2" data-name="Path 1097" d="M139.717,87.083a2.05,2.05,0,1,0,2.05-2.05,2.05,2.05,0,0,0-2.05,2.05" transform="translate(18.518 11.27)" fill="#1885f2"/>
        <path id="Path_1098-2" data-name="Path 1098" d="M159.677,87.083a2.05,2.05,0,1,0,2.05-2.05,2.05,2.05,0,0,0-2.05,2.05" transform="translate(21.163 11.27)" fill="#1885f2"/>
        <path id="Path_1099-2" data-name="Path 1099" d="M179.636,87.083a2.05,2.05,0,1,0,2.05-2.05,2.05,2.05,0,0,0-2.05,2.05" transform="translate(23.808 11.27)" fill="#1885f2"/>
        <path id="Path_1100-2" data-name="Path 1100" d="M199.6,87.083a2.05,2.05,0,1,0,2.05-2.05,2.049,2.049,0,0,0-2.05,2.05" transform="translate(26.454 11.27)" fill="#1885f2"/>
        <path id="Path_1101-2" data-name="Path 1101" d="M219.555,87.083a2.05,2.05,0,1,0,2.05-2.05,2.05,2.05,0,0,0-2.05,2.05" transform="translate(29.099 11.27)" fill="#1885f2"/>
        <path id="Path_1102-2" data-name="Path 1102" d="M239.515,87.083a2.05,2.05,0,1,0,2.05-2.05,2.05,2.05,0,0,0-2.05,2.05" transform="translate(31.744 11.27)" fill="#1885f2"/>
      </g>
    </g>
  </g>
</svg>
