<?xml version="1.0" encoding="utf-8"?>
<!-- Generator: Adobe Illustrator 16.0.0, SVG Export Plug-In . SVG Version: 6.00 Build 0)  -->
<!DOCTYPE svg PUBLIC "-//W3C//DTD SVG 1.1//EN" "http://www.w3.org/Graphics/SVG/1.1/DTD/svg11.dtd">
<svg version="1.1" id="Layer_1" xmlns="http://www.w3.org/2000/svg" xmlns:xlink="http://www.w3.org/1999/xlink" x="0px" y="0px"
	 width="27px" height="23px" viewBox="0 0 27 23" enable-background="new 0 0 27 23" xml:space="preserve">
<title>BL-Logo-ukr</title>
<g>
	<path fill="#A5C559" d="M13.536,22.933c-0.321,0.037-0.615-0.328-0.91-0.596c-2.981-2.711-5.964-5.408-8.891-8.196
		c-1.344-1.283-2.754-2.519-3.377-4.401c-0.937-2.815,0-6.173,2.38-8.088C4.068,0.585,5.721,0,7.424,0
		c2.368,0.019,4.703,1.241,6.077,3.207c0.373,0.538-0.469,1.27-0.677,1.784c-0.019,0.047-0.125-0.236-0.141-0.199
		c-0.022-0.037-0.049-0.113-0.073-0.155C11.622,2.773,9.594,1.533,7.452,1.51h-0.07C5.245,1.514,3.153,2.754,2.149,4.707
		c-0.986,1.906-0.908,4.33,0.478,6.113c0.821,1.057,1.84,1.944,2.82,2.868c2.343,2.201,4.719,4.371,7.097,6.541l0.422,0.421
		c0,0,0.2,2.182,0.369,2.248c0.063,0.028,0.132,0.039,0.199,0.035H13.536z"/>
	<path fill="#1D2B3B" d="M19.621,0.009c2.506,0.009,4.975,1.368,6.305,3.547c1.395,2.292,1.458,5.4,0.035,7.626
		c-0.721,1.127-1.728,2.032-2.71,2.966c-3.075,2.924-6.22,5.77-9.354,8.608l-0.096,0.085c-0.154,0.113-0.36,0.123-0.527,0.028
		c-0.303-0.175-0.257-0.665-0.286-1.085c-0.28-4.344-0.605-8.692-0.729-13.041c-0.047-1.641-0.011-3.287,0.8-4.811
		c1.244-2.339,3.78-3.905,6.494-3.924H19.621z M19.613,4.668c1.505,0.006,2.724,1.227,2.726,2.727
		c-0.047,1.504-1.307,2.688-2.81,2.641c-1.439-0.047-2.593-1.203-2.64-2.641c0.002-1.5,1.223-2.721,2.726-2.727H19.613z"/>
	<path fill="#A5C559" d="M7.402,3.981c1.234,0.014,2.424,0.735,2.999,1.825c0.492,0.948,0.516,2.075,0.065,3.047
		c-0.639,1.344-2.211,2.183-3.73,1.891C5.344,10.475,4.187,9.254,4,7.848C3.863,6.754,4.255,5.66,5.059,4.896
		C5.698,4.311,6.535,3.981,7.402,3.981z M7.37,5.49C6.511,5.5,5.703,6.141,5.519,6.985c-0.259,1.188,0.84,2.529,2.203,2.288
		c0.771-0.141,1.424-0.807,1.544-1.584C9.429,6.622,8.563,5.509,7.405,5.49H7.37z"/>
	<circle fill="#FFFFFF" cx="19.577" cy="7.386" r="2.7"/>
</g>
</svg>
