<?xml version="1.0" encoding="utf-8"?>
<!-- Generator: Adobe Illustrator 16.0.0, SVG Export Plug-In . SVG Version: 6.00 Build 0)  -->
<!DOCTYPE svg PUBLIC "-//W3C//DTD SVG 1.1//EN" "http://www.w3.org/Graphics/SVG/1.1/DTD/svg11.dtd">
<svg version="1.1" id="Layer_1" xmlns="http://www.w3.org/2000/svg" xmlns:xlink="http://www.w3.org/1999/xlink" x="0px" y="0px"
	 width="180px" height="31px" viewBox="0 1.5 180 31" enable-background="new 0 1.5 180 31" xml:space="preserve">
<title>BL-Logo-ukr</title>
<g>
	<g>
		<path fill="none" d="M0.237,1.168h179.625V31.93H0.237V1.168z"/>
		<path fill="#A5C559" d="M15.045,27.059c-0.351,0.041-0.674-0.356-0.996-0.65c-3.261-2.967-6.524-5.917-9.726-8.967
			c-1.471-1.403-3.013-2.755-3.694-4.813c-1.024-3.08,0-6.753,2.604-8.849c1.455-1.166,3.263-1.806,5.126-1.806
			c2.59,0.021,5.145,1.357,6.647,3.508c0.408,0.588-0.513,1.388-0.74,1.951c-0.021,0.051-0.136-0.258-0.154-0.217
			c-0.023-0.041-0.054-0.123-0.08-0.17c-1.081-2.038-3.3-3.395-5.643-3.42H8.313C5.975,3.629,3.687,4.986,2.588,7.122
			c-1.079,2.085-0.994,4.736,0.523,6.687c0.898,1.156,2.012,2.125,3.085,3.137c2.563,2.409,5.163,4.782,7.763,7.155l0.462,0.46
			c0,0,0.219,2.389,0.402,2.461c0.07,0.031,0.145,0.042,0.219,0.036H15.045z"/>
		<path fill="#1D2B3B" d="M21.704,1.983c2.74,0.01,5.44,1.496,6.896,3.88c1.524,2.508,1.594,5.908,0.036,8.343
			c-0.787,1.233-1.889,2.224-2.961,3.246c-3.367,3.199-6.806,6.31-10.234,9.416l-0.104,0.094c-0.17,0.123-0.394,0.135-0.577,0.031
			c-0.331-0.191-0.282-0.728-0.313-1.187c-0.307-4.753-0.663-9.51-0.797-14.267c-0.052-1.795-0.013-3.596,0.875-5.263
			c1.36-2.559,4.136-4.271,7.105-4.292H21.704z M21.694,7.081c1.646,0.006,2.979,1.342,2.982,2.983
			c-0.054,1.646-1.43,2.941-3.075,2.889c-1.574-0.051-2.835-1.316-2.887-2.889c0.002-1.641,1.336-2.977,2.982-2.983H21.694z"/>
		<path fill="#A5C559" d="M8.335,6.328c1.35,0.016,2.652,0.805,3.28,1.997c0.539,1.037,0.564,2.27,0.072,3.333
			c-0.699,1.47-2.419,2.388-4.082,2.068c-1.521-0.294-2.788-1.63-2.992-3.168c-0.15-1.197,0.278-2.394,1.158-3.23
			C6.47,6.689,7.386,6.328,8.335,6.328z M8.299,7.979C7.36,7.989,6.476,8.691,6.274,9.614c-0.283,1.3,0.919,2.766,2.41,2.502
			c0.844-0.154,1.558-0.882,1.69-1.733C10.552,9.217,9.604,8,8.338,7.979H8.299z"/>
		<g>
			<path fill="#A5C559" d="M38.702,22.11h3.619c0.939,0,1.69-0.269,2.258-0.805c0.562-0.536,0.846-1.228,0.846-2.069
				c0-0.861-0.284-1.547-0.846-2.068c-0.567-0.516-1.318-0.774-2.258-0.774h-3.619V22.11z M38.702,13.551h3.188
				c0.862,0,1.566-0.248,2.113-0.749c0.544-0.5,0.818-1.15,0.818-1.955c0-0.8-0.274-1.455-0.818-1.95
				c-0.547-0.495-1.251-0.743-2.113-0.743h-3.188V13.551z M35.113,5.255h7.497c0.862,0,1.651,0.123,2.371,0.381
				c0.717,0.258,1.336,0.625,1.852,1.094c0.513,0.464,0.924,1.032,1.205,1.666c0.289,0.64,0.431,1.347,0.431,2.111
				c0,1.011-0.252,1.909-0.761,2.682c-0.496,0.764-1.21,1.362-2.054,1.714c1.091,0.34,1.95,0.938,2.572,1.775
				c0.621,0.845,0.933,1.81,0.933,2.905c0,0.805-0.149,1.537-0.446,2.197c-0.296,0.661-0.711,1.229-1.248,1.708
				c-0.565,0.49-1.218,0.873-1.925,1.12c-0.784,0.272-1.612,0.413-2.443,0.402h-7.985V5.255z M52.52,10.652h3.679v1.435
				c1.073-1.187,2.25-1.78,3.532-1.78c0.211,0,0.413,0.01,0.603,0.026c0.191,0.02,0.396,0.062,0.604,0.118v3.276
				c-0.42-0.124-0.856-0.175-1.292-0.175c-0.614,0-1.22,0.154-1.824,0.475c-0.604,0.315-1.143,0.779-1.623,1.393v9.592H52.52V10.652
				z M63.695,10.652h3.679v14.359h-3.679V10.652z M63.437,6.689c0-0.614,0.196-1.115,0.588-1.507
				c0.392-0.393,0.895-0.588,1.509-0.588c0.611,0,1.115,0.196,1.506,0.588c0.392,0.392,0.591,0.893,0.591,1.507
				c0,0.609-0.199,1.109-0.591,1.491c-0.392,0.387-0.896,0.573-1.506,0.573c-0.614,0-1.118-0.186-1.509-0.573
				C63.633,7.798,63.437,7.298,63.437,6.689L63.437,6.689z M84.264,24.835c0,1.001-0.183,1.909-0.547,2.745
				c-0.35,0.815-0.868,1.548-1.522,2.156c-0.649,0.6-1.437,1.068-2.355,1.404c-0.919,0.335-1.925,0.505-3.016,0.505
				c-1.648,0-3.333-0.365-5.057-1.093v-3.221c0.805,0.443,1.61,0.785,2.412,1.037c0.805,0.248,1.571,0.376,2.299,0.376
				c0.593,0,1.146-0.093,1.651-0.278c0.482-0.164,0.922-0.428,1.296-0.774c0.352-0.329,0.631-0.731,0.832-1.205
				c0.202-0.465,0.3-0.981,0.3-1.538v-0.944c-1.127,0.901-2.345,1.347-3.648,1.347c-0.957,0-1.831-0.186-2.628-0.558
				c-0.785-0.367-1.485-0.897-2.054-1.549c-0.575-0.66-1.019-1.454-1.336-2.373c-0.315-0.918-0.472-1.935-0.472-3.038
				c0-1.115,0.157-2.126,0.472-3.05c0.317-0.918,0.761-1.708,1.336-2.368c0.568-0.655,1.269-1.186,2.054-1.548
				c0.795-0.376,1.672-0.562,2.628-0.562c1.286,0,2.501,0.438,3.648,1.32v-0.975h3.707V24.835L84.264,24.835z M74.179,17.834
				c0,1.3,0.328,2.347,0.978,3.151c0.652,0.806,1.504,1.208,2.557,1.208s2.002-0.428,2.843-1.289v-6.146
				c-0.841-0.867-1.79-1.295-2.843-1.295s-1.904,0.402-2.557,1.208C74.507,15.476,74.179,16.528,74.179,17.834z M88.255,4.357h3.679
				v7.528c1.32-1.053,2.72-1.579,4.189-1.579c0.753,0,1.434,0.124,2.059,0.372c0.619,0.252,1.161,0.603,1.626,1.062
				c0.458,0.47,0.819,1.027,1.057,1.636c0.253,0.635,0.377,1.332,0.377,2.1v9.535h-3.704v-8.875c0-0.769-0.237-1.393-0.707-1.883
				c-0.47-0.485-1.079-0.732-1.821-0.732c-1.095,0-2.116,0.505-3.075,1.527v9.963h-3.679V4.361V4.357z M109.776,10.652h4.131v2.956
				h-4.138v6.635c0,0.593,0.191,1.084,0.572,1.466c0.383,0.381,0.893,0.572,1.527,0.572c0.589,0,1.27-0.191,2.038-0.572v3.044
				c-1.036,0.401-2.038,0.599-3.018,0.599c-0.66,0.011-1.321-0.104-1.94-0.341c-0.557-0.217-1.072-0.548-1.506-0.965
				c-0.423-0.418-0.764-0.914-0.991-1.461c-0.241-0.588-0.365-1.217-0.361-1.856v-7.121h-2.466v-2.956h2.466V6.601h3.679v4.051
				H109.776z"/>
			<path fill="#1D2B3B" d="M117.612,5.255h3.735v16.681h7.931v3.075h-11.666V5.255z M130.342,17.828c0-1.109,0.181-2.12,0.546-3.044
				c0.34-0.887,0.867-1.693,1.532-2.368c0.672-0.666,1.472-1.192,2.344-1.548c0.902-0.376,1.894-0.562,2.986-0.562
				c1.094,0,2.085,0.186,2.988,0.562c0.872,0.351,1.666,0.877,2.326,1.548c0.661,0.681,1.182,1.486,1.521,2.368
				c0.367,0.924,0.548,1.935,0.548,3.05c0,1.088-0.181,2.1-0.548,3.028c-0.334,0.887-0.856,1.697-1.521,2.383
				c-0.66,0.666-1.454,1.198-2.326,1.549c-0.903,0.372-1.895,0.558-2.988,0.558c-1.093,0-2.084-0.186-2.986-0.558
				c-0.879-0.356-1.672-0.888-2.344-1.549c-0.676-0.68-1.196-1.496-1.537-2.383c-0.36-0.929-0.541-1.94-0.541-3.028V17.828z
				 M134.103,17.828c0,0.672,0.089,1.279,0.273,1.826c0.181,0.548,0.429,1.012,0.743,1.395c0.32,0.382,0.702,0.68,1.15,0.901
				c0.448,0.223,0.944,0.331,1.48,0.331c0.537,0,1.021-0.108,1.465-0.331c0.435-0.222,0.826-0.525,1.137-0.901
				c0.314-0.383,0.567-0.847,0.742-1.395c0.186-0.547,0.279-1.154,0.279-1.82c0-0.656-0.094-1.259-0.279-1.816
				c-0.175-0.552-0.428-1.022-0.742-1.403c-0.32-0.382-0.697-0.687-1.137-0.909c-0.453-0.222-0.959-0.334-1.465-0.33
				c-0.536,0-1.032,0.114-1.476,0.33c-0.453,0.222-0.835,0.526-1.155,0.909c-0.314,0.381-0.563,0.851-0.743,1.403
				c-0.185,0.588-0.279,1.197-0.273,1.816V17.828z M147.203,17.828c0-1.109,0.18-2.12,0.546-3.044
				c0.342-0.882,0.856-1.687,1.518-2.368c0.665-0.671,1.454-1.197,2.333-1.548c0.896-0.376,1.893-0.562,2.981-0.562
				c1.44,0,2.885,0.335,4.339,1.005v3.303c-1.265-0.826-2.492-1.239-3.678-1.239c-0.589-0.004-1.177,0.104-1.725,0.33
				c-0.505,0.217-0.959,0.522-1.346,0.909c-0.398,0.402-0.697,0.877-0.893,1.403c-0.217,0.583-0.319,1.197-0.315,1.816
				c0,0.65,0.108,1.248,0.315,1.79c0.212,0.547,0.506,1.017,0.893,1.408c0.381,0.393,0.83,0.696,1.346,0.918
				c0.548,0.228,1.136,0.337,1.725,0.331c1.186,0,2.413-0.413,3.678-1.232v3.301c-1.454,0.672-2.898,1.002-4.339,1.002
				c-1.089,0-2.085-0.186-2.981-0.558c-0.879-0.351-1.668-0.883-2.333-1.549c-0.661-0.686-1.181-1.496-1.518-2.383
				c-0.366-0.929-0.546-1.94-0.546-3.028V17.828z M169.409,23.861c-1.289,0.994-2.662,1.49-4.138,1.49
				c-0.629,0.011-1.248-0.094-1.837-0.311c-0.536-0.195-1.021-0.495-1.439-0.876c-0.407-0.383-0.727-0.842-0.949-1.352
				c-0.233-0.548-0.351-1.142-0.346-1.734c0-0.753,0.17-1.435,0.506-2.059c0.346-0.63,0.831-1.177,1.424-1.589
				c0.608-0.444,1.337-0.784,2.177-1.037c0.848-0.253,1.786-0.376,2.817-0.376c0.288,0,0.579,0.01,0.862,0.021
				c0.289,0.01,0.594,0.021,0.923,0.041v-0.66c0-0.671-0.253-1.217-0.753-1.641c-0.496-0.417-1.146-0.629-1.949-0.629
				c-0.749,0-1.523,0.114-2.329,0.346c-0.805,0.232-1.613,0.573-2.44,1.031v-3.043c0.836-0.387,1.713-0.687,2.612-0.893
				c0.866-0.186,1.723-0.283,2.589-0.283c0.877,0,1.673,0.128,2.385,0.387c0.67,0.237,1.284,0.609,1.806,1.094
				c0.505,0.47,0.897,1.042,1.165,1.677c0.279,0.676,0.424,1.398,0.413,2.126v9.421h-3.498V23.861z M164.321,20.558
				c0,0.573,0.202,1.043,0.604,1.409c0.397,0.36,0.918,0.547,1.553,0.547c0.521-0.011,1.037-0.135,1.507-0.377
				c0.506-0.248,0.979-0.593,1.424-1.037v-2.813c-0.537-0.057-1.072-0.082-1.609-0.082c-1.037,0-1.878,0.217-2.518,0.66
				C164.643,19.304,164.321,19.872,164.321,20.558z M176.097,4.357h3.679v20.654h-3.679V4.357z"/>
		</g>
	</g>
	<circle fill="#FFFFFF" cx="21.653" cy="10.053" r="2.953"/>
</g>
</svg>
