<svg xmlns="http://www.w3.org/2000/svg" width="16.881" height="14.771" viewBox="0 0 16.881 14.771">
  <g id="checkmark" transform="translate(0 -0.008)">
    <path id="Path_161" data-name="Path 161" d="M12.836,14.778H1.934A1.936,1.936,0,0,1,0,12.844V1.942A1.936,1.936,0,0,1,1.934.008h8.792a.528.528,0,1,1,0,1.055H1.934a.88.88,0,0,0-.879.879v10.9a.88.88,0,0,0,.879.879h10.9a.88.88,0,0,0,.879-.879V6.866a.528.528,0,1,1,1.055,0v5.978A1.936,1.936,0,0,1,12.836,14.778Zm0,0" fill="#0bc85f"/>
    <path id="Path_162" data-name="Path 162" d="M153.032,8.8a.523.523,0,0,1-.373-.155l-3.165-3.165a.528.528,0,1,1,.746-.746l2.792,2.792L160.4.167a.528.528,0,0,1,.746.746l-7.737,7.737a.528.528,0,0,1-.373.154Zm0,0" transform="translate(-144.416 -0.005)" fill="#0bc85f"/>
  </g>
</svg>
