<svg id="Layer_1" data-name="Layer 1" xmlns="http://www.w3.org/2000/svg" xmlns:xlink="http://www.w3.org/1999/xlink" viewBox="0 0 2221.6 2037.52"><defs><style>.cls-1{fill-rule:evenodd;fill:url(#linear-gradient);}</style><linearGradient id="linear-gradient" x1="1993.25" y1="-18.61" x2="-66.82" y2="2075.23" gradientUnits="userSpaceOnUse"><stop offset="0" stop-color="#2f8dcc"/><stop offset="1" stop-color="#90c040"/></linearGradient></defs><path class="cls-1" d="M784.6.61,0,2027V.5Zm741.53,920.81L1951,2016.36l4.13,10.62q.51-589.32,1-1178.68c41.44-119,105.45-221.4,265.5-315.94C1985.7,577.36,1679.29,772.57,1526.13,921.42Zm424.34-409L1954.4,0,1223.33.61,1199.06,62.7l251,652.15C1574.77,639,1759.65,566.26,1950.47,512.4ZM1197,1189.26c-363.35,307.31-714.51,727-800.81,848.26H1555.84l-337.24-862ZM1112.3,907.51,989.37,599.93l-221.9,558.64C891.21,1063.26,941.36,1026,1112.3,907.51Z"/></svg>