<?xml version="1.0" encoding="utf-8"?>
<!-- Generator: Adobe Illustrator 16.0.0, SVG Export Plug-In . SVG Version: 6.00 Build 0)  -->
<!DOCTYPE svg PUBLIC "-//W3C//DTD SVG 1.1//EN" "http://www.w3.org/Graphics/SVG/1.1/DTD/svg11.dtd">
<svg version="1.1" id="Layer_1" xmlns="http://www.w3.org/2000/svg" xmlns:xlink="http://www.w3.org/1999/xlink" x="0px" y="0px"
	 width="14.281px" height="18.992px" viewBox="0 0 14.281 18.992" enable-background="new 0 0 14.281 18.992" xml:space="preserve">
<path fill="#FFFFFF" d="M12.057,1.484H9.256c-0.408-1.16-1.678-1.77-2.838-1.362C5.781,0.346,5.28,0.847,5.056,1.484h-2.83
	C0.998,1.485,0.001,2.48,0,3.709v13.059c0.001,1.229,0.997,2.225,2.226,2.226h9.833c1.227-0.003,2.221-0.999,2.223-2.226V3.709
	c-0.002-1.229-0.997-2.225-2.227-2.226L12.057,1.484z M6.417,2.968V2.226c0-0.41,0.332-0.742,0.742-0.742
	c0.41,0,0.741,0.333,0.741,0.742v0.742h1.484v1.446H4.934V2.968H6.417z M12.797,16.768c0,0.409-0.331,0.74-0.74,0.742H2.226
	c-0.41,0-0.742-0.332-0.742-0.742V3.709c0-0.41,0.333-0.741,0.742-0.742H3.45V5.9h7.419V2.968h1.188
	c0.409,0.001,0.74,0.333,0.741,0.742L12.797,16.768z M9.986,8.533l1.1,1l-4.754,5.22l-3.138-3.036l1.032-1.066l2.039,1.973
	L9.986,8.533z"/>
</svg>
