<?xml version="1.0" encoding="utf-8"?>
<!-- Generator: Adobe Illustrator 16.0.0, SVG Export Plug-In . SVG Version: 6.00 Build 0)  -->
<!DOCTYPE svg PUBLIC "-//W3C//DTD SVG 1.1//EN" "http://www.w3.org/Graphics/SVG/1.1/DTD/svg11.dtd">
<svg version="1.1" id="Layer_1" xmlns="http://www.w3.org/2000/svg" xmlns:xlink="http://www.w3.org/1999/xlink" x="0px" y="0px"
	 width="13.953px" height="21.326px" viewBox="0 0 13.953 21.326" enable-background="new 0 0 13.953 21.326" xml:space="preserve">
<g id="Group" transform="translate(14 1.4)">
	<path id="Compound_Path" fill="#FFFFFF" d="M-0.686,8.246h-2.352c0.943-0.231,1.604-1.082,1.596-2.053
		C-1.462,4.982-2.459,4.017-3.67,4.036c-1.176,0.019-2.127,0.962-2.157,2.137C-5.838,7.15-5.179,8.007-4.232,8.246h-9.129
		c-0.358,0.04-0.631,0.34-0.638,0.7v1.694c0.001,0.178,0.082,0.346,0.219,0.458l4.764,4.065v4.166c0.005,0.203,0.11,0.39,0.279,0.5
		c0.096,0.061,0.206,0.096,0.319,0.101c0.096-0.001,0.191-0.021,0.279-0.06l2.771-1.4c0.207-0.1,0.338-0.309,0.34-0.538v-2.771
		l4.764-4.065c0.137-0.112,0.217-0.28,0.219-0.458V8.94c-0.007-0.36-0.279-0.66-0.639-0.7V8.246z M-4.632,6.233c0-0.552,0.448-1,1-1
		s1,0.448,1,1c0,0.553-0.448,1-1,1C-4.184,7.232-4.631,6.784-4.632,6.233L-4.632,6.233L-4.632,6.233z M-1.243,10.359l-4.764,4.081
		c-0.138,0.104-0.218,0.267-0.22,0.438v2.691l-1.594,0.777v-3.464c-0.001-0.173-0.083-0.335-0.219-0.438l-4.76-4.086V9.44h11.557
		V10.359z"/>
	<path id="Compound_Path-2" fill="#FFFFFF" d="M-13.462,5.372c0,1.057,0.857,1.914,1.914,1.914s1.914-0.857,1.914-1.914
		s-0.857-1.914-1.914-1.914l0,0C-12.605,3.458-13.462,4.315-13.462,5.372z M-10.831,5.372c0,0.396-0.321,0.718-0.718,0.718
		s-0.718-0.322-0.718-0.718s0.322-0.718,0.718-0.718S-10.831,4.975-10.831,5.372z"/>
	<path id="Compound_Path-3" fill="#FFFFFF" d="M-7.767,0.778c-0.906,0-1.641,0.734-1.641,1.641S-8.673,4.06-7.767,4.06
		s1.641-0.735,1.641-1.641l0,0C-6.126,1.513-6.861,0.778-7.767,0.778z M-7.768,3.118c-0.386,0-0.699-0.313-0.699-0.7
		c0-0.386,0.313-0.699,0.699-0.699c0.386,0,0.7,0.313,0.7,0.699C-7.068,2.805-7.381,3.118-7.768,3.118L-7.768,3.118z"/>
	<path id="Compound_Path-4" fill="#FFFFFF" d="M-3.053,0.108c0-0.718-0.582-1.3-1.301-1.3c-0.717,0-1.299,0.582-1.299,1.3
		c0,0.718,0.582,1.3,1.299,1.3C-3.635,1.408-3.053,0.826-3.053,0.108L-3.053,0.108z M-4.855,0.138c0-0.294,0.238-0.533,0.532-0.533
		c0.297,0,0.534,0.239,0.534,0.533c0,0.296-0.237,0.536-0.534,0.536l0,0C-4.617,0.674-4.855,0.434-4.855,0.138z"/>
</g>
</svg>
