<?xml version="1.0" encoding="utf-8"?>
<!-- Generator: Adobe Illustrator 16.0.0, SVG Export Plug-In . SVG Version: 6.00 Build 0)  -->
<!DOCTYPE svg PUBLIC "-//W3C//DTD SVG 1.1//EN" "http://www.w3.org/Graphics/SVG/1.1/DTD/svg11.dtd">
<svg version="1.1" id="Layer_1" xmlns="http://www.w3.org/2000/svg" xmlns:xlink="http://www.w3.org/1999/xlink" x="0px" y="0px"
	 width="22.031px" height="17.279px" viewBox="0 0 22.031 17.279" enable-background="new 0 0 22.031 17.279" xml:space="preserve">
<path fill="#FFFFFF" d="M0.7,4.082c-0.387,0-0.7,0.313-0.7,0.7v5.462c0,0.387,0.313,0.699,0.7,0.699c0.386,0,0.7-0.313,0.7-0.699
	V4.782C1.4,4.396,1.086,4.082,0.7,4.082L0.7,4.082z"/>
<path fill="#FFFFFF" d="M15.525,0h-2.907c-0.387,0-0.7,0.313-0.7,0.7l0,0v0.632L2.547,4.111c-0.296,0.089-0.5,0.361-0.5,0.672v5.459
	c0,0.035,0.003,0.07,0.008,0.105v0.021c0.005,0.029,0.012,0.058,0.021,0.087L4.06,16.79c0.115,0.368,0.508,0.574,0.877,0.459
	l2.889-0.9c0.369-0.115,0.574-0.508,0.459-0.877L7.302,12.33l4.615,1.369v0.632c0,0.387,0.313,0.7,0.7,0.7l0,0h2.908
	c0.387,0,0.699-0.313,0.699-0.7l0,0V0.7C16.225,0.314,15.912,0,15.525,0L15.525,0z M6.742,15.218l-1.553,0.486l-1.382-4.415
	l1.881,0.558L6.742,15.218z M6.442,10.612H6.436L3.442,9.724v-4.42l8.473-2.512v9.442L6.442,10.612z M14.826,13.627h-1.508V1.4
	h1.512L14.826,13.627z"/>
<path fill="#FFFFFF" d="M20.991,11.431l-3.028-1.514c-0.349-0.167-0.767-0.02-0.934,0.329c-0.162,0.341-0.026,0.748,0.308,0.923
	l3.028,1.514c0.342,0.179,0.766,0.047,0.944-0.296s0.046-0.766-0.296-0.945C21.006,11.439,20.998,11.435,20.991,11.431z"/>
<path fill="#FFFFFF" d="M17.65,5.188c0.109,0,0.216-0.025,0.313-0.073L20.991,3.6c0.343-0.179,0.476-0.602,0.296-0.944
	c-0.174-0.334-0.582-0.47-0.922-0.308l-3.028,1.514c-0.346,0.174-0.485,0.594-0.313,0.939C17.143,5.038,17.386,5.189,17.65,5.188z"
	/>
<path fill="#FFFFFF" d="M21.331,6.814h-2.528c-0.387,0-0.699,0.313-0.699,0.7s0.313,0.7,0.699,0.7l0,0h2.528
	c0.387,0,0.7-0.313,0.7-0.7S21.718,6.814,21.331,6.814z"/>
</svg>
