<svg xmlns="http://www.w3.org/2000/svg" width="853.025" height="497.331" viewBox="0 0 853.025 497.331">
  <g id="testimonial-video-backgrund-graphics" transform="translate(-898.789 -6126.973)">
    <ellipse id="Ellipse_5" data-name="Ellipse 5" cx="5.736" cy="5.214" rx="5.736" ry="5.214" transform="translate(1549.766 6152.89)" fill="#8fd4b8"/>
    <rect id="Rectangle_1575" data-name="Rectangle 1575" width="16.146" height="16.915" rx="3" transform="translate(1723.951 6208.25) rotate(13)" fill="#71c1ff"/>
    <rect id="Rectangle_1576" data-name="Rectangle 1576" width="12.302" height="12.302" rx="3" transform="matrix(0.921, -0.391, 0.391, 0.921, 898.789, 6436.831)" fill="#7a89eb"/>
    <ellipse id="Ellipse_7" data-name="Ellipse 7" cx="47.344" cy="46.879" rx="47.344" ry="46.879" transform="translate(1620.402 6328.439)" fill="#d0ffe5"/>
    <path id="Path_261" data-name="Path 261" d="M3704.355,816.287s-37.211,16.442-15.81,24.373,36.311,1.387,40.245-1.17,13.875-11.534,1.243-12.777-45.214,24.238-3.313,40.452" transform="translate(-2014.165 5755.199)" fill="none" stroke="#5cdc70" stroke-linecap="round" stroke-width="3"/>
    <path id="Path_262" data-name="Path 262" d="M2938.23,515.438s13.667-22.8,17.594-10.651,9.642-17.381,14.839-7.526,9.245,21.8,23.009-.654" transform="translate(-1243.921 5866.643)" fill="none" stroke="#7a89eb" stroke-linecap="round" stroke-width="3"/>
    <rect id="Rectangle_1578" data-name="Rectangle 1578" width="12.302" height="12.302" rx="3" transform="matrix(0.921, -0.391, 0.391, 0.921, 1062.166, 6131.779)" fill="#71c1ff"/>
  </g>
</svg>
