<svg xmlns="http://www.w3.org/2000/svg" width="1219.318" height="705.684" viewBox="0 0 1219.318 705.684">
  <g id="background-memphis-elements" transform="translate(-367.056 -324.846)">
    <rect id="Rectangle_1575" data-name="Rectangle 1575" width="10.709" height="11.323" rx="3" transform="translate(1575.939 639.059) rotate(13)" fill="#71c1ff"/>
    <path id="Path_261" data-name="Path 261" d="M35.748,42.09a1.5,1.5,0,0,1-.541-.1C28.364,39.34,23.459,36.181,20.628,32.6a13.267,13.267,0,0,1-2.62-5.295,11.359,11.359,0,0,1-.236-3.478q-.427-.036-.855-.08a49.792,49.792,0,0,1-12.145-2.9C.693,19.339-1.416,17.223-1.5,14.564c-.059-1.944.972-3.948,3.153-6.126a36.874,36.874,0,0,1,6.429-4.9A81.919,81.919,0,0,1,17.3-1.372a1.5,1.5,0,0,1,1.978.766,1.5,1.5,0,0,1-.766,1.978A80.362,80.362,0,0,0,9.649,6.1,33.849,33.849,0,0,0,3.766,10.57c-1.514,1.513-2.3,2.863-2.265,3.9.051,1.644,2.374,2.846,4.314,3.565a46.794,46.794,0,0,0,11.411,2.725q.588.061,1.174.1a16.792,16.792,0,0,1,2.9-5.117,25.4,25.4,0,0,1,5.352-4.888c4.088-2.809,8.644-4.356,11.89-4.037a10.861,10.861,0,0,1,4.1,1.072,3.927,3.927,0,0,1,2.091,2.525c.4,1.641-.353,3.546-2.238,5.663a22.825,22.825,0,0,1-4.279,3.683A28.788,28.788,0,0,1,26.78,23.6a39.7,39.7,0,0,1-6.008.371,9.268,9.268,0,0,0,2.21,6.767c2.494,3.156,6.971,6,13.307,8.452a1.5,1.5,0,0,1-.542,2.9ZM37.642,9.782a12.2,12.2,0,0,0-3.889.769,23.235,23.235,0,0,0-5.406,2.783,18.926,18.926,0,0,0-6.774,7.64,36.413,36.413,0,0,0,4.791-.345,26.019,26.019,0,0,0,10.218-3.376,19.9,19.9,0,0,0,3.673-3.163c1.322-1.485,1.675-2.5,1.564-2.958s-1.115-1.08-3.575-1.322Q37.956,9.782,37.642,9.782Z" transform="matrix(0.899, 0.438, -0.438, 0.899, 989.239, 972.922)" fill="#5cdc70"/>
    <ellipse id="Ellipse_5" data-name="Ellipse 5" cx="4.886" cy="4.886" rx="4.886" ry="4.886" transform="translate(909.981 324.846)" fill="#8fd4b8"/>
    <rect id="Rectangle_1576" data-name="Rectangle 1576" width="9.814" height="9.814" rx="3" transform="matrix(0.921, -0.391, 0.391, 0.921, 1531.132, 333.566)" fill="#7a89eb"/>
    <rect id="Rectangle_3627" data-name="Rectangle 3627" width="11.985" height="11.985" rx="5.993" transform="matrix(0.921, -0.391, 0.391, 0.921, 377.812, 990.683)" fill="#7a89eb"/>
    <path id="Ellipse_6" data-name="Ellipse 6" d="M50.53,2A48.543,48.543,0,0,0,31.64,95.246,48.543,48.543,0,0,0,69.419,5.813,48.224,48.224,0,0,0,50.53,2m0-2A50.53,50.53,0,1,1,0,50.53,50.53,50.53,0,0,1,50.53,0Z" transform="translate(1462.178 929.47)" fill="#71c1ff"/>
    <ellipse id="Ellipse_7" data-name="Ellipse 7" cx="38.829" cy="38.448" rx="38.829" ry="38.448" transform="translate(367.056 329.731)" fill="#d0ffe5"/>
    <path id="Path_262" data-name="Path 262" d="M2988.047,515.1a1.628,1.628,0,0,1-1.4-.791,65.643,65.643,0,0,0-4.491-6.415,27.636,27.636,0,0,0-3.946-4.137c-1.68-1.359-2.571-1.424-2.875-1.389-.723.083-1.22,1.165-1.509,2.059-.5,1.537-1.379,3.6-3.291,3.788-1.625.157-2.808-1.187-3.558-2.213a38.555,38.555,0,0,1-2.347-3.889,42.449,42.449,0,0,0-2.206-3.693,4.479,4.479,0,0,0-1.332-1.424,2.993,2.993,0,0,0-.674.945c-.345.654-.692,1.333-1.027,1.99a43.659,43.659,0,0,1-3.646,6.292c-1.7,2.25-3.509,3.381-5.517,3.46-1.973.077-3.993-.871-6.169-2.9a45.219,45.219,0,0,1-7.091-9.339,1.629,1.629,0,0,1,2.777-1.7c5.392,8.8,8.55,10.686,10.267,10.686l.089,0c2.364-.092,4.41-4.1,6.389-7.978.34-.666.692-1.355,1.047-2.028.939-1.781,2.115-2.692,3.493-2.706h.033c2.632,0,4.469,3.312,6.414,6.818.646,1.165,1.256,2.265,1.84,3.134a7.477,7.477,0,0,0,.854,1.094,6.99,6.99,0,0,0,.555-1.337,7.589,7.589,0,0,1,1.615-2.945,4.2,4.2,0,0,1,2.624-1.348,4.345,4.345,0,0,1,.492-.028c2.572,0,5.607,2.224,9.258,6.777a67.915,67.915,0,0,1,4.725,6.753,1.629,1.629,0,0,1-1.4,2.466Z" transform="translate(-2569.674 172.056)" fill="#7a89eb"/>
  </g>
</svg>
