<svg xmlns="http://www.w3.org/2000/svg" width="43.792" height="73.344" viewBox="0 0 43.792 73.344">
  <path id="_8x-leads" data-name="8x-leads" d="M-1967.11,74.344h-3.461a1.113,1.113,0,0,1-.79-.327,1.127,1.127,0,0,1-.327-.789V66.681l-13.625-17a1.127,1.127,0,0,1-.239-.825,1.109,1.109,0,0,1,.419-.751,1.119,1.119,0,0,1,.7-.246,1.181,1.181,0,0,1,.126.007,1.121,1.121,0,0,1,.753.419L-1969.7,65.6a1.12,1.12,0,0,1,.246.689v5.819h2.343a2.361,2.361,0,0,0,1.658-.687,2.331,2.331,0,0,0,.686-1.657V66.294a1.117,1.117,0,0,1,.213-.65l16.054-22.438h-35.925a4.591,4.591,0,0,1-3.964-2.289,4.588,4.588,0,0,1,0-4.576,4.593,4.593,0,0,1,3.965-2.289h34.629a1.118,1.118,0,0,1,1.117,1.117,1.118,1.118,0,0,1-1.117,1.117h-34.629a2.346,2.346,0,0,0-2.344,2.343,2.346,2.346,0,0,0,2.344,2.344h38.1a1.112,1.112,0,0,1,.994.614l.022,0a1.121,1.121,0,0,1-.111,1.106l-17.117,23.961v3.117A4.565,4.565,0,0,1-1963.879,73,4.563,4.563,0,0,1-1967.11,74.344Zm0-43.425a4.438,4.438,0,0,1-3.157-1.308,4.436,4.436,0,0,1-1.307-3.155,4.437,4.437,0,0,1,1.307-3.156,4.438,4.438,0,0,1,3.157-1.308,4.453,4.453,0,0,1,3.151,1.312,4.449,4.449,0,0,1,1.312,3.152,4.436,4.436,0,0,1-1.307,3.155A4.434,4.434,0,0,1-1967.111,30.919Zm0-6.693a2.233,2.233,0,0,0-2.23,2.23,2.221,2.221,0,0,0,1.376,2.059,2.228,2.228,0,0,0,.857.171,2.212,2.212,0,0,0,1.574-.653,2.224,2.224,0,0,0,.482-2.43A2.223,2.223,0,0,0-1967.111,24.225Zm10.4-3.7a6.149,6.149,0,0,1-4.378-1.814,6.149,6.149,0,0,1-1.814-4.379,6.153,6.153,0,0,1,1.814-4.379,6.149,6.149,0,0,1,4.378-1.814,6.155,6.155,0,0,1,4.379,1.814,6.157,6.157,0,0,1,1.814,4.38,6.149,6.149,0,0,1-1.814,4.379A6.153,6.153,0,0,1-1956.716,20.523Zm0-10.153a3.933,3.933,0,0,0-2.8,1.159,3.934,3.934,0,0,0-1.159,2.8,3.932,3.932,0,0,0,1.159,2.8,3.93,3.93,0,0,0,2.8,1.16,3.934,3.934,0,0,0,2.8-1.159,3.936,3.936,0,0,0,1.159-2.8,3.94,3.94,0,0,0-1.159-2.8A3.934,3.934,0,0,0-1956.716,10.37Zm-20.485,6.51h-.005a7.891,7.891,0,0,1-5.614-2.326,7.893,7.893,0,0,1-2.326-5.62,7.887,7.887,0,0,1,2.333-5.616,7.882,7.882,0,0,1,5.6-2.318h.021a7.891,7.891,0,0,1,5.6,2.326,7.885,7.885,0,0,1,2.325,5.6,7.884,7.884,0,0,1-2.318,5.622A7.89,7.89,0,0,1-1977.2,16.88Zm-.005-13.646a5.727,5.727,0,0,0-4.017,1.66,5.65,5.65,0,0,0-1.673,4.028,5.668,5.668,0,0,0,1.661,4.042,5.668,5.668,0,0,0,4.034,1.682h.011a5.674,5.674,0,0,0,4.029-1.665,5.668,5.668,0,0,0,1.677-4.036,5.666,5.666,0,0,0-1.669-4.038,5.743,5.743,0,0,0-4.035-1.673Z" transform="translate(1989.001 -1)" fill="#308eca"/>
</svg>
