<svg id="Horizontal" xmlns="http://www.w3.org/2000/svg" width="55.715" height="42.678" viewBox="0 0 55.715 42.678">
  <path id="Subtraction_14" data-name="Subtraction 14" d="M.482,4.768a.482.482,0,0,1-.048-.962H17.385a.48.48,0,0,1,.479.48.484.484,0,0,1-.143.342.478.478,0,0,1-.338.138H.528Zm0-3.8A.483.483,0,0,1,.434,0H17.383a.48.48,0,0,1,.338.822.476.476,0,0,1-.338.139H.528Z" transform="translate(33.258 24.204)" fill="#2096df"/>
  <path id="Subtraction_15" data-name="Subtraction 15" d="M.482,4.768A.483.483,0,0,1,.434,3.8H17.385a.48.48,0,1,1,0,.959H.528Zm0-3.8A.483.483,0,0,1,.434,0H17.383a.48.48,0,1,1,0,.961H.528Z" transform="translate(33.258 31.715)" fill="#2096df"/>
  <path id="Subtraction_13" data-name="Subtraction 13" d="M13.654,4.912H.48A.48.48,0,0,1,0,4.432V.478A.482.482,0,0,1,.378,0H13.654a.481.481,0,0,1,.48.48V4.432A.48.48,0,0,1,13.654,4.912ZM.96.961h0V3.953H13.174V.961Z" transform="translate(5.963 14.566)" fill="#2096df"/>
  <path id="Subtraction_12" data-name="Subtraction 12" d="M13.654,4.912H.48A.48.48,0,0,1,0,4.432V.478A.482.482,0,0,1,.378,0H13.654a.481.481,0,0,1,.48.48V4.432A.48.48,0,0,1,13.654,4.912ZM.96.961h0V3.953H13.174V.961Z" transform="translate(23.067 14.566)" fill="#2096df"/>
  <path id="Subtraction_11" data-name="Subtraction 11" d="M9.1,4.912H.48A.48.48,0,0,1,0,4.432V.478A.482.482,0,0,1,.378,0H9.1a.48.48,0,0,1,.479.48V4.432A.48.48,0,0,1,9.1,4.912ZM.96.961h0V3.953H8.621V.961Z" transform="translate(40.17 14.566)" fill="#2096df"/>
  <path id="Subtraction_10" data-name="Subtraction 10" d="M23.519,12.5H.48A.481.481,0,0,1,0,12.02V.478A.482.482,0,0,1,.378,0H23.519a.481.481,0,0,1,.48.48V12.02A.481.481,0,0,1,23.519,12.5ZM.96.961h0V11.54H23.039V.961Z" transform="translate(4.825 24.204)" fill="#2096df"/>
  <path id="Subtraction_9" data-name="Subtraction 9" d="M52.627,42.678H3.087A3.091,3.091,0,0,1,0,39.591V3.087A3.091,3.091,0,0,1,3.087,0h49.54a3.091,3.091,0,0,1,3.087,3.087v36.5A3.091,3.091,0,0,1,52.627,42.678ZM.959,10.086h0v29.5a2.105,2.105,0,0,0,2.128,2.128h49.54a2.105,2.105,0,0,0,2.127-2.128v-29.5ZM3.087.96A2.1,2.1,0,0,0,.96,3.087V9.126H54.755V3.087A2.1,2.1,0,0,0,52.627.96Zm14.34,5.867a1.784,1.784,0,1,1,1.784-1.784A1.786,1.786,0,0,1,17.428,6.827Zm0-2.608a.824.824,0,1,0,.824.824A.815.815,0,0,0,17.427,4.219ZM11.561,6.827a1.784,1.784,0,1,1,1.784-1.784A1.786,1.786,0,0,1,11.561,6.827Zm0-2.608a.824.824,0,1,0,.824.824A.815.815,0,0,0,11.561,4.219ZM5.695,6.827A1.784,1.784,0,1,1,7.478,5.043,1.786,1.786,0,0,1,5.695,6.827Zm0-2.608a.824.824,0,1,0,.824.824A.815.815,0,0,0,5.694,4.219Z" transform="translate(0 0)" fill="#2096df"/>
</svg>
