<svg id="hellobar" xmlns="http://www.w3.org/2000/svg" width="55.715" height="42.678" viewBox="0 0 55.715 42.678">
  <path id="Subtraction_34" data-name="Subtraction 34" d="M52.627,42.678H3.088A3.091,3.091,0,0,1,0,39.591V3.087A3.091,3.091,0,0,1,3.088,0H52.627a3.091,3.091,0,0,1,3.087,3.087v36.5A3.091,3.091,0,0,1,52.627,42.678ZM.959,10.086v29.5a2.1,2.1,0,0,0,2.127,2.127h49.54a2.105,2.105,0,0,0,2.128-2.127v-29.5ZM3.088.96A2.1,2.1,0,0,0,.96,3.087V9.126H54.755V3.087A2.1,2.1,0,0,0,52.627.96ZM36.921,37.466a.483.483,0,0,1-.048-.963H50.029a.479.479,0,0,1,.337.138.486.486,0,0,1,.143.342.481.481,0,0,1-.481.48H36.967Zm-5.153,0H5.694a.481.481,0,0,1-.48-.48V27.717a.481.481,0,0,1,.378-.478H31.768a.48.48,0,0,1,.48.48v9.263A.48.48,0,0,1,31.768,37.463ZM6.174,28.2v8.3H31.288V28.2Zm30.747,4.7a.483.483,0,0,1-.048-.963H50.029a.48.48,0,0,1,0,.96H36.967Zm0-4.563a.483.483,0,0,1-.048-.963H50.028a.48.48,0,1,1,0,.961H36.967ZM17.428,6.827a1.784,1.784,0,1,1,1.784-1.784A1.785,1.785,0,0,1,17.428,6.827Zm0-2.608a.824.824,0,1,0,.824.824A.815.815,0,0,0,17.427,4.219ZM11.561,6.827a1.784,1.784,0,1,1,1.784-1.784A1.786,1.786,0,0,1,11.561,6.827Zm0-2.608a.824.824,0,1,0,.824.824A.815.815,0,0,0,11.561,4.219ZM5.695,6.827A1.784,1.784,0,1,1,7.478,5.043,1.786,1.786,0,0,1,5.695,6.827Zm0-2.608a.824.824,0,1,0,.824.824A.815.815,0,0,0,5.694,4.219Z" transform="translate(0 0)" fill="#2096df"/>
  <path id="Subtraction_33" data-name="Subtraction 33" d="M.482,4.768A.483.483,0,0,1,.434,3.8h21.5a.479.479,0,0,1,.479.48.481.481,0,0,1-.481.48H.528Zm0-3.8A.483.483,0,0,1,.434,0h21.5a.48.48,0,1,1,0,.961H.528Z" transform="translate(5.328 13.128)" fill="#2096df"/>
  <path id="Subtraction_35" data-name="Subtraction 35" d="M1.188.964C.572.964.063.775.005.526S.422.028,1.069,0H54.022a2.3,2.3,0,0,1,.828.138c.227.09.352.212.352.342s-.128.253-.352.342a2.313,2.313,0,0,1-.832.139H1.3Z" transform="translate(0.364 20.995)" fill="#2096df"/>
  <path id="Subtraction_32" data-name="Subtraction 32" d="M15.93,5.671H.48A.48.48,0,0,1,0,5.191V.478A.481.481,0,0,1,.378,0H15.93a.481.481,0,0,1,.48.48v4.71A.48.48,0,0,1,15.93,5.671ZM.96.961v3.75H15.45V.961Z" transform="translate(33.993 12.822)" fill="#2096df"/>
</svg>
