<svg id="welcome-mat" xmlns="http://www.w3.org/2000/svg" width="55.715" height="42.678" viewBox="0 0 55.715 42.678">
  <path id="Subtraction_26" data-name="Subtraction 26" d="M31.107,5.671H.48A.481.481,0,0,1,0,5.191V.478A.482.482,0,0,1,.378,0H31.107a.481.481,0,0,1,.48.48v4.71A.481.481,0,0,1,31.107,5.671ZM.959.961v3.75H30.626V.961Z" transform="translate(12.064 13.581)" fill="#2096df"/>
  <path id="Subtraction_25" data-name="Subtraction 25" d="M31.107,5.671H.48A.481.481,0,0,1,0,5.191V.478A.482.482,0,0,1,.378,0H31.107a.481.481,0,0,1,.48.48v4.71A.481.481,0,0,1,31.107,5.671ZM.959.961v3.75H30.626V.961Z" transform="translate(12.064 22.687)" fill="#2096df"/>
  <path id="Subtraction_24" data-name="Subtraction 24" d="M13.654,6.43H.48A.481.481,0,0,1,0,5.949V.478A.482.482,0,0,1,.378,0H13.654a.481.481,0,0,1,.48.48V5.949A.481.481,0,0,1,13.654,6.43ZM.959.961V5.47H13.174V.961Z" transform="translate(20.791 31.792)" fill="#2096df"/>
  <path id="Subtraction_23" data-name="Subtraction 23" d="M52.627,42.678H3.087A3.091,3.091,0,0,1,0,39.591V3.087A3.091,3.091,0,0,1,3.087,0h49.54a3.091,3.091,0,0,1,3.087,3.087v36.5A3.091,3.091,0,0,1,52.627,42.678ZM.959,10.086v29.5a2.1,2.1,0,0,0,2.127,2.127h49.54a2.1,2.1,0,0,0,2.127-2.127v-29.5ZM3.087.959A2.105,2.105,0,0,0,.96,3.087V9.126H54.755V3.087A2.1,2.1,0,0,0,52.627.959Zm14.34,5.867a1.784,1.784,0,1,1,1.784-1.783A1.785,1.785,0,0,1,17.428,6.826Zm0-2.608a.824.824,0,1,0,.824.824A.815.815,0,0,0,17.427,4.219ZM11.561,6.826a1.784,1.784,0,1,1,1.784-1.783A1.786,1.786,0,0,1,11.561,6.826Zm0-2.608a.824.824,0,1,0,.825.824A.815.815,0,0,0,11.561,4.219ZM5.695,6.826A1.784,1.784,0,1,1,7.478,5.043,1.785,1.785,0,0,1,5.695,6.826Zm0-2.608a.824.824,0,1,0,.823.824A.815.815,0,0,0,5.695,4.219Z" transform="translate(0 0)" fill="#2096df"/>
</svg>
