<svg id="Vertical" xmlns="http://www.w3.org/2000/svg" width="55.714" height="42.677" viewBox="0 0 55.714 42.677">
  <path id="Subtraction_22" data-name="Subtraction 22" d="M.482,4.768a.482.482,0,0,1-.048-.962h16.95a.479.479,0,0,1,.48.48.482.482,0,0,1-.144.342.475.475,0,0,1-.337.138H.528Zm0-3.8A.483.483,0,0,1,.434,0H17.383a.48.48,0,1,1,0,.961H.528Z" transform="translate(33.258 13.581)" fill="#1f96df"/>
  <path id="Subtraction_21" data-name="Subtraction 21" d="M.482,4.768a.482.482,0,0,1-.048-.962h16.95a.479.479,0,0,1,.48.48.482.482,0,0,1-.144.342.475.475,0,0,1-.337.138H.528Zm0-3.8A.483.483,0,0,1,.434,0H17.383a.48.48,0,1,1,0,.961H.528Z" transform="translate(33.258 28.602)" fill="#1f96df"/>
  <path id="Subtraction_20" data-name="Subtraction 20" d="M.482,4.768a.482.482,0,0,1-.048-.962h16.95a.479.479,0,0,1,.48.48.482.482,0,0,1-.144.342.475.475,0,0,1-.337.138H.528Zm0-3.8A.483.483,0,0,1,.434,0H17.383a.48.48,0,1,1,0,.961H.528Z" transform="translate(33.258 21.091)" fill="#1f96df"/>
  <path id="Subtraction_19" data-name="Subtraction 19" d="M23.518,5.671H.48A.481.481,0,0,1,0,5.191V.478A.48.48,0,0,1,.378,0h23.14a.48.48,0,0,1,.48.48v4.71A.481.481,0,0,1,23.518,5.671ZM.96.961h0v3.75H23.039V.961Z" transform="translate(4.825 13.581)" fill="#1f96df"/>
  <path id="Subtraction_18" data-name="Subtraction 18" d="M23.518,5.671H.48A.481.481,0,0,1,0,5.191V.478A.48.48,0,0,1,.378,0h23.14a.48.48,0,0,1,.48.48v4.71A.481.481,0,0,1,23.518,5.671ZM.96.961h0v3.75H23.039V.961Z" transform="translate(4.825 22.686)" fill="#1f96df"/>
  <path id="Subtraction_17" data-name="Subtraction 17" d="M13.654,6.43H.48A.481.481,0,0,1,0,5.95V.478A.48.48,0,0,1,.378,0H13.654a.48.48,0,0,1,.48.48V5.95A.481.481,0,0,1,13.654,6.43ZM.96.961V5.47H13.174V.961Z" transform="translate(4.825 31.792)" fill="#1f96df"/>
  <path id="Subtraction_16" data-name="Subtraction 16" d="M52.627,42.677H3.087A3.091,3.091,0,0,1,0,39.59V3.087A3.091,3.091,0,0,1,3.087,0h49.54a3.091,3.091,0,0,1,3.087,3.087v36.5A3.091,3.091,0,0,1,52.627,42.677ZM.959,10.086v29.5a2.1,2.1,0,0,0,2.127,2.127h49.54a2.1,2.1,0,0,0,2.127-2.127v-29.5ZM3.087.959A2.105,2.105,0,0,0,.959,3.087V9.126h53.8V3.087A2.105,2.105,0,0,0,52.627.959Zm14.34,5.867a1.784,1.784,0,1,1,1.784-1.784A1.786,1.786,0,0,1,17.427,6.826Zm0-2.608a.824.824,0,1,0,.824.824A.815.815,0,0,0,17.427,4.219ZM11.561,6.826a1.784,1.784,0,1,1,1.783-1.784A1.786,1.786,0,0,1,11.561,6.826Zm0-2.608a.824.824,0,1,0,.824.824A.815.815,0,0,0,11.561,4.219ZM5.694,6.826A1.784,1.784,0,1,1,7.478,5.043,1.785,1.785,0,0,1,5.694,6.826Zm0-2.608a.824.824,0,1,0,.823.824A.815.815,0,0,0,5.694,4.219Z" transform="translate(0 0)" fill="#1f96df"/>
</svg>
