<svg xmlns="http://www.w3.org/2000/svg" width="112" height="112" viewBox="0 0 112 112">
  <g id="notifications-on-new-leads" transform="translate(-1365 -5040.133)">
    <path id="Ellipse_10" data-name="Ellipse 10" d="M56,2a53.738,53.738,0,0,0-30.191,9.221A54.163,54.163,0,0,0,6.243,34.981a53.926,53.926,0,0,0,4.978,51.209,54.164,54.164,0,0,0,23.76,19.567,53.926,53.926,0,0,0,51.209-4.978,54.163,54.163,0,0,0,19.567-23.76,53.926,53.926,0,0,0-4.978-51.209A54.163,54.163,0,0,0,77.019,6.243,53.66,53.66,0,0,0,56,2m0-2A56,56,0,1,1,0,56,56,56,0,0,1,56,0Z" transform="translate(1365 5040.133)" fill="#308eca"/>
    <g id="Group_6949" data-name="Group 6949" transform="translate(-93.994 1.438)">
      <path id="Subtraction_38" data-name="Subtraction 38" d="M32.791,11.936H2.147A2.148,2.148,0,0,1,0,9.793V2.143A2.148,2.148,0,0,1,2.147,0H32.791a2.148,2.148,0,0,1,2.148,2.143v7.65A2.148,2.148,0,0,1,32.791,11.936ZM1.741,1.738V10.2H33.2V1.738Z" transform="translate(1497.508 5083.15)" fill="#308eca"/>
      <path id="Subtraction_39" data-name="Subtraction 39" d="M16.178,9.386H2.147A2.148,2.148,0,0,1,0,7.243v-5.1A2.148,2.148,0,0,1,2.147,0H16.178a2.148,2.148,0,0,1,2.148,2.143v5.1A2.148,2.148,0,0,1,16.178,9.386ZM1.741,1.738V7.65H16.585V1.738Z" transform="translate(1497.508 5098.449)" fill="#308eca"/>
      <path id="Subtraction_37" data-name="Subtraction 37" d="M23.484,42.535H4.7A4.7,4.7,0,0,1,0,37.841V4.694A4.7,4.7,0,0,1,4.7,0H40.452a4.7,4.7,0,0,1,4.7,4.694V27.516a15.174,15.174,0,0,0-1.742-.73V9.386H1.741V37.841A2.961,2.961,0,0,0,4.7,40.8h18.71c0,.077,0,.154,0,.229,0,.5.025,1,.075,1.507ZM4.7,1.737a2.962,2.962,0,0,0-2.96,2.957V7.65H43.412V4.694a2.962,2.962,0,0,0-2.961-2.957Z" transform="translate(1492.4 5070.4)" fill="#308eca"/>
      <path id="Path_1478" data-name="Path 1478" d="M300.054,27.525a1.277,1.277,0,1,1-1.277-1.275,1.276,1.276,0,0,1,1.277,1.275" transform="translate(1227.692 5047.569)" fill="#308eca"/>
      <path id="Path_1479" data-name="Path 1479" d="M335.054,27.525a1.277,1.277,0,1,1-1.277-1.275,1.276,1.276,0,0,1,1.277,1.275" transform="translate(1197.799 5047.569)" fill="#308eca"/>
      <path id="Union_22" data-name="Union 22" d="M1.552,22.947A1.531,1.531,0,0,1,.011,21.505c-.117-4.419.583-9.938,5.626-11.983A6.69,6.69,0,0,0,7,10.722a6.72,6.72,0,0,0-2.99,1.73c-1.724,1.769-2.515,4.685-2.415,8.914l18.215,0c.064-4.09-.79-7.068-2.543-8.852a6.971,6.971,0,0,0-2.955-1.737A6.724,6.724,0,0,0,15.7,9.59h0c4.951,2.1,5.778,7.548,5.693,11.917a1.521,1.521,0,0,1-1.535,1.441Zm4-17.8A5.151,5.151,0,1,1,10.7,10.286,5.146,5.146,0,0,1,5.548,5.143Zm1.585,0A3.566,3.566,0,1,0,10.7,1.582,3.568,3.568,0,0,0,7.132,5.143Z" transform="translate(1518.19 5098.043)" fill="#308eca"/>
    </g>
  </g>
</svg>
