<svg xmlns="http://www.w3.org/2000/svg" width="74.356" height="74.344" viewBox="0 0 74.356 74.344">
  <path id="widget" d="M-1918.828,75.345h-65.989A4.182,4.182,0,0,1-1989,71.174V5.185A4.189,4.189,0,0,1-1984.816,1h66.056a4.215,4.215,0,0,1,4.115,4.183V71.161A4.188,4.188,0,0,1-1918.828,75.345Zm-68.094-53.423V71.174a2.107,2.107,0,0,0,2.105,2.1h65.989a2.107,2.107,0,0,0,2.1-2.1l0-49.253Zm2.092-18.842a2.108,2.108,0,0,0-2.106,2.105v14.67h70.2V5.186a2.107,2.107,0,0,0-2.1-2.105Zm56.575,64.407h-18.855a1.036,1.036,0,0,1-.744-.31.992.992,0,0,1-.289-.716v-.008a1.034,1.034,0,0,1,1.032-1.033h18.855a1.034,1.034,0,0,1,1.032,1.033A1.034,1.034,0,0,1-1928.255,67.488Zm-25.145,0h-28.28a1.035,1.035,0,0,1-1.033-1.033V50.74a1.035,1.035,0,0,1,1.033-1.033h28.28a1.035,1.035,0,0,1,1.033,1.033V66.454A1.035,1.035,0,0,1-1953.4,67.488Zm-27.248-15.7V65.421h26.215V51.784Zm58.68,7.847h-25.142a1.036,1.036,0,0,1-.744-.31.992.992,0,0,1-.289-.716V58.6a1.034,1.034,0,0,1,1.032-1.032h25.142a1.034,1.034,0,0,1,1.034,1.032A1.035,1.035,0,0,1-1921.967,59.63Zm-6.287-14.136h-18.855a1.039,1.039,0,0,1-.744-.309,1,1,0,0,1-.289-.717v-.008a1.034,1.034,0,0,1,1.032-1.032h18.855a1.034,1.034,0,0,1,1.032,1.032A1.034,1.034,0,0,1-1928.255,45.495Zm-25.145,0h-28.28a1.035,1.035,0,0,1-1.033-1.033V28.747a1.035,1.035,0,0,1,1.033-1.033h28.28a1.035,1.035,0,0,1,1.033,1.033V44.461A1.035,1.035,0,0,1-1953.4,45.495Zm-27.248-15.715V43.416h26.215V29.779Zm58.68,7.857h-25.142a1.036,1.036,0,0,1-.744-.309.992.992,0,0,1-.289-.716V36.6a1.034,1.034,0,0,1,1.032-1.033h25.142a1.035,1.035,0,0,1,1.034,1.033A1.034,1.034,0,0,1-1921.967,37.636Zm-3.149-21.98a4.189,4.189,0,0,1-4.184-4.184,4.188,4.188,0,0,1,4.184-4.183,4.146,4.146,0,0,1,2.951,1.222,4.191,4.191,0,0,1,1.232,2.961A4.188,4.188,0,0,1-1925.117,15.657Zm0-6.3a2.108,2.108,0,0,0-2.105,2.105,2.107,2.107,0,0,0,2.105,2.1,2.107,2.107,0,0,0,2.1-2.1A2.108,2.108,0,0,0-1925.117,9.356Zm-12.566,6.3a4.188,4.188,0,0,1-4.183-4.184,4.188,4.188,0,0,1,4.183-4.183,4.2,4.2,0,0,1,4.184,4.183A4.188,4.188,0,0,1-1937.682,15.657Zm0-6.3a2.107,2.107,0,0,0-2.1,2.105,2.107,2.107,0,0,0,2.1,2.1,2.107,2.107,0,0,0,2.105-2.1A2.108,2.108,0,0,0-1937.682,9.356Zm-9.427,3.138h-34.57a1.034,1.034,0,0,1-1.033-1.032,1.035,1.035,0,0,1,1.033-1.033h34.57a1.035,1.035,0,0,1,1.033,1.033A1.034,1.034,0,0,1-1947.11,12.494Z" transform="translate(1989 -1.001)" fill="#308eca"/>
</svg>
