<svg xmlns="http://www.w3.org/2000/svg" width="112" height="112" viewBox="0 0 112 112">
  <path id="html-code" d="M-1990,56a56,56,0,0,1,56-56,56,56,0,0,1,56,56,56,56,0,0,1-56,56A56,56,0,0,1-1990,56Zm34.981-49.757a54.039,54.039,0,0,0-9.172,4.979,54.4,54.4,0,0,0-7.993,6.6,54.444,54.444,0,0,0-6.6,7.993,54.047,54.047,0,0,0-4.979,9.172A53.662,53.662,0,0,0-1988,56a53.659,53.659,0,0,0,4.243,21.019,54.013,54.013,0,0,0,4.979,9.172,54.4,54.4,0,0,0,6.6,7.994,54.391,54.391,0,0,0,7.993,6.594,53.976,53.976,0,0,0,9.172,4.979A53.663,53.663,0,0,0-1934,110a53.659,53.659,0,0,0,21.019-4.243,53.939,53.939,0,0,0,9.172-4.979,54.392,54.392,0,0,0,7.994-6.594,54.39,54.39,0,0,0,6.594-7.994,54,54,0,0,0,4.979-9.172A53.657,53.657,0,0,0-1880,56a53.66,53.66,0,0,0-4.243-21.019,54.03,54.03,0,0,0-4.979-9.172,54.43,54.43,0,0,0-6.594-7.993,54.4,54.4,0,0,0-7.994-6.6,54,54,0,0,0-9.172-4.979A53.659,53.659,0,0,0-1934,2,53.663,53.663,0,0,0-1955.019,6.242Zm17.429,71.3a1.137,1.137,0,0,1-.678-.454,1.029,1.029,0,0,1-.159-.795l8.458-40.975a1.072,1.072,0,0,1,.47-.679,1.142,1.142,0,0,1,.624-.184,1.15,1.15,0,0,1,.229.022,1.128,1.128,0,0,1,.714.464,1.025,1.025,0,0,1,.159.794l-8.42,40.937a1.057,1.057,0,0,1-.388.621,1.144,1.144,0,0,1-.7.242h-.066l-.043,0c-.037,0-.076.005-.113.005Zm-7.108-5.409-15.731-15.367a1.039,1.039,0,0,1-.32-.748,1.043,1.043,0,0,1,.32-.75l15.767-15.375a1.147,1.147,0,0,1,.8-.319,1.155,1.155,0,0,1,.771.3l.025.024a1.042,1.042,0,0,1,.32.749,1.042,1.042,0,0,1-.32.749l-15,14.621,14.966,14.622a1.038,1.038,0,0,1,.282,1.021,1.086,1.086,0,0,1-.785.757,1.14,1.14,0,0,1-.293.038A1.143,1.143,0,0,1-1944.7,72.133Zm22.069.28a1.093,1.093,0,0,1-.785-.76,1.041,1.041,0,0,1,.283-1.02l15-14.621-15-14.621a1.043,1.043,0,0,1-.283-1.021,1.1,1.1,0,0,1,.786-.758,1.163,1.163,0,0,1,.294-.038,1.14,1.14,0,0,1,.795.319l15.767,15.375.023.022a1.033,1.033,0,0,1,.293.722,1.031,1.031,0,0,1-.316.744l-15.767,15.375a1.141,1.141,0,0,1-.8.32A1.163,1.163,0,0,1-1922.63,72.413Z" transform="translate(1990)" fill="#308eca"/>
</svg>
