<svg xmlns="http://www.w3.org/2000/svg" width="112" height="112" viewBox="0 0 112 112">
  <path id="widget-customization" d="M-1990,56a56,56,0,0,1,56-56,56,56,0,0,1,56,56,56,56,0,0,1-56,56A56,56,0,0,1-1990,56Zm34.981-49.757a54.039,54.039,0,0,0-9.172,4.979,54.4,54.4,0,0,0-7.993,6.6,54.444,54.444,0,0,0-6.6,7.993,54.047,54.047,0,0,0-4.979,9.172A53.662,53.662,0,0,0-1988,56a53.659,53.659,0,0,0,4.243,21.019,54.013,54.013,0,0,0,4.979,9.172,54.4,54.4,0,0,0,6.6,7.994,54.391,54.391,0,0,0,7.993,6.594,53.976,53.976,0,0,0,9.172,4.979A53.663,53.663,0,0,0-1934,110a53.659,53.659,0,0,0,21.019-4.243,53.939,53.939,0,0,0,9.172-4.979,54.392,54.392,0,0,0,7.994-6.594,54.39,54.39,0,0,0,6.594-7.994,54,54,0,0,0,4.979-9.172A53.657,53.657,0,0,0-1880,56a53.66,53.66,0,0,0-4.243-21.019,54.03,54.03,0,0,0-4.979-9.172,54.43,54.43,0,0,0-6.594-7.993,54.4,54.4,0,0,0-7.994-6.6,54,54,0,0,0-9.172-4.979A53.659,53.659,0,0,0-1934,2,53.663,53.663,0,0,0-1955.019,6.242Zm30.994,72.354h-18.667V76.789h8.43V72.273h-19.194a3.955,3.955,0,0,1-3.99-3.909V42.76a3.954,3.954,0,0,1,3.99-3.909h23.109v1.807h-23.109a2.145,2.145,0,0,0-2.182,2.1v25.6a2.146,2.146,0,0,0,2.182,2.1h40.2a2.146,2.146,0,0,0,2.182-2.1V45.174h1.807v23.19a3.954,3.954,0,0,1-3.989,3.909h-19.194v4.516h8.429V78.6h0Zm-24.989-14.753V62.035h2.516a1.657,1.657,0,0,0,1.53-.941,12.993,12.993,0,0,0,1.032-2.88,14.928,14.928,0,0,1,2.441-5.559c1.567-1.938,3.857-2.912,7-2.982l.059,0,20.467-20.2a3.96,3.96,0,0,1,2.82-1.164,3.969,3.969,0,0,1,2.825,1.168,3.964,3.964,0,0,1,1.167,2.824,3.958,3.958,0,0,1-1.168,2.825l-20.256,20.525,0,.059a7.518,7.518,0,0,1-1.919,4.8c-1.993,2.215-5.295,3.338-9.814,3.338Zm14.445-12.36a6.938,6.938,0,0,0-5.575,2.4,13.379,13.379,0,0,0-2.051,4.823l-.011.041a15.218,15.218,0,0,1-1.1,3.07l-.121.221h3.114c3.962,0,6.8-.912,8.441-2.709a5.748,5.748,0,0,0,1.487-3.661l0-.065-4.118-4.118Zm21.875-20.734-20.122,19.863,3.354,3.353L-1909.6,33.85a2.194,2.194,0,0,0,0-3.1,2.174,2.174,0,0,0-1.547-.64A2.175,2.175,0,0,0-1912.694,30.749Z" transform="translate(1990)" fill="#308eca"/>
</svg>
