<svg xmlns="http://www.w3.org/2000/svg" width="96.872" height="74.344" viewBox="0 0 96.872 74.344">
  <g id="zap-to-email" transform="translate(-1245.4 -4513)">
    <path id="Union_23" data-name="Union 23" d="M-1986.737,27.645a3.241,3.241,0,0,1-2.307-.96,3.256,3.256,0,0,1-.956-2.309V11.037a3.275,3.275,0,0,1,1.389-2.677l11.033-7.766A3.237,3.237,0,0,1-1975.7,0h.021a3.245,3.245,0,0,1,1.892.622l10.672,7.744a3.292,3.292,0,0,1,1.35,2.648V24.375a3.256,3.256,0,0,1-.957,2.311,3.24,3.24,0,0,1-2.306.959Zm.1-1.781h21.243l-7.835-5.849-.93.741-.051.031a3.26,3.26,0,0,1-1.673.464,3.254,3.254,0,0,1-1.672-.464l-.057-.036-.495-.394Zm14.849-7,8.131,6.07a1.467,1.467,0,0,0,.111-.562V12.3Zm-16.429,5.507a1.5,1.5,0,0,0,.044.359l8.6-5.547-8.64-6.884Zm11.665-22.323-11.125,7.832-.052.048a1.49,1.49,0,0,0-.243.289l11.38,9.067a1.486,1.486,0,0,0,.713.183,1.474,1.474,0,0,0,.709-.181l11.392-9.075a1.465,1.465,0,0,0-.38-.4l-10.672-7.745a1.464,1.464,0,0,0-.859-.283h-.011A1.478,1.478,0,0,0-1976.553,2.052Z" transform="translate(3290.369 4542.1)" fill="#308eca"/>
    <path id="Union_24" data-name="Union 24" d="M-1986.225,27.581a.888.888,0,0,1-.534-.97l1.748-9.884h-4.107a.878.878,0,0,1-.782-.474.88.88,0,0,1,.059-.913L-1979.4.377a.882.882,0,0,1,.724-.377.864.864,0,0,1,.337.068.887.887,0,0,1,.531.967l-1.747,9.886h4.106a.908.908,0,0,1,.6.28l.029.025a.57.57,0,0,1,.239.369.993.993,0,0,1-.146.711l-10.446,14.963a.882.882,0,0,1-.723.376A.889.889,0,0,1-1986.225,27.581Zm-1.2-12.617h3.468a.878.878,0,0,1,.675.315.879.879,0,0,1,.193.72l-1.236,6.987,7.192-10.3h-3.466a.882.882,0,0,1-.676-.315.881.881,0,0,1-.192-.721l1.235-6.988Z" transform="translate(3249.042 4542.1)" fill="#308eca"/>
    <path id="Line_9" data-name="Line 9" d="M5.976,1.142H0A1.146,1.146,0,0,1-1.15,0,1.146,1.146,0,0,1,0-1.15h5.98A1.146,1.146,0,0,1,7.122,0,1.146,1.146,0,0,1,5.976,1.142Z" transform="translate(1284.383 4555.559)" fill="#308eca"/>
    <path id="Path_1422" data-name="Path 1422" d="M114.832,95.2a5.645,5.645,0,0,0-5.632,5.632v63.08a5.645,5.645,0,0,0,5.632,5.632H200.44a5.645,5.645,0,0,0,5.632-5.632v-63.08A5.645,5.645,0,0,0,200.44,95.2Zm0,2.253H200.44a3.348,3.348,0,0,1,3.379,3.379v10.138H111.453V100.831a3.348,3.348,0,0,1,3.379-3.379Zm4.506,3.379a3.379,3.379,0,1,0,3.379,3.379A3.4,3.4,0,0,0,119.338,100.831Zm10.137,0a3.379,3.379,0,1,0,3.379,3.379A3.4,3.4,0,0,0,129.476,100.831Zm10.137,0a3.379,3.379,0,1,0,3.379,3.379A3.4,3.4,0,0,0,139.613,100.831Zm-20.276,2.253a1.127,1.127,0,1,1-1.127,1.127A1.11,1.11,0,0,1,119.337,103.084Zm10.137,0a1.127,1.127,0,1,1-1.127,1.127A1.11,1.11,0,0,1,129.475,103.084Zm10.137,0a1.127,1.127,0,1,1-1.126,1.127A1.11,1.11,0,0,1,139.612,103.084Zm-28.161,10.138h92.367v50.689a3.348,3.348,0,0,1-3.379,3.379H114.831a3.348,3.348,0,0,1-3.379-3.379Z" transform="translate(1136.2 4417.801)" fill="#308eca"/>
  </g>
</svg>
