<svg id="US_-_English_Language_Flag" data-name="US - English Language Flag" xmlns="http://www.w3.org/2000/svg" width="21.577" height="14.137" viewBox="0 0 21.577 14.137">
  <path id="Path_5" data-name="Path 5" d="M21.205,102.413H.372A.372.372,0,0,1,0,102.041V88.648a.372.372,0,0,1,.372-.372H21.205a.372.372,0,0,1,.372.372v13.393A.372.372,0,0,1,21.205,102.413Z" transform="translate(0 -88.276)" fill="#f5f5f5"/>
  <g id="Group_2" data-name="Group 2" transform="translate(0 0)">
    <path id="Path_6" data-name="Path 6" d="M21.577,89.363H0v-.715a.372.372,0,0,1,.372-.372H21.205a.372.372,0,0,1,.372.372v.715Z" transform="translate(0 -88.276)" fill="#ff4b55"/>
    <rect id="Rectangle_7" data-name="Rectangle 7" width="21.577" height="1.087" transform="translate(0 4.35)" fill="#ff4b55"/>
    <rect id="Rectangle_8" data-name="Rectangle 8" width="21.577" height="1.087" transform="translate(0 2.175)" fill="#ff4b55"/>
    <path id="Path_7" data-name="Path 7" d="M21.577,244.185H.372A.372.372,0,0,1,0,243.813V243.1H21.577Z" transform="translate(0 -236.573)" fill="#ff4b55"/>
    <rect id="Rectangle_9" data-name="Rectangle 9" width="21.577" height="1.087" transform="translate(0 10.875)" fill="#ff4b55"/>
    <path id="Path_8" data-name="Path 8" d="M21.205,399.008H.372A.372.372,0,0,1,0,398.636v-.715H21.577v.715A.372.372,0,0,1,21.205,399.008Z" transform="translate(0 -384.872)" fill="#ff4b55"/>
    <rect id="Rectangle_10" data-name="Rectangle 10" width="21.577" height="1.087" transform="translate(0 8.7)" fill="#ff4b55"/>
  </g>
  <path id="Path_9" data-name="Path 9" d="M9.673,88.277H.372A.372.372,0,0,0,0,88.649v6.868a.372.372,0,0,0,.372.372h9.3a.372.372,0,0,0,.372-.372V88.649A.372.372,0,0,0,9.673,88.277Z" transform="translate(0 -88.277)" fill="#41479b"/>
  <g id="Group_3" data-name="Group 3" transform="translate(0.601 0.83)">
    <path id="Path_10" data-name="Path 10" d="M14.7,107.993l.082.247.26,0a.035.035,0,0,1,.021.063l-.209.155.079.248a.035.035,0,0,1-.054.039l-.212-.151-.212.151a.035.035,0,0,1-.054-.039l.079-.248-.209-.155a.035.035,0,0,1,.021-.063l.26,0,.082-.247A.035.035,0,0,1,14.7,107.993Z" transform="translate(-14.253 -107.969)" fill="#f5f5f5"/>
    <path id="Path_11" data-name="Path 11" d="M14.7,138.648l.082.247.26,0a.035.035,0,0,1,.021.063l-.209.155.079.248a.035.035,0,0,1-.054.039l-.212-.151-.212.151a.035.035,0,0,1-.054-.039l.079-.248-.209-.155a.035.035,0,0,1,.021-.063l.26,0,.082-.247A.035.035,0,0,1,14.7,138.648Z" transform="translate(-14.253 -137.332)" fill="#f5f5f5"/>
    <path id="Path_12" data-name="Path 12" d="M14.7,169.3l.082.247.26,0a.035.035,0,0,1,.021.063l-.209.155.079.248a.035.035,0,0,1-.054.039l-.212-.151-.212.151a.035.035,0,0,1-.054-.039l.079-.248-.209-.155a.035.035,0,0,1,.021-.063l.26,0,.082-.247A.035.035,0,0,1,14.7,169.3Z" transform="translate(-14.253 -166.694)" fill="#f5f5f5"/>
    <path id="Path_13" data-name="Path 13" d="M14.7,199.956l.082.247.26,0a.035.035,0,0,1,.021.063l-.209.155.079.248a.035.035,0,0,1-.054.039l-.212-.151-.212.151a.035.035,0,0,1-.054-.039l.079-.248-.209-.155a.035.035,0,0,1,.021-.063l.26,0,.082-.247A.035.035,0,0,1,14.7,199.956Z" transform="translate(-14.253 -196.056)" fill="#f5f5f5"/>
    <path id="Path_14" data-name="Path 14" d="M14.7,230.609l.082.247.26,0a.035.035,0,0,1,.021.063l-.209.155.079.248a.035.035,0,0,1-.054.039l-.212-.151-.212.151a.035.035,0,0,1-.054-.039l.079-.248-.209-.155a.035.035,0,0,1,.021-.063l.26,0,.082-.247A.035.035,0,0,1,14.7,230.609Z" transform="translate(-14.253 -225.418)" fill="#f5f5f5"/>
    <path id="Path_15" data-name="Path 15" d="M38.49,123.022l.082.247.26,0a.035.035,0,0,1,.021.063l-.209.155.079.248a.035.035,0,0,1-.054.039l-.212-.151-.212.151a.035.035,0,0,1-.054-.039l.079-.248-.209-.155a.035.035,0,0,1,.021-.063l.26,0,.082-.247A.035.035,0,0,1,38.49,123.022Z" transform="translate(-37.043 -122.365)" fill="#f5f5f5"/>
    <path id="Path_16" data-name="Path 16" d="M38.49,153.677l.082.247.26,0a.035.035,0,0,1,.021.063l-.209.155.079.248a.035.035,0,0,1-.054.039l-.212-.151-.212.151a.035.035,0,0,1-.054-.039l.079-.248-.209-.155a.035.035,0,0,1,.021-.063l.26,0,.082-.247A.035.035,0,0,1,38.49,153.677Z" transform="translate(-37.043 -151.727)" fill="#f5f5f5"/>
    <path id="Path_17" data-name="Path 17" d="M38.49,184.331l.082.247.26,0a.035.035,0,0,1,.021.063l-.209.155.079.248a.035.035,0,0,1-.054.039l-.212-.151-.212.151a.035.035,0,0,1-.054-.039l.079-.248-.209-.155a.035.035,0,0,1,.021-.063l.26,0,.082-.247A.035.035,0,0,1,38.49,184.331Z" transform="translate(-37.043 -181.09)" fill="#f5f5f5"/>
    <path id="Path_18" data-name="Path 18" d="M38.49,214.985l.082.247.26,0a.035.035,0,0,1,.021.063l-.209.155.079.248a.035.035,0,0,1-.054.039l-.212-.151-.212.151a.035.035,0,0,1-.054-.039l.079-.248-.209-.155a.035.035,0,0,1,.021-.063l.26,0,.082-.247A.035.035,0,0,1,38.49,214.985Z" transform="translate(-37.043 -210.452)" fill="#f5f5f5"/>
    <path id="Path_19" data-name="Path 19" d="M62.283,107.993l.082.247.26,0a.035.035,0,0,1,.021.063l-.209.155.079.248a.035.035,0,0,1-.054.039l-.212-.151-.212.151a.035.035,0,0,1-.054-.039l.079-.248-.209-.155a.035.035,0,0,1,.021-.063l.26,0,.082-.247A.035.035,0,0,1,62.283,107.993Z" transform="translate(-59.833 -107.969)" fill="#f5f5f5"/>
    <path id="Path_20" data-name="Path 20" d="M62.283,138.647l.082.247.26,0a.035.035,0,0,1,.021.063l-.209.155.079.248a.035.035,0,0,1-.054.039l-.212-.151-.212.151a.035.035,0,0,1-.054-.039l.079-.248-.209-.155a.035.035,0,0,1,.021-.063l.26,0,.082-.247A.035.035,0,0,1,62.283,138.647Z" transform="translate(-59.833 -137.332)" fill="#f5f5f5"/>
    <path id="Path_21" data-name="Path 21" d="M62.283,169.3l.082.247.26,0a.035.035,0,0,1,.021.063l-.209.155.079.248a.035.035,0,0,1-.054.039l-.212-.151-.212.151a.035.035,0,0,1-.054-.039l.079-.248-.209-.155a.035.035,0,0,1,.021-.063l.26,0,.082-.247A.035.035,0,0,1,62.283,169.3Z" transform="translate(-59.833 -166.694)" fill="#f5f5f5"/>
    <path id="Path_22" data-name="Path 22" d="M62.283,199.956l.082.247.26,0a.035.035,0,0,1,.021.063l-.209.155.079.248a.035.035,0,0,1-.054.039l-.212-.151-.212.151a.035.035,0,0,1-.054-.039l.079-.248-.209-.155a.035.035,0,0,1,.021-.063l.26,0,.082-.247A.035.035,0,0,1,62.283,199.956Z" transform="translate(-59.833 -196.056)" fill="#f5f5f5"/>
    <path id="Path_23" data-name="Path 23" d="M62.283,230.609l.082.247.26,0a.035.035,0,0,1,.021.063l-.209.155.079.248a.035.035,0,0,1-.054.039l-.212-.151-.212.151a.035.035,0,0,1-.054-.039l.079-.248-.209-.155a.035.035,0,0,1,.021-.063l.26,0,.082-.247A.035.035,0,0,1,62.283,230.609Z" transform="translate(-59.833 -225.418)" fill="#f5f5f5"/>
    <path id="Path_24" data-name="Path 24" d="M86.077,123.022l.082.247.26,0a.035.035,0,0,1,.021.063l-.209.155.079.248a.035.035,0,0,1-.054.039l-.212-.151-.212.151a.035.035,0,0,1-.054-.039l.079-.248-.209-.155a.035.035,0,0,1,.021-.063l.26,0,.082-.247A.035.035,0,0,1,86.077,123.022Z" transform="translate(-82.624 -122.365)" fill="#f5f5f5"/>
    <path id="Path_25" data-name="Path 25" d="M86.077,153.677l.082.247.26,0a.035.035,0,0,1,.021.063l-.209.155.079.248a.035.035,0,0,1-.054.039l-.212-.151-.212.151a.035.035,0,0,1-.054-.039l.079-.248-.209-.155a.035.035,0,0,1,.021-.063l.26,0,.082-.247A.035.035,0,0,1,86.077,153.677Z" transform="translate(-82.624 -151.727)" fill="#f5f5f5"/>
    <path id="Path_26" data-name="Path 26" d="M86.077,184.331l.082.247.26,0a.035.035,0,0,1,.021.063l-.209.155.079.248a.035.035,0,0,1-.054.039l-.212-.151-.212.151a.035.035,0,0,1-.054-.039l.079-.248-.209-.155a.035.035,0,0,1,.021-.063l.26,0,.082-.247A.035.035,0,0,1,86.077,184.331Z" transform="translate(-82.624 -181.09)" fill="#f5f5f5"/>
    <path id="Path_27" data-name="Path 27" d="M86.077,214.985l.082.247.26,0a.035.035,0,0,1,.021.063l-.209.155.079.248a.035.035,0,0,1-.054.039l-.212-.151-.212.151a.035.035,0,0,1-.054-.039l.079-.248-.209-.155a.035.035,0,0,1,.021-.063l.26,0,.082-.247A.035.035,0,0,1,86.077,214.985Z" transform="translate(-82.624 -210.452)" fill="#f5f5f5"/>
    <path id="Path_28" data-name="Path 28" d="M109.869,107.993l.082.247.26,0a.035.035,0,0,1,.021.063l-.209.155.079.248a.035.035,0,0,1-.054.039l-.212-.151-.212.151a.035.035,0,0,1-.054-.039l.079-.248-.209-.155a.035.035,0,0,1,.021-.063l.26,0,.082-.247A.035.035,0,0,1,109.869,107.993Z" transform="translate(-105.414 -107.969)" fill="#f5f5f5"/>
    <path id="Path_29" data-name="Path 29" d="M109.869,138.647l.082.247.26,0a.035.035,0,0,1,.021.063l-.209.155.079.248a.035.035,0,0,1-.054.039l-.212-.151-.212.151a.035.035,0,0,1-.054-.039l.079-.248-.209-.155a.035.035,0,0,1,.021-.063l.26,0,.082-.247A.035.035,0,0,1,109.869,138.647Z" transform="translate(-105.414 -137.332)" fill="#f5f5f5"/>
    <path id="Path_30" data-name="Path 30" d="M109.869,169.3l.082.247.26,0a.035.035,0,0,1,.021.063l-.209.155.079.248a.035.035,0,0,1-.054.039l-.212-.151-.212.151a.035.035,0,0,1-.054-.039l.079-.248-.209-.155a.035.035,0,0,1,.021-.063l.26,0,.082-.247A.035.035,0,0,1,109.869,169.3Z" transform="translate(-105.414 -166.694)" fill="#f5f5f5"/>
    <path id="Path_31" data-name="Path 31" d="M109.869,199.956l.082.247.26,0a.035.035,0,0,1,.021.063l-.209.155.079.248a.035.035,0,0,1-.054.039l-.212-.151-.212.151a.035.035,0,0,1-.054-.039l.079-.248-.209-.155a.035.035,0,0,1,.021-.063l.26,0,.082-.247A.035.035,0,0,1,109.869,199.956Z" transform="translate(-105.414 -196.056)" fill="#f5f5f5"/>
    <path id="Path_32" data-name="Path 32" d="M109.869,230.609l.082.247.26,0a.035.035,0,0,1,.021.063l-.209.155.079.248a.035.035,0,0,1-.054.039l-.212-.151-.212.151a.035.035,0,0,1-.054-.039l.079-.248-.209-.155a.035.035,0,0,1,.021-.063l.26,0,.082-.247A.035.035,0,0,1,109.869,230.609Z" transform="translate(-105.414 -225.418)" fill="#f5f5f5"/>
    <path id="Path_33" data-name="Path 33" d="M133.663,123.022l.082.247.26,0a.035.035,0,0,1,.021.063l-.209.155.079.248a.035.035,0,0,1-.054.039l-.212-.151-.212.151a.035.035,0,0,1-.054-.039l.079-.248-.209-.155a.035.035,0,0,1,.021-.063l.26,0,.082-.247A.035.035,0,0,1,133.663,123.022Z" transform="translate(-128.205 -122.365)" fill="#f5f5f5"/>
    <path id="Path_34" data-name="Path 34" d="M133.663,153.677l.082.247.26,0a.035.035,0,0,1,.021.063l-.209.155.079.248a.035.035,0,0,1-.054.039l-.212-.151-.212.151a.035.035,0,0,1-.054-.039l.079-.248-.209-.155a.035.035,0,0,1,.021-.063l.26,0,.082-.247A.035.035,0,0,1,133.663,153.677Z" transform="translate(-128.205 -151.727)" fill="#f5f5f5"/>
    <path id="Path_35" data-name="Path 35" d="M133.663,184.331l.082.247.26,0a.035.035,0,0,1,.021.063l-.209.155.079.248a.035.035,0,0,1-.054.039l-.212-.151-.212.151a.035.035,0,0,1-.054-.039l.079-.248-.209-.155a.035.035,0,0,1,.021-.063l.26,0,.082-.247A.035.035,0,0,1,133.663,184.331Z" transform="translate(-128.205 -181.09)" fill="#f5f5f5"/>
    <path id="Path_36" data-name="Path 36" d="M133.663,214.985l.082.247.26,0a.035.035,0,0,1,.021.063l-.209.155.079.248a.035.035,0,0,1-.054.039l-.212-.151-.212.151a.035.035,0,0,1-.054-.039l.079-.248-.209-.155a.035.035,0,0,1,.021-.063l.26,0,.082-.247A.035.035,0,0,1,133.663,214.985Z" transform="translate(-128.205 -210.452)" fill="#f5f5f5"/>
    <path id="Path_37" data-name="Path 37" d="M157.457,107.993l.082.247.26,0a.035.035,0,0,1,.021.063l-.209.155.079.248a.035.035,0,0,1-.054.039l-.212-.151-.212.151a.035.035,0,0,1-.054-.039l.079-.248-.209-.155a.035.035,0,0,1,.021-.063l.26,0,.082-.247A.035.035,0,0,1,157.457,107.993Z" transform="translate(-150.996 -107.969)" fill="#f5f5f5"/>
    <path id="Path_38" data-name="Path 38" d="M157.457,138.647l.082.247.26,0a.035.035,0,0,1,.021.063l-.209.155.079.248a.035.035,0,0,1-.054.039l-.212-.151-.212.151a.035.035,0,0,1-.054-.039l.079-.248-.209-.155a.035.035,0,0,1,.021-.063l.26,0,.082-.247A.035.035,0,0,1,157.457,138.647Z" transform="translate(-150.996 -137.332)" fill="#f5f5f5"/>
    <path id="Path_39" data-name="Path 39" d="M157.457,169.3l.082.247.26,0a.035.035,0,0,1,.021.063l-.209.155.079.248a.035.035,0,0,1-.054.039l-.212-.151-.212.151a.035.035,0,0,1-.054-.039l.079-.248-.209-.155a.035.035,0,0,1,.021-.063l.26,0,.082-.247A.035.035,0,0,1,157.457,169.3Z" transform="translate(-150.996 -166.694)" fill="#f5f5f5"/>
    <path id="Path_40" data-name="Path 40" d="M157.457,199.956l.082.247.26,0a.035.035,0,0,1,.021.063l-.209.155.079.248a.035.035,0,0,1-.054.039l-.212-.151-.212.151a.035.035,0,0,1-.054-.039l.079-.248-.209-.155a.035.035,0,0,1,.021-.063l.26,0,.082-.247A.035.035,0,0,1,157.457,199.956Z" transform="translate(-150.996 -196.056)" fill="#f5f5f5"/>
    <path id="Path_41" data-name="Path 41" d="M157.457,230.609l.082.247.26,0a.035.035,0,0,1,.021.063l-.209.155.079.248a.035.035,0,0,1-.054.039l-.212-.151-.212.151a.035.035,0,0,1-.054-.039l.079-.248-.209-.155a.035.035,0,0,1,.021-.063l.26,0,.082-.247A.035.035,0,0,1,157.457,230.609Z" transform="translate(-150.996 -225.418)" fill="#f5f5f5"/>
    <path id="Path_42" data-name="Path 42" d="M181.25,123.022l.082.247.26,0a.035.035,0,0,1,.021.063l-.209.155.079.248a.035.035,0,0,1-.054.039l-.212-.151-.212.151a.035.035,0,0,1-.054-.039l.079-.248-.209-.155a.035.035,0,0,1,.021-.063l.26,0,.082-.247A.035.035,0,0,1,181.25,123.022Z" transform="translate(-173.787 -122.365)" fill="#f5f5f5"/>
    <path id="Path_43" data-name="Path 43" d="M181.25,153.677l.082.247.26,0a.035.035,0,0,1,.021.063l-.209.155.079.248a.035.035,0,0,1-.054.039l-.212-.151-.212.151a.035.035,0,0,1-.054-.039l.079-.248-.209-.155a.035.035,0,0,1,.021-.063l.26,0,.082-.247A.035.035,0,0,1,181.25,153.677Z" transform="translate(-173.787 -151.727)" fill="#f5f5f5"/>
    <path id="Path_44" data-name="Path 44" d="M181.25,184.331l.082.247.26,0a.035.035,0,0,1,.021.063l-.209.155.079.248a.035.035,0,0,1-.054.039l-.212-.151-.212.151a.035.035,0,0,1-.054-.039l.079-.248-.209-.155a.035.035,0,0,1,.021-.063l.26,0,.082-.247A.035.035,0,0,1,181.25,184.331Z" transform="translate(-173.787 -181.09)" fill="#f5f5f5"/>
    <path id="Path_45" data-name="Path 45" d="M181.25,214.985l.082.247.26,0a.035.035,0,0,1,.021.063l-.209.155.079.248a.035.035,0,0,1-.054.039l-.212-.151-.212.151a.035.035,0,0,1-.054-.039l.079-.248-.209-.155a.035.035,0,0,1,.021-.063l.26,0,.082-.247A.035.035,0,0,1,181.25,214.985Z" transform="translate(-173.787 -210.452)" fill="#f5f5f5"/>
    <path id="Path_46" data-name="Path 46" d="M205.044,107.993l.082.247.26,0a.035.035,0,0,1,.021.063l-.209.155.079.248a.035.035,0,0,1-.054.039l-.212-.151-.212.151a.035.035,0,0,1-.054-.039l.079-.248-.209-.155a.035.035,0,0,1,.021-.063l.26,0,.082-.247A.035.035,0,0,1,205.044,107.993Z" transform="translate(-196.578 -107.969)" fill="#f5f5f5"/>
    <path id="Path_47" data-name="Path 47" d="M205.044,138.647l.082.247.26,0a.035.035,0,0,1,.021.063l-.209.155.079.248a.035.035,0,0,1-.054.039l-.212-.151-.212.151a.035.035,0,0,1-.054-.039l.079-.248-.209-.155a.035.035,0,0,1,.021-.063l.26,0,.082-.247A.035.035,0,0,1,205.044,138.647Z" transform="translate(-196.578 -137.332)" fill="#f5f5f5"/>
    <path id="Path_48" data-name="Path 48" d="M205.044,169.3l.082.247.26,0a.035.035,0,0,1,.021.063l-.209.155.079.248a.035.035,0,0,1-.054.039l-.212-.151-.212.151a.035.035,0,0,1-.054-.039l.079-.248-.209-.155a.035.035,0,0,1,.021-.063l.26,0,.082-.247A.035.035,0,0,1,205.044,169.3Z" transform="translate(-196.578 -166.694)" fill="#f5f5f5"/>
    <path id="Path_49" data-name="Path 49" d="M205.044,199.956l.082.247.26,0a.035.035,0,0,1,.021.063l-.209.155.079.248a.035.035,0,0,1-.054.039l-.212-.151-.212.151a.035.035,0,0,1-.054-.039l.079-.248-.209-.155a.035.035,0,0,1,.021-.063l.26,0,.082-.247A.035.035,0,0,1,205.044,199.956Z" transform="translate(-196.578 -196.056)" fill="#f5f5f5"/>
    <path id="Path_50" data-name="Path 50" d="M205.044,230.609l.082.247.26,0a.035.035,0,0,1,.021.063l-.209.155.079.248a.035.035,0,0,1-.054.039l-.212-.151-.212.151a.035.035,0,0,1-.054-.039l.079-.248-.209-.155a.035.035,0,0,1,.021-.063l.26,0,.082-.247A.035.035,0,0,1,205.044,230.609Z" transform="translate(-196.578 -225.418)" fill="#f5f5f5"/>
  </g>
</svg>
