<svg xmlns="http://www.w3.org/2000/svg" width="14.217" height="14.217" viewBox="0 0 14.217 14.217">
  <path id="Facebook_Icon" data-name="Facebook Icon" d="M12.3,0H1.918A1.916,1.916,0,0,0,0,1.916V12.3a1.916,1.916,0,0,0,1.916,1.916H7.04l.009-5.08H5.729a.311.311,0,0,1-.311-.31L5.411,7.189a.311.311,0,0,1,.311-.313H7.04V5.294A2.585,2.585,0,0,1,9.8,2.458h1.344a.311.311,0,0,1,.311.311V4.15a.311.311,0,0,1-.311.311h-.825c-.891,0-1.063.423-1.063,1.045v1.37h1.958a.311.311,0,0,1,.309.348l-.194,1.638a.311.311,0,0,1-.309.275H9.265l-.009,5.08H12.3A1.916,1.916,0,0,0,14.219,12.3V1.916A1.916,1.916,0,0,0,12.3,0Z" transform="translate(-0.002)" fill="#475993"/>
</svg>
