<svg id="Youtube_Icon" data-name="Youtube Icon" xmlns="http://www.w3.org/2000/svg" width="20.306" height="14.217" viewBox="0 0 20.306 14.217">
  <path id="Path_53" data-name="Path 53" d="M19.888,2.225A2.544,2.544,0,0,0,18.1.435C16.509,0,10.153,0,10.153,0S3.8,0,2.208.418A2.6,2.6,0,0,0,.418,2.225,26.806,26.806,0,0,0,0,7.109a26.708,26.708,0,0,0,.418,4.884,2.545,2.545,0,0,0,1.79,1.79c1.606.435,7.945.435,7.945.435s6.356,0,7.945-.418a2.544,2.544,0,0,0,1.79-1.79,26.807,26.807,0,0,0,.418-4.884,25.444,25.444,0,0,0-.418-4.9Zm0,0" transform="translate(0 0)" fill="red"/>
  <path id="Path_54" data-name="Path 54" d="M204.969,108.573l5.286-3.044-5.286-3.044Zm0,0" transform="translate(-196.84 -98.42)" fill="#fff"/>
</svg>
